<?xml version="1.0" encoding="utf-8"?>
<!-- Generator: Adobe Illustrator 24.1.0, SVG Export Plug-In . SVG Version: 6.00 Build 0)  -->
<svg version="1.1" id="livetype" xmlns="http://www.w3.org/2000/svg" xmlns:xlink="http://www.w3.org/1999/xlink" x="0px" y="0px"
	 width="119.7px" height="40px" viewBox="0 0 119.7 40" style="enable-background:new 0 0 119.7 40;" xml:space="preserve">
<style type="text/css">
	.st0{fill:#FFFFFF;}
	.st1{fill:url(#SVGID_1_);}
	.st2{fill:url(#SVGID_2_);}
	.st3{fill:url(#SVGID_3_);}
	.st4{fill:url(#SVGID_4_);}
	.st5{opacity:0.2;enable-background:new    ;}
	.st6{opacity:0.12;enable-background:new    ;}
	.st7{opacity:0.25;fill:#FFFFFF;enable-background:new    ;}
</style>
<g>
	<g>
		<g>
			<path d="M8.4,39.1c-0.3,0-0.6,0-0.9,0c-0.6,0-1.3-0.1-1.9-0.2c-0.6-0.1-1.1-0.3-1.7-0.5c-0.5-0.3-1-0.6-1.4-1s-0.8-0.9-1-1.4
				c-0.3-0.5-0.4-1.1-0.5-1.7c-0.1-0.6-0.2-1.2-0.2-1.9c0-0.2,0-0.9,0-0.9V8.4c0,0,0-0.7,0-0.9c0-0.6,0.1-1.3,0.2-1.9
				C1.1,5.1,1.3,4.5,1.6,4s0.6-1,1-1.4s0.9-0.7,1.4-1s1.1-0.4,1.7-0.5s1.2-0.2,1.9-0.2h0.9h102.8h0.9c0.6,0,1.2,0.1,1.9,0.2
				c0.6,0.1,1.1,0.3,1.7,0.5c1,0.5,1.9,1.4,2.4,2.4c0.3,0.5,0.4,1.1,0.5,1.6c0.1,0.6,0.2,1.3,0.2,1.9c0,0.3,0,0.6,0,0.9
				c0,0.4,0,0.7,0,1.1v20.9c0,0.4,0,0.7,0,1.1c0,0.3,0,0.6,0,0.9c0,0.6-0.1,1.2-0.2,1.9c-0.1,0.6-0.3,1.1-0.5,1.7
				c-0.3,0.5-0.6,1-1,1.4s-0.9,0.8-1.4,1c-0.5,0.3-1.1,0.5-1.7,0.5c-0.6,0.1-1.2,0.2-1.9,0.2c-0.3,0-0.6,0-0.9,0h-1.1L8.4,39.1z"/>
		</g>
		<path class="st0" d="M60.2,22.1c-2.1,0-3.8,1.6-3.8,3.8s1.7,3.8,3.8,3.8s3.8-1.6,3.8-3.8S62.3,22.1,60.2,22.1z M60.2,28.2
			c-1.2,0-2.2-1-2.2-2.3c0-1.4,1-2.3,2.2-2.3s2.2,0.9,2.2,2.3C62.3,27.2,61.3,28.2,60.2,28.2z M51.8,22.1c-2.1,0-3.8,1.6-3.8,3.8
			s1.7,3.8,3.8,3.8s3.8-1.6,3.8-3.8C55.7,23.7,53.9,22.1,51.8,22.1z M51.8,28.2c-1.2,0-2.2-1-2.2-2.3c0-1.4,1-2.3,2.2-2.3
			s2.2,0.9,2.2,2.3C54,27.2,53,28.2,51.8,28.2z M41.9,23.2v1.6h3.9c-0.1,0.9-0.4,1.6-0.9,2c-0.6,0.6-1.4,1.2-3,1.2
			c-2.4,0-4.3-1.9-4.3-4.3s1.9-4.3,4.3-4.3c1.3,0,2.2,0.5,2.9,1.2l1.1-1.1c-1-0.9-2.3-1.6-4.1-1.6c-3.3,0-6,2.7-6,5.9
			c0,3.3,2.8,5.9,6,5.9c1.8,0,3.1-0.6,4.1-1.7c1.1-1.1,1.4-2.6,1.4-3.8c0-0.4,0-0.7-0.1-1H41.9z M82.6,24.5
			c-0.3-0.9-1.3-2.4-3.3-2.4s-3.6,1.6-3.6,3.8c0,2.1,1.6,3.8,3.8,3.8c1.8,0,2.8-1.1,3.2-1.7l-1.3-0.9c-0.4,0.6-1,1.1-1.9,1.1
			S78,27.8,77.6,27l5.1-2.1L82.6,24.5z M77.4,25.8c0-1.5,1.1-2.2,2-2.2c0.7,0,1.2,0.3,1.4,0.8L77.4,25.8z M73.2,29.5h1.7V18.2h-1.7
			V29.5z M70.5,22.9L70.5,22.9c-0.4-0.4-1.2-0.9-2.1-0.9c-1.9,0-3.7,1.7-3.7,3.8s1.8,3.8,3.7,3.8c0.9,0,1.6-0.4,2-0.9h0.1v0.6
			c0,1.5-0.8,2.2-2,2.2c-1,0-1.7-0.7-1.9-1.4L65,30.9c0.4,1,1.5,2.3,3.4,2.3c2,0,3.6-1.2,3.6-4v-6.9h-1.6L70.5,22.9L70.5,22.9z
			 M68.5,28.2c-1.2,0-2.1-1-2.1-2.3s1-2.3,2.1-2.3s2,1,2,2.3C70.6,27.2,69.7,28.2,68.5,28.2z M90.5,18.2h-4v11.2h1.7v-4.3h2.3
			c1.9,0,3.7-1.3,3.7-3.5S92.3,18.2,90.5,18.2z M90.5,23.6h-2.4v-3.9h2.4c1.3,0,2,1,2,1.9C92.5,22.6,91.8,23.6,90.5,23.6z M100.9,22
			c-1.2,0-2.5,0.5-3,1.7l1.5,0.6c0.3-0.6,0.9-0.8,1.5-0.8c0.9,0,1.7,0.5,1.8,1.4V25c-0.3-0.2-1-0.4-1.7-0.4c-1.6,0-3.2,0.9-3.2,2.5
			c0,1.5,1.3,2.5,2.8,2.5c1.1,0,1.7-0.5,2.1-1.1h0.1v0.9h1.6v-4.3C104.3,23.1,102.8,22,100.9,22z M100.7,28.2c-0.5,0-1.3-0.3-1.3-1
			c0-0.9,1-1.2,1.8-1.2c0.7,0,1.1,0.2,1.5,0.4C102.5,27.5,101.6,28.2,100.7,28.2z M110.2,22.3l-1.9,4.9h-0.1l-2-4.9h-1.8l3,6.8
			l-1.7,3.8h1.7l4.6-10.6C112,22.3,110.2,22.3,110.2,22.3z M95.1,29.5h1.7V18.2h-1.7V29.5z"/>
		<g>
			
				<linearGradient id="SVGID_1_" gradientUnits="userSpaceOnUse" x1="18.5481" y1="736.3519" x2="3.4574" y2="751.4426" gradientTransform="matrix(1 0 0 1 0 -726)">
				<stop  offset="0" style="stop-color:#00A0FF"/>
				<stop  offset="6.574450e-03" style="stop-color:#00A1FF"/>
				<stop  offset="0.2601" style="stop-color:#00BEFF"/>
				<stop  offset="0.5122" style="stop-color:#00D2FF"/>
				<stop  offset="0.7604" style="stop-color:#00DFFF"/>
				<stop  offset="1" style="stop-color:#00E3FF"/>
			</linearGradient>
			<path class="st1" d="M8.3,9.3C8,9.6,7.9,10,7.9,10.5v19.9c0,0.6,0.2,1,0.4,1.3l0.1,0.1l11.1-11.1v-0.1v-0.1L8.3,9.3L8.3,9.3z"/>
			
				<linearGradient id="SVGID_2_" gradientUnits="userSpaceOnUse" x1="29.3467" y1="746.5" x2="7.5888" y2="746.5" gradientTransform="matrix(1 0 0 1 0 -726)">
				<stop  offset="0" style="stop-color:#FFE000"/>
				<stop  offset="0.4087" style="stop-color:#FFBD00"/>
				<stop  offset="0.7754" style="stop-color:#FFA500"/>
				<stop  offset="1" style="stop-color:#FF9C00"/>
			</linearGradient>
			<path class="st2" d="M23.2,24.3l-3.7-3.7v-0.1v-0.1l3.7-3.7h0.1l4.4,2.5c1.3,0.7,1.3,1.9,0,2.6L23.2,24.3L23.2,24.3z"/>
			
				<linearGradient id="SVGID_3_" gradientUnits="userSpaceOnUse" x1="21.2507" y1="748.5493" x2="0.7865" y2="769.0135" gradientTransform="matrix(1 0 0 1 0 -726)">
				<stop  offset="0" style="stop-color:#FF3A44"/>
				<stop  offset="1" style="stop-color:#C31162"/>
			</linearGradient>
			<path class="st3" d="M23.3,24.3l-3.8-3.8L8.3,31.7c0.4,0.4,1.1,0.5,1.9,0.1L23.3,24.3"/>
			
				<linearGradient id="SVGID_4_" gradientUnits="userSpaceOnUse" x1="5.4701" y1="728.67" x2="14.6082" y2="737.8082" gradientTransform="matrix(1 0 0 1 0 -726)">
				<stop  offset="0" style="stop-color:#32A071"/>
				<stop  offset="6.850000e-02" style="stop-color:#2DA771"/>
				<stop  offset="0.4762" style="stop-color:#15CF74"/>
				<stop  offset="0.8009" style="stop-color:#06E775"/>
				<stop  offset="1" style="stop-color:#00F076"/>
			</linearGradient>
			<path class="st4" d="M23.3,16.7L10.2,9.2C9.4,8.8,8.7,8.8,8.3,9.3l11.2,11.2L23.3,16.7z"/>
			<g>
				<path class="st5" d="M23.2,24.2l-13.1,7.4c-0.7,0.4-1.4,0.4-1.8,0l0,0l-0.1,0.1l0,0l0.1,0.1l0,0c0.4,0.4,1.1,0.4,1.8,0
					L23.2,24.2L23.2,24.2z"/>
				<path class="st6" d="M8.3,31.6c-0.3-0.3-0.4-0.7-0.4-1.3v0.1c0,0.6,0.2,1,0.4,1.3V31.6L8.3,31.6z"/>
			</g>
			<path class="st6" d="M27.7,21.6l-4.5,2.5l0.1,0.1l4.4-2.5c0.6-0.4,0.9-0.8,0.9-1.3l0,0C28.6,20.9,28.3,21.3,27.7,21.6z"/>
			<path class="st7" d="M10.2,9.4l17.5,10c0.6,0.3,0.9,0.7,0.9,1.2l0,0c0-0.5-0.3-0.9-0.9-1.3L10.2,9.4c-1.3-0.8-2.3-0.2-2.3,1.2
				v0.1C7.9,9.2,8.9,8.6,10.2,9.4z"/>
		</g>
		<g>
			<path class="st0" d="M38.2,10.6l-0.7,2.1h-0.9L38.8,6h1l2.3,6.7h-0.9l-0.7-2.1H38.2z M40.4,9.9L39.7,8c-0.1-0.4-0.2-0.8-0.3-1.2
				h0c-0.1,0.4-0.2,0.8-0.3,1.2l-0.7,1.9H40.4z"/>
			<path class="st0" d="M43.1,9.2c0-0.5,0-0.9,0-1.3h0.8l0,0.8h0c0.2-0.5,0.8-0.9,1.6-0.9c0.7,0,1.7,0.4,1.7,2.1v2.9h-0.9V9.9
				c0-0.8-0.3-1.4-1.1-1.4c-0.6,0-1,0.4-1.2,0.9C44,9.5,44,9.6,44,9.8v2.9h-0.9V9.2z"/>
			<path class="st0" d="M52.9,5.6v5.8c0,0.4,0,0.9,0,1.2h-0.8l0-0.8h0c-0.3,0.5-0.9,1-1.6,1c-1.2,0-2.1-1-2.1-2.5
				c0-1.6,1-2.6,2.2-2.6c0.7,0,1.2,0.3,1.5,0.7h0V5.6H52.9z M52,9.8c0-0.1,0-0.3,0-0.4c-0.1-0.6-0.6-1-1.3-1c-0.9,0-1.4,0.8-1.4,1.9
				c0,1,0.5,1.8,1.4,1.8c0.6,0,1.1-0.4,1.3-1c0-0.1,0-0.2,0-0.4V9.8z"/>
			<path class="st0" d="M54.3,9.4c0-0.6,0-1.1,0-1.5H55l0,0.9h0c0.2-0.6,0.7-1.1,1.3-1.1c0.1,0,0.2,0,0.2,0v0.8c-0.1,0-0.2,0-0.3,0
				c-0.6,0-1.1,0.5-1.2,1.1c0,0.1,0,0.3,0,0.4v2.6h-0.9V9.4z"/>
			<path class="st0" d="M61.9,10.2c0,1.8-1.2,2.6-2.4,2.6c-1.3,0-2.3-1-2.3-2.5c0-1.6,1.1-2.6,2.4-2.6C60.9,7.7,61.9,8.8,61.9,10.2z
				 M58,10.3c0,1.1,0.6,1.9,1.5,1.9c0.8,0,1.5-0.8,1.5-1.9c0-0.8-0.4-1.9-1.4-1.9C58.5,8.4,58,9.4,58,10.3z"/>
			<path class="st0" d="M64,6.5C64,6.8,63.7,7,63.4,7c-0.3,0-0.5-0.2-0.5-0.5c0-0.3,0.2-0.5,0.5-0.5C63.7,5.9,64,6.2,64,6.5z
				 M63,12.7V7.9h0.9v4.8H63z"/>
			<path class="st0" d="M69.5,5.6v5.8c0,0.4,0,0.9,0,1.2h-0.8l0-0.8h0c-0.3,0.5-0.9,1-1.6,1c-1.2,0-2.1-1-2.1-2.5
				c0-1.6,1-2.6,2.2-2.6c0.7,0,1.2,0.3,1.5,0.7h0V5.6H69.5z M68.6,9.8c0-0.1,0-0.3,0-0.4c-0.1-0.6-0.6-1-1.3-1
				c-0.9,0-1.4,0.8-1.4,1.9c0,1,0.5,1.8,1.4,1.8c0.6,0,1.1-0.4,1.3-1c0-0.1,0-0.2,0-0.4V9.8z"/>
			<path class="st0" d="M75.8,12.7l-0.1-0.6h0c-0.3,0.4-0.8,0.7-1.5,0.7c-1,0-1.5-0.7-1.5-1.4c0-1.2,1-1.8,2.9-1.8V9.5
				c0-0.4-0.1-1.1-1.1-1.1c-0.5,0-0.9,0.1-1.3,0.4L73,8.2c0.4-0.3,1-0.4,1.6-0.4c1.5,0,1.8,1,1.8,2v1.8c0,0.4,0,0.8,0.1,1.2H75.8z
				 M75.6,10.2c-1,0-2,0.2-2,1.1c0,0.6,0.4,0.8,0.8,0.8c0.6,0,1-0.4,1.2-0.8c0-0.1,0-0.2,0-0.3V10.2z"/>
			<path class="st0" d="M77.9,9.4c0-0.6,0-1.1,0-1.6h0.8l0,0.8h0c0.4-0.6,0.9-0.9,1.7-0.9c1.2,0,2,1,2,2.5c0,1.7-1.1,2.6-2.2,2.6
				c-0.6,0-1.2-0.3-1.5-0.8h0v2.6h-0.9V9.4z M78.8,10.7c0,0.1,0,0.2,0,0.4c0.2,0.6,0.7,1,1.3,1c0.9,0,1.5-0.8,1.5-1.9
				c0-1-0.5-1.8-1.4-1.8c-0.6,0-1.2,0.4-1.3,1.1c0,0.1-0.1,0.2-0.1,0.4V10.7z"/>
			<path class="st0" d="M83.6,9.4c0-0.6,0-1.1,0-1.6h0.8l0,0.8h0c0.4-0.6,0.9-0.9,1.7-0.9c1.2,0,2,1,2,2.5c0,1.7-1.1,2.6-2.2,2.6
				c-0.6,0-1.2-0.3-1.5-0.8h0v2.6h-0.9V9.4z M84.5,10.7c0,0.1,0,0.2,0,0.4c0.2,0.6,0.7,1,1.3,1c0.9,0,1.5-0.8,1.5-1.9
				c0-1-0.5-1.8-1.4-1.8c-0.6,0-1.2,0.4-1.3,1.1c0,0.1-0.1,0.2-0.1,0.4V10.7z"/>
			<path class="st0" d="M95.8,10.2c0,1.8-1.2,2.6-2.4,2.6c-1.3,0-2.3-1-2.3-2.5c0-1.6,1.1-2.6,2.4-2.6C94.8,7.7,95.8,8.8,95.8,10.2z
				 M91.9,10.3c0,1.1,0.6,1.9,1.5,1.9c0.8,0,1.5-0.8,1.5-1.9c0-0.8-0.4-1.9-1.4-1.9C92.4,8.4,91.9,9.4,91.9,10.3z"/>
			<path class="st0" d="M96.9,9.2c0-0.5,0-0.9,0-1.3h0.8l0.1,0.8h0c0.2-0.5,0.8-0.9,1.6-0.9c0.7,0,1.7,0.4,1.7,2.1v2.9h-0.9V9.9
				c0-0.8-0.3-1.4-1.1-1.4c-0.6,0-1,0.4-1.2,0.9c0,0.1-0.1,0.3-0.1,0.4v2.9h-0.9V9.2z"/>
		</g>
	</g>
</g>
</svg>
