<?xml version="1.0" encoding="utf-8"?>
<!-- Generator: Adobe Illustrator 24.1.0, SVG Export Plug-In . SVG Version: 6.00 Build 0)  -->
<svg version="1.1" id="Capa_1" xmlns="http://www.w3.org/2000/svg" xmlns:xlink="http://www.w3.org/1999/xlink" x="0px" y="0px"
	 width="151.6px" height="113.1px" viewBox="0 0 151.6 113.1" style="enable-background:new 0 0 151.6 113.1;" xml:space="preserve"
	>
<style type="text/css">
	.st0{fill:#FFFFFF;}
</style>
<g>
	<path class="st0" d="M142.3,45.9C118.4,46.2,96,77.8,74,77.8S32.6,45.9,10.2,45.9H0v67.1h151.7V45.9
		C146.6,45.9,143.4,45.9,142.3,45.9z"/>
	<path class="st0" d="M72.6,42.5c0.8,0.8,2.2,0.8,3.1,0h0l17.5-17.7c0.8-0.8,0.8-2.2,0-3.1l-1.3-1.3c-0.8-0.8-2.2-0.8-3.1,0
		L74.1,35.3L59.4,20.5c-0.8-0.8-2.2-0.8-3.1,0L55,21.8c-0.8,0.8-0.8,2.2,0,3.1L72.6,42.5z"/>
</g>
</svg>
