<?xml version="1.0" encoding="utf-8"?>
<!-- Generator: Adobe Illustrator 24.1.2, SVG Export Plug-In . SVG Version: 6.00 Build 0)  -->
<svg version="1.1" id="Capa_1" xmlns="http://www.w3.org/2000/svg" xmlns:xlink="http://www.w3.org/1999/xlink" x="0px" y="0px"
	 width="151.6px" height="64px" viewBox="0 0 151.6 64" style="enable-background:new 0 0 151.6 64;" xml:space="preserve">
<style type="text/css">
	.st0{fill:#FFFFFF;}
</style>
<g>
	<path class="st0" d="M142.3,28.9C118.4,29.2,96,60.8,74,60.8S32.6,28.9,10.2,28.9H0V64h151.7V28.9
		C146.6,28.9,143.4,28.9,142.3,28.9z"/>
	<path class="st0" d="M72.6,25.5c0.8,0.8,2.2,0.8,3.1,0l0,0L93.2,7.8C94,7,94,5.6,93.2,4.7l-1.3-1.3c-0.8-0.8-2.2-0.8-3.1,0
		L74.1,18.3L59.4,3.5c-0.8-0.8-2.2-0.8-3.1,0L55,4.8c-0.8,0.8-0.8,2.2,0,3.1L72.6,25.5z"/>
</g>
</svg>
