<svg xmlns="http://www.w3.org/2000/svg" width="37" height="36.987" viewBox="0 0 37 36.987">
  <g id="_x33_-Sending_Call" transform="translate(-8.034 -8.04)">
    <g id="Grupo_1" data-name="Grupo 1">
      <path id="Trazado_1" data-name="Trazado 1" d="M43.24,35.383,37.868,31.63a4.142,4.142,0,0,0-5.774,1.026l-1.247,1.787A46.166,46.166,0,0,1,24.2,28.863a46.178,46.178,0,0,1-5.581-6.645l1.787-1.247A4.153,4.153,0,0,0,21.435,15.2L17.682,9.825a4.143,4.143,0,0,0-4.738-1.551,7.466,7.466,0,0,0-1.4.685l-.742.522a5.73,5.73,0,0,0-.524.467,7.458,7.458,0,0,0-1.909,3.4c-1.546,5.8,2.284,14.561,9.532,21.808,6.086,6.086,13.4,9.867,19.082,9.868h0a10.6,10.6,0,0,0,2.726-.336,7.447,7.447,0,0,0,3.4-1.909,5.647,5.647,0,0,0,.492-.555l.522-.746a7.375,7.375,0,0,0,.661-1.36A4.079,4.079,0,0,0,43.24,35.383Z" fill="#f03"/>
      <path id="Trazado_2" data-name="Trazado 2" d="M31.477,26.279a.829.829,0,0,0,1.173,0L37.926,21l2.044,2.043a.829.829,0,0,0,1.415-.586v-9.95a.829.829,0,0,0-.829-.829h-9.95a.829.829,0,0,0-.586,1.415l2.044,2.044-5.277,5.277a.829.829,0,0,0,0,1.173Z" fill="#f03"/>
    </g>
  </g>
</svg>
