<?xml version="1.0" encoding="utf-8"?>
<!-- Generator: Adobe Illustrator 24.1.0, SVG Export Plug-In . SVG Version: 6.00 Build 0)  -->
<svg version="1.1" id="Capa_1" xmlns="http://www.w3.org/2000/svg" xmlns:xlink="http://www.w3.org/1999/xlink" x="0px" y="0px"
	 width="203px" height="213px" viewBox="0 0 203 213" style="enable-background:new 0 0 203 213;" xml:space="preserve">
<style type="text/css">
	.st0{fill:#FFFFFF;}
</style>
<path class="st0" d="M166.4,13.5H33.6c-14.4,0-26.1,11.8-26.1,26.1v132.7c0,14.4,11.8,26.1,26.1,26.1h132.7
	c14.4,0,26.1-11.8,26.1-26.1V39.6C192.5,25.3,180.7,13.5,166.4,13.5z M166.4,160.5c0,5.9-4.8,10.7-10.7,10.7
	c-67.3,0-122.1-54.8-122.1-122.1c0-5.9,4.8-10.7,10.7-10.7h24.4c5.9,0,10.7,4.8,10.6,10.7c0,8.1,1.3,16.1,3.8,23.7
	c1.2,3.9,0.2,8-2.6,10.9L69.5,98.2c9.1,17.2,19.8,27.8,37.1,37.1l14.9-11.3c2.3-2.3,6.8-3.5,10.5-2.2c7.6,2.5,15.5,3.8,23.7,3.8
	c5.9,0,10.6,4.8,10.7,10.6V160.5z"/>
</svg>
