<svg xmlns="http://www.w3.org/2000/svg" viewBox="0 0 108.159 108.065">
  <defs>
    <style>
      .a {
        fill: #630202;
      }

      .b {
        fill: #aa022a;
      }

      .c {
        fill: #fff;
      }
    </style>
  </defs>
  <g>
    <g>
      <path class="a" d="M23.694,122.837l-8.816-11.165.216-38.935,8.6,10.6Z" transform="translate(-14.878 -14.772)"/>
      <path class="a" d="M123.037,23.494l-11.259-8.722-38.841.122,10.6,8.6Z" transform="translate(-14.878 -14.772)"/>
      <path class="b" d="M14.878,111.672l96.9-96.9H72.924l-57.946,58Z" transform="translate(-14.878 -14.772)"/>
    </g>
    <g>
      <path class="c" d="M31.867,82.453l-6.517-2.8a23.926,23.926,0,0,1,2.541,2.209l2.278,2.284-1.13,1.126-5.861-5.878,1.573-1.566L31.31,80.6a20.539,20.539,0,0,1-2.253-1.919L26.483,76.1l1.129-1.125,5.86,5.877Z" transform="translate(-14.878 -14.772)"/>
      <path class="c" d="M32.92,72.309l.958,1.367a2.079,2.079,0,0,0-.459.338c-.553.551-.4,1.212.158,2.095L35.9,78.436l-1.206,1.2-4.488-4.5L31.247,74.1l.982.764a1.812,1.812,0,0,1,.174-2.17A2.207,2.207,0,0,1,32.92,72.309Z" transform="translate(-14.878 -14.772)"/>
      <path class="c" d="M39.661,74.683l-4.522-4.536-.487,2.027-1.339-.291.76-3.044,1.06-1.057,5.708,5.724Z" transform="translate(-14.878 -14.772)"/>
      <path class="c" d="M45.126,69.235,39.169,66.2l1.308-1.3,4.44,2.67L42.277,63.1l1.24-1.237,3.044,5.94Z" transform="translate(-14.878 -14.772)"/>
      <path class="c" d="M51.679,61.348l.54,1.053a1.506,1.506,0,0,1-1.7.369A2.152,2.152,0,0,1,49.85,64.8,1.9,1.9,0,0,1,47,64.86c-.983-.986-.778-2.257.556-3.586l.518-.517-.22-.22c-.56-.562-.974-.5-1.543.064a5.808,5.808,0,0,0-.952,1.424l-1.077-.536A6.625,6.625,0,0,1,45.618,59.5c1.248-1.244,2.335-1.225,3.35-.207l1.813,1.819C51.145,61.474,51.381,61.492,51.679,61.348Zm-2.063.955-.856-.858-.4.4c-.653.652-.739,1.212-.248,1.7a.772.772,0,0,0,1.2.053A1.255,1.255,0,0,0,49.616,62.3Z" transform="translate(-14.878 -14.772)"/>
      <path class="c" d="M53.737,54.114,57,57.393l-1.2,1.2-3.066-3.075c-.516-.518-.848-.476-1.152-.171a1.5,1.5,0,0,0-.241,1.492l3.1,3.108-1.207,1.2-4.487-4.5L49.79,55.61l.661.476a2.393,2.393,0,0,1,.673-2.077A1.7,1.7,0,0,1,53.737,54.114Z" transform="translate(-14.878 -14.772)"/>
      <path class="c" d="M56.547,47.941l1.526,1.529,1.851-1.846.9.9-1.852,1.846,1.618,1.622,2.277-2.269.914.917-3.525,3.514-5.86-5.878,3.508-3.5.77,1.044Z" transform="translate(-14.878 -14.772)"/>
      <path class="c" d="M67.356,47.074l-.66-.544a2.132,2.132,0,0,1-.631,2.1,1.708,1.708,0,0,1-2.654-.148l-3.227-3.236,1.207-1.2,3.073,3.083c.492.492.814.493,1.146.162a1.4,1.4,0,0,0,.238-1.407l-3.14-3.151,1.206-1.2,4.487,4.5Z" transform="translate(-14.878 -14.772)"/>
      <path class="c" d="M67.824,37.515l.956,1.367a2.126,2.126,0,0,0-.459.338c-.552.551-.4,1.212.158,2.095l2.32,2.327-1.207,1.2-4.487-4.5L66.149,39.3l.983.764a1.812,1.812,0,0,1,.173-2.171A2.294,2.294,0,0,1,67.824,37.515Z" transform="translate(-14.878 -14.772)"/>
      <path class="c" d="M74.681,35.284c1.423,1.427,1.572,3.191.222,4.538s-3.046,1.258-4.537-.237c-1.43-1.435-1.572-3.191-.213-4.545C71.5,33.7,73.192,33.789,74.681,35.284Zm-3.057,3.048c1.033,1.037,1.787,1.183,2.382.59s.444-1.357-.582-2.385-1.787-1.182-2.374-.6C70.448,36.541,70.6,37.305,71.624,38.332Z" transform="translate(-14.878 -14.772)"/>
      <path class="c" d="M79.7,30.268c1.371,1.377,1.732,3.048.6,4.174a2,2,0,0,1-1.6.625l2.074,2.081-1.07,1.339-6.35-6.371,1.061-1.058.584.467a2.332,2.332,0,0,1,.63-1.95C76.823,28.39,78.248,28.816,79.7,30.268Zm-1.25,1.262c-1.125-1.129-1.778-1.206-2.3-.69a1.446,1.446,0,0,0-.256,1.407l1.955,1.962a1.22,1.22,0,0,0,1.2-.312C79.6,33.348,79.5,32.583,78.446,31.53Z" transform="translate(-14.878 -14.772)"/>
      <path class="c" d="M86,27.13l.541,1.053a1.512,1.512,0,0,1-1.7.37,2.15,2.15,0,0,1-.674,2.026,1.9,1.9,0,0,1-2.849.063c-.982-.985-.777-2.257.556-3.586l.518-.517-.219-.22c-.559-.561-.974-.5-1.543.065a5.8,5.8,0,0,0-.953,1.423l-1.076-.536a6.607,6.607,0,0,1,1.335-1.991c1.248-1.244,2.335-1.225,3.351-.207l1.812,1.819C85.469,27.257,85.707,27.274,86,27.13Zm-2.064.955-.854-.858-.4.4c-.652.652-.738,1.212-.248,1.7a.774.774,0,0,0,1.2.054A1.256,1.256,0,0,0,83.94,28.085Z" transform="translate(-14.878 -14.772)"/>
    </g>
  </g>
</svg>
