<svg id="Capa_1" data-name="Capa 1" xmlns="http://www.w3.org/2000/svg" viewBox="0 0 108.16 108.07"><defs><style>.cls-1{fill:#630202;}.cls-2{fill:#aa022a;}.cls-3{fill:#fff;}</style></defs><path class="cls-1" d="M23.79,122.74,15,111.57l.21-38.93,8.6,10.6Z" transform="translate(-14.98 -14.67)"/><path class="cls-1" d="M123.14,23.39l-11.26-8.72L73,14.79l10.6,8.6Z" transform="translate(-14.98 -14.67)"/><path class="cls-2" d="M15,111.57l96.9-96.9H73l-57.94,58Z" transform="translate(-14.98 -14.67)"/><path class="cls-3" d="M32,82.35l-6.52-2.8A23.87,23.87,0,0,1,28,81.76l2.28,2.29-1.13,1.12-5.86-5.88,1.57-1.56,6.56,2.77a19.62,19.62,0,0,1-2.25-1.92L26.58,76l1.13-1.12,5.86,5.87Z" transform="translate(-14.98 -14.67)"/><path class="cls-3" d="M33,72.21l1,1.37a2.05,2.05,0,0,0-.46.33c-.55.55-.4,1.22.16,2.1L36,78.34l-1.21,1.2L30.3,75l1.05-1,1,.76a1.83,1.83,0,0,1,.17-2.17A2.39,2.39,0,0,1,33,72.21Z" transform="translate(-14.98 -14.67)"/><path class="cls-3" d="M39.76,74.58l-4.52-4.53-.49,2-1.34-.29.76-3,1.06-1.06,5.71,5.73Z" transform="translate(-14.98 -14.67)"/><path class="cls-3" d="M45.23,69.13l-6-3,1.31-1.31L45,67.46,42.38,63l1.24-1.24,3,5.94Z" transform="translate(-14.98 -14.67)"/><path class="cls-3" d="M51.78,61.25l.54,1a1.51,1.51,0,0,1-1.7.37,2.14,2.14,0,0,1-.67,2,1.91,1.91,0,0,1-2.85.06c-1-1-.78-2.26.56-3.59l.51-.51L48,60.44c-.56-.56-1-.51-1.55.06a5.88,5.88,0,0,0-.95,1.42l-1.08-.53a6.62,6.62,0,0,1,1.34-2c1.25-1.25,2.33-1.23,3.35-.21L50.88,61C51.25,61.37,51.48,61.39,51.78,61.25Zm-2.06,1-.86-.85-.4.39c-.65.65-.74,1.22-.25,1.71a.78.78,0,0,0,1.21,0A1.27,1.27,0,0,0,49.72,62.2Z" transform="translate(-14.98 -14.67)"/><path class="cls-3" d="M53.84,54l3.26,3.28L55.9,58.5l-3.07-3.08c-.51-.52-.84-.48-1.15-.17a1.49,1.49,0,0,0-.24,1.49l3.1,3.11-1.21,1.2-4.48-4.5,1-1,.66.48a2.42,2.42,0,0,1,.67-2.08A1.71,1.71,0,0,1,53.84,54Z" transform="translate(-14.98 -14.67)"/><path class="cls-3" d="M56.65,47.84l1.52,1.53L60,47.52l.9.9-1.85,1.85,1.62,1.62L63,49.62l.92.92-3.53,3.51-5.86-5.87L58,44.68l.77,1Z" transform="translate(-14.98 -14.67)"/><path class="cls-3" d="M67.46,47l-.66-.54a2.15,2.15,0,0,1-.63,2.1,1.71,1.71,0,0,1-2.66-.15l-3.23-3.23L61.49,44,64.56,47c.5.49.82.49,1.15.16A1.41,1.41,0,0,0,66,45.78l-3.14-3.15,1.2-1.2,4.49,4.5Z" transform="translate(-14.98 -14.67)"/><path class="cls-3" d="M67.92,37.41l1,1.37a2.1,2.1,0,0,0-.46.34c-.55.55-.4,1.21.16,2.09l2.32,2.33-1.21,1.2-4.48-4.5,1-1,1,.77a1.81,1.81,0,0,1,.18-2.17A2.1,2.1,0,0,1,67.92,37.41Z" transform="translate(-14.98 -14.67)"/><path class="cls-3" d="M74.78,35.18c1.42,1.43,1.57,3.2.22,4.54s-3,1.26-4.53-.23-1.58-3.2-.22-4.55S73.29,33.69,74.78,35.18Zm-3.06,3c1,1,1.79,1.18,2.39.59s.44-1.35-.59-2.38-1.78-1.18-2.37-.6S70.7,37.2,71.72,38.23Z" transform="translate(-14.98 -14.67)"/><path class="cls-3" d="M79.8,30.17c1.37,1.37,1.73,3,.6,4.17a2,2,0,0,1-1.6.63l2.08,2.08-1.07,1.34L73.46,32,74.52,31l.58.46a2.32,2.32,0,0,1,.63-1.94C76.92,28.29,78.35,28.72,79.8,30.17Zm-1.25,1.26c-1.13-1.13-1.78-1.21-2.3-.69A1.46,1.46,0,0,0,76,32.15l2,2a1.25,1.25,0,0,0,1.2-.31C79.7,33.25,79.6,32.48,78.55,31.43Z" transform="translate(-14.98 -14.67)"/><path class="cls-3" d="M86.1,27l.54,1a1.49,1.49,0,0,1-1.69.37,2.15,2.15,0,0,1-.68,2,1.9,1.9,0,0,1-2.85.06c-1-1-.77-2.25.56-3.58l.52-.52-.22-.22c-.56-.56-1-.5-1.54.06a6,6,0,0,0-1,1.43l-1.07-.54a6.6,6.6,0,0,1,1.33-2c1.25-1.24,2.34-1.23,3.35-.21l1.82,1.82C85.57,27.16,85.81,27.17,86.1,27ZM84,28l-.85-.86-.4.4c-.66.65-.74,1.21-.25,1.7a.77.77,0,0,0,1.2.05A1.23,1.23,0,0,0,84,28Z" transform="translate(-14.98 -14.67)"/></svg>