<?xml version="1.0" encoding="utf-8"?>
<svg version="1.1" id="Livello_1" xmlns="http://www.w3.org/2000/svg" xmlns:xlink="http://www.w3.org/1999/xlink" x="0px" y="0px"
     viewBox="0 0 108.2 108.1" style="enable-background:new 0 0 108.2 108.1;" xml:space="preserve">
<style type="text/css">
	.st0{fill:#630202;}
	.st1{fill:#AA022A;}
	.st2{fill:#FFFFFF;}
</style>
    <g>
	<g>
		<path class="st0" d="M8.8,108.1L0,96.9L0.2,58l8.6,10.6V108.1z"/>
        <path class="st0" d="M108.2,8.7L96.9,0L58.1,0.1l10.6,8.6H108.2z"/>
        <path class="st1" d="M0,96.9L96.9,0H58L0.1,58L0,96.9z"/>
	</g>
</g>
    <g>
	<path class="st2" d="M11.3,73.6L10,72.8l-1.5,1.5l0.8,1.4l-1.1,1.1l-3.4-6.4L6,69.1l6.4,3.4L11.3,73.6z M7.8,73.4L9,72.2l-2.8-1.7
		L7.8,73.4z"/>
        <path class="st2" d="M12.9,71.7c-0.3,0-0.7-0.2-1-0.5l-4.3-4.3l0.9-1.1l4.4,4.4c0.2,0.2,0.3,0.2,0.5,0c0.1-0.1,0.1-0.2,0.2-0.2
		l0.9,0.5c-0.1,0.3-0.3,0.5-0.5,0.8C13.6,71.6,13.3,71.7,12.9,71.7z"/>
        <path class="st2" d="M15,69.6c-0.3,0-0.7-0.2-1-0.5l-4.3-4.3l0.9-1.1l4.4,4.4c0.2,0.2,0.3,0.2,0.5,0c0.1-0.1,0.1-0.2,0.2-0.2
		l0.9,0.5c-0.1,0.3-0.3,0.5-0.5,0.8C15.7,69.5,15.4,69.6,15,69.6z"/>
        <path class="st2" d="M19.2,64.3c0.1,0,0.2,0,0.4-0.1l0.5,0.9c-0.2,0.2-0.5,0.3-0.7,0.4c-0.2,0.1-0.5,0-0.7-0.1
		c0.1,0.6-0.1,1.2-0.6,1.7c-0.4,0.4-0.8,0.6-1.2,0.6c-0.4,0-0.8-0.2-1.2-0.5c-0.4-0.4-0.6-0.9-0.5-1.4s0.4-1,1-1.6l0.4-0.4l-0.2-0.2
		c-0.2-0.2-0.4-0.3-0.6-0.3s-0.4,0.1-0.7,0.4c-0.3,0.3-0.5,0.7-0.8,1.2l-0.9-0.4c0.3-0.7,0.7-1.2,1.1-1.7c0.5-0.5,1-0.8,1.5-0.8
		c0.5,0,0.9,0.2,1.3,0.6l1.5,1.5C19,64.2,19.1,64.3,19.2,64.3z M17.9,65l-0.7-0.7l-0.3,0.3c-0.5,0.5-0.6,1-0.2,1.4
		c0.2,0.2,0.3,0.3,0.5,0.3c0.2,0,0.3-0.1,0.5-0.2C17.9,65.8,18,65.5,17.9,65z"/>
        <path class="st2" d="M19.4,58l0.8,1.1c-0.2,0.1-0.3,0.2-0.4,0.3c-0.2,0.2-0.3,0.5-0.3,0.8c0,0.3,0.2,0.6,0.4,1l1.9,1.9l-1,1
		l-3.7-3.7l0.9-0.9l0.8,0.6c-0.2-0.4-0.2-0.7-0.2-1c0-0.3,0.1-0.6,0.4-0.8C19.1,58.2,19.2,58.1,19.4,58z"/>
        <path class="st2" d="M24.9,52.9c0.4,0,0.8,0.2,1.1,0.6l2.7,2.7l-1,1l-2.6-2.6c-0.4-0.4-0.7-0.4-0.9-0.2C24.1,54.6,24,54.8,24,55
		c0,0.2,0,0.4,0.1,0.7l2.6,2.6l-1,1l-2.6-2.6c-0.4-0.4-0.7-0.4-0.9-0.2C22.1,56.6,22,56.8,22,57s0,0.4,0.1,0.7l2.6,2.6l-1,1
		l-3.7-3.7l0.9-0.9l0.5,0.4c0-0.3,0-0.6,0-0.9s0.2-0.5,0.5-0.8c0.2-0.2,0.4-0.3,0.7-0.4c0.3,0,0.5,0,0.8,0.1c0-0.4,0-0.7,0-1
		s0.2-0.5,0.5-0.8C24.2,53.1,24.5,52.9,24.9,52.9z"/>
        <path class="st2" d="M31.3,50.5l-2.3,2.3c0.4,0.3,0.7,0.5,1,0.4s0.6-0.1,0.8-0.4c0.2-0.2,0.3-0.3,0.4-0.5c0.1-0.2,0.2-0.4,0.2-0.7
		l1,0.1c-0.1,0.8-0.4,1.4-0.9,1.9c-0.6,0.6-1.2,0.9-1.9,0.8c-0.7,0-1.3-0.4-1.9-1c-0.4-0.4-0.7-0.8-0.8-1.2
		c-0.2-0.4-0.2-0.9-0.1-1.3c0.1-0.4,0.3-0.8,0.7-1.2c0.5-0.5,1.1-0.8,1.7-0.7s1.2,0.4,1.8,1C30.9,50.2,31.1,50.3,31.3,50.5z
		 M29.6,50.9c-0.6-0.6-1.2-0.7-1.6-0.3c-0.2,0.2-0.3,0.4-0.3,0.7s0.2,0.6,0.5,1L29.6,50.9L29.6,50.9z"/>
        <path class="st2" d="M39,45.9l-1.3,1.3l-5.4-2.3c0.4,0.3,0.7,0.6,1,0.8c0.3,0.3,0.7,0.6,1.1,1l1.9,1.9l-0.9,0.9l-4.9-4.9l1.3-1.3
		l5.5,2.3c-0.7-0.5-1.4-1.1-1.9-1.6L33.2,42l0.9-0.9L39,45.9z"/>
        <path class="st2" d="M37.7,41.7c-0.3,0.1-0.6,0.1-0.9,0c-0.3-0.1-0.6-0.2-0.8-0.5s-0.4-0.5-0.5-0.8c-0.1-0.3,0-0.6,0-0.9
		c0.1-0.3,0.2-0.5,0.5-0.7c0.2-0.2,0.5-0.4,0.7-0.5c0.3-0.1,0.6-0.1,0.9,0c0.3,0.1,0.6,0.2,0.8,0.5c0.2,0.2,0.4,0.5,0.5,0.8
		c0.1,0.3,0,0.6,0,0.9c-0.1,0.3-0.2,0.5-0.5,0.7C38.2,41.5,38,41.6,37.7,41.7z M38.1,40.1c0-0.2-0.1-0.4-0.3-0.6
		c-0.2-0.2-0.4-0.3-0.6-0.3c-0.2,0-0.4,0.1-0.5,0.2c-0.2,0.2-0.2,0.3-0.2,0.5c0,0.2,0.1,0.4,0.3,0.6s0.4,0.3,0.6,0.3
		s0.4-0.1,0.5-0.2C38,40.5,38.1,40.3,38.1,40.1z"/>
        <path class="st2" d="M41,34.4l4.8,4.8l-1,1l-3.8-3.8L40.7,38l-1.1-0.2l0.6-2.5L41,34.4z"/>
        <path class="st2" d="M44.1,29.8c0.2,0,0.4,0.1,0.6,0.2s0.3,0.4,0.2,0.6c0,0.2-0.1,0.4-0.3,0.6c-0.2,0.2-0.4,0.3-0.6,0.3
		c-0.2,0-0.4-0.1-0.6-0.3s-0.3-0.4-0.3-0.6s0.1-0.4,0.3-0.6C43.7,29.9,43.9,29.8,44.1,29.8z M45.9,31.5l3.7,3.7l-1,1l-3.7-3.7
		L45.9,31.5z"/>
        <path class="st2" d="M50,27.9c0.4,0,0.8,0.2,1.1,0.6l2.7,2.7l-1,1l-2.6-2.6c-0.2-0.2-0.4-0.3-0.5-0.3c-0.2,0-0.3,0-0.4,0.2
		C49.1,29.6,49,29.8,49,30c0,0.2,0,0.4,0.1,0.7l2.6,2.6l-1,1l-3.7-3.7l0.9-0.9l0.6,0.4c0-0.3,0-0.7,0.1-1c0.1-0.3,0.2-0.5,0.5-0.8
		C49.2,28,49.6,27.9,50,27.9z"/>
        <path class="st2" d="M54.5,20.6l0.6,0.9l-1.8,1.8l1.3,1.3l1.5-1.5l0.7,0.7l-1.5,1.5l1.4,1.4l1.9-1.9l0.8,0.8l-2.9,2.9l-4.9-4.9
		L54.5,20.6z"/>
        <path class="st2" d="M63.2,21.8l-0.9,0.9l-0.6-0.5c0.1,0.3,0.1,0.7,0,0.9c-0.1,0.3-0.3,0.6-0.5,0.8c-0.3,0.3-0.7,0.5-1.1,0.5
		s-0.8-0.2-1.1-0.6l-2.7-2.7l1-1l2.6,2.6c0.2,0.2,0.4,0.3,0.5,0.3c0.1,0,0.3,0,0.4-0.2c0.3-0.3,0.3-0.7,0.2-1.2L58.4,19l1-1
		L63.2,21.8z"/>
        <path class="st2" d="M62.7,14.7l0.8,1.1c-0.2,0.1-0.3,0.2-0.4,0.3c-0.2,0.2-0.3,0.5-0.3,0.7c0,0.3,0.2,0.6,0.4,1l1.9,1.9l-1,1
		L60.4,17l0.9-0.9l0.8,0.6c-0.2-0.4-0.2-0.7-0.2-1c0-0.3,0.1-0.6,0.4-0.8C62.4,14.9,62.5,14.8,62.7,14.7z"/>
        <path class="st2" d="M66.3,12c0.7,0,1.3,0.4,1.9,1c0.4,0.4,0.7,0.8,0.8,1.3c0.2,0.4,0.2,0.9,0.1,1.3c-0.1,0.4-0.3,0.8-0.7,1.2
		c-0.6,0.6-1.2,0.8-1.8,0.8c-0.7,0-1.3-0.4-1.9-1c-0.4-0.4-0.7-0.8-0.8-1.3c-0.2-0.4-0.2-0.9-0.1-1.3c0.1-0.4,0.3-0.8,0.7-1.2
		C65,12.2,65.6,11.9,66.3,12z M65,14.4c0.1,0.3,0.3,0.7,0.7,1.1c0.4,0.4,0.8,0.7,1.1,0.8c0.3,0.1,0.6,0,0.9-0.3s0.3-0.5,0.3-0.9
		c-0.1-0.3-0.3-0.7-0.7-1.1c-0.4-0.4-0.8-0.7-1.1-0.8c-0.3-0.1-0.6,0-0.9,0.3C65,13.8,64.9,14,65,14.4z"/>
        <path class="st2" d="M70.6,7.6c0.6,0.1,1.2,0.5,1.8,1.1c0.4,0.4,0.7,0.8,0.8,1.2c0.2,0.4,0.2,0.8,0.2,1.2c-0.1,0.4-0.2,0.7-0.5,1.1
		c-0.4,0.4-0.8,0.6-1.3,0.5l1.7,1.7l-0.9,1.1l-5.3-5.3L68,9.4l0.5,0.4c0-0.3,0-0.6,0.1-0.9c0.1-0.3,0.2-0.5,0.5-0.7
		C69.5,7.7,70,7.5,70.6,7.6z M71.4,9.8c-0.5-0.5-0.8-0.7-1.1-0.8s-0.6,0-0.8,0.2c-0.1,0.1-0.2,0.3-0.3,0.5c0,0.2,0,0.4,0,0.7
		l1.6,1.6c0.4,0.1,0.7,0,1-0.3C72.4,11.3,72.2,10.6,71.4,9.8z"/>
        <path class="st2" d="M77.2,6.3c0.1,0,0.2,0,0.4-0.1l0.5,0.9c-0.2,0.2-0.5,0.3-0.7,0.4c-0.2,0.1-0.5,0-0.7-0.1
		c0.1,0.6-0.1,1.2-0.6,1.7c-0.4,0.4-0.8,0.6-1.2,0.6c-0.4,0-0.8-0.2-1.2-0.5c-0.4-0.4-0.6-0.9-0.5-1.4c0.1-0.5,0.4-1,1-1.6l0.4-0.4
		l-0.2-0.2c-0.2-0.2-0.4-0.3-0.6-0.3s-0.4,0.1-0.7,0.4c-0.3,0.3-0.5,0.7-0.8,1.2l-0.9-0.4c0.3-0.6,0.7-1.2,1.1-1.7
		c0.5-0.5,1-0.8,1.5-0.8c0.5,0,0.9,0.2,1.3,0.6L76.9,6C77,6.2,77.1,6.2,77.2,6.3z M75.9,7l-0.7-0.7l-0.3,0.3c-0.5,0.5-0.6,1-0.2,1.4
		c0.2,0.2,0.3,0.3,0.5,0.3c0.2,0,0.3-0.1,0.5-0.2C75.9,7.8,76,7.5,75.9,7z"/>
</g>
</svg>
