<?xml version="1.0" encoding="utf-8"?>
<!-- Generator: Adobe Illustrator 24.1.2, SVG Export Plug-In . SVG Version: 6.00 Build 0)  -->
<svg version="1.1" id="Capa_1" xmlns="http://www.w3.org/2000/svg" xmlns:xlink="http://www.w3.org/1999/xlink" x="0px" y="0px"
	 width="123.2px" height="122.8px" viewBox="0 0 123.2 122.8" style="enable-background:new 0 0 123.2 122.8;" xml:space="preserve"
	>
<style type="text/css">
	.st0{fill:#630202;}
	.st1{fill:#AA022A;}
	.st2{enable-background:new    ;}
	.st3{fill:#FFFFFF;}
</style>
<g transform="translate(-580.871)">
	<g transform="translate(-377.97 -1408.371)">
		<g transform="translate(974.035 1481.008)">
			<path class="st0" d="M8.6,50.1L0,38.9V0l8.6,10.6V50.1z"/>
		</g>
		<g transform="translate(1031.878 1423.165)">
			<path class="st0" d="M50.1,8.6L38.9,0H0l10.6,8.6H50.1z"/>
		</g>
		<g transform="translate(973.97 1423)">
			<path class="st1" d="M0,96.9L96.9,0L58,0.1L0.1,58L0,96.9z"/>
		</g>
	</g>
	<g class="st2">
		<path class="st3" d="M607.6,73.8l6.7,6.7l-1.4,1.4l-5.3-5.3l-0.6,2.4l-1.6-0.3l0.9-3.6L607.6,73.8z"/>
		<path class="st3" d="M612.8,69.3c0.7,0,1.4,0.3,2.1,1c0.6,0.6,1,1.3,1,2.1c0,0.8-0.3,1.4-0.9,2.1c-0.6,0.6-1.3,1-2.1,1
			c-0.7,0-1.4-0.3-2.1-1c-0.6-0.6-1-1.3-1-2.1c0-0.8,0.3-1.4,1-2.1C611.4,69.6,612.1,69.3,612.8,69.3z M611.4,72
			c0.1,0.3,0.3,0.7,0.7,1.1c0.4,0.4,0.8,0.7,1.1,0.7c0.3,0.1,0.6,0,0.8-0.3c0.3-0.3,0.4-0.5,0.3-0.8c-0.1-0.3-0.3-0.7-0.7-1.1
			c-0.4-0.4-0.8-0.7-1.1-0.7c-0.3-0.1-0.6,0-0.8,0.3C611.4,71.4,611.3,71.7,611.4,72z M615.6,79.1l-1.1-1.1l4.1-4.1l1.1,1.1
			L615.6,79.1z"/>
		<path class="st3" d="M616.8,62.5c0.3,0,0.6,0.1,0.8,0.3c0.2,0.2,0.4,0.5,0.3,0.8c0,0.3-0.1,0.6-0.4,0.9c-0.3,0.2-0.5,0.4-0.8,0.4
			c-0.3,0-0.6-0.1-0.8-0.4c-0.2-0.2-0.4-0.5-0.4-0.8c0-0.3,0.1-0.6,0.4-0.8C616.2,62.6,616.5,62.5,616.8,62.5z M619.3,64.9l5.2,5.2
			l-1.4,1.4l-5.2-5.2L619.3,64.9z"/>
		<path class="st3" d="M625,59.7c0.5,0,1.1,0.3,1.5,0.8l3.8,3.8l-1.4,1.4l-3.6-3.6c-0.3-0.3-0.5-0.4-0.7-0.5c-0.2,0-0.4,0.1-0.6,0.3
			c-0.2,0.2-0.3,0.4-0.4,0.7c0,0.3,0,0.6,0.1,1l3.6,3.6l-1.4,1.4l-5.2-5.2l1.2-1.2l0.8,0.6c-0.1-0.5,0-0.9,0.1-1.3
			c0.1-0.4,0.3-0.8,0.7-1.1C624,59.9,624.5,59.7,625,59.7z"/>
		<path class="st3" d="M631.4,49.6l0.9,1.2l-2.5,2.5l1.8,1.8l2.2-2.2l1,1l-2.2,2.2l1.9,1.9l2.7-2.7l1.1,1.1l-4.1,4.1l-6.9-6.9
			L631.4,49.6z"/>
		<path class="st3" d="M643.5,51.2l-1.2,1.2l-0.8-0.6c0.1,0.5,0.1,0.9,0,1.3c-0.1,0.4-0.4,0.8-0.7,1.1c-0.5,0.5-1,0.7-1.5,0.7
			c-0.5,0-1.1-0.3-1.6-0.8l-3.8-3.8l1.4-1.4l3.6,3.6c0.3,0.3,0.5,0.4,0.7,0.5c0.2,0,0.4-0.1,0.6-0.3c0.4-0.4,0.5-0.9,0.3-1.6
			l-3.7-3.7l1.4-1.4L643.5,51.2z"/>
		<path class="st3" d="M642.8,41.3l1.1,1.6c-0.2,0.1-0.4,0.3-0.5,0.4c-0.3,0.3-0.4,0.7-0.4,1c0,0.4,0.2,0.9,0.6,1.4l2.7,2.7
			l-1.4,1.4l-5.2-5.2l1.2-1.2l1.1,0.9c-0.2-0.5-0.3-1-0.3-1.4c0-0.4,0.2-0.8,0.5-1.1C642.4,41.6,642.6,41.4,642.8,41.3z"/>
		<path class="st3" d="M647.9,37.5c0.9,0,1.8,0.5,2.7,1.4c0.6,0.6,0.9,1.1,1.2,1.8c0.2,0.6,0.3,1.2,0.1,1.8c-0.1,0.6-0.5,1.2-1,1.7
			c-0.8,0.8-1.6,1.2-2.6,1.1c-0.9,0-1.8-0.5-2.7-1.4c-0.6-0.6-0.9-1.1-1.2-1.8c-0.2-0.6-0.3-1.2-0.1-1.8c0.1-0.6,0.5-1.2,1-1.7
			C646.1,37.8,647,37.4,647.9,37.5z M646,40.8c0.1,0.5,0.5,1,1,1.6s1.1,0.9,1.6,1c0.5,0.1,0.9,0,1.2-0.4c0.3-0.4,0.5-0.8,0.4-1.2
			c-0.1-0.5-0.5-1-1-1.6s-1.1-0.9-1.6-1.1c-0.5-0.1-0.9,0-1.2,0.4C646,40,645.9,40.4,646,40.8z"/>
		<path class="st3" d="M653.9,31.4c0.8,0.2,1.6,0.7,2.5,1.6c0.5,0.5,0.9,1.1,1.2,1.7c0.3,0.6,0.3,1.2,0.3,1.7
			c-0.1,0.6-0.3,1-0.8,1.5c-0.5,0.5-1.2,0.8-1.9,0.7l2.4,2.4l-1.2,1.6l-7.4-7.4l1.2-1.2l0.7,0.5c-0.1-0.5,0-0.9,0.1-1.3
			c0.1-0.4,0.3-0.7,0.6-1C652.4,31.5,653.1,31.3,653.9,31.4z M655,34.5c-0.6-0.6-1.2-1-1.6-1.1c-0.4-0.1-0.8,0-1.1,0.3
			c-0.2,0.2-0.3,0.4-0.4,0.7s0,0.6,0,0.9l2.3,2.3c0.6,0.1,1,0,1.4-0.4C656.4,36.5,656.2,35.6,655,34.5z"/>
		<path class="st3" d="M662.4,27.9l-3.3,3.3c0.5,0.4,1,0.6,1.4,0.6c0.4,0,0.8-0.2,1.2-0.6c0.2-0.2,0.4-0.5,0.5-0.7
			c0.1-0.3,0.2-0.6,0.3-1l1.4,0.2c-0.1,1.1-0.5,2-1.3,2.7c-0.8,0.8-1.7,1.2-2.6,1.2c-0.9-0.1-1.8-0.5-2.7-1.3
			c-0.5-0.5-0.9-1.1-1.2-1.7c-0.2-0.6-0.3-1.2-0.2-1.8c0.1-0.6,0.4-1.2,0.9-1.6c0.7-0.7,1.6-1.1,2.4-1c0.9,0.1,1.7,0.5,2.6,1.3
			C662,27.4,662.1,27.6,662.4,27.9z M660.1,28.3c-0.9-0.9-1.6-1-2.2-0.4c-0.3,0.3-0.4,0.6-0.4,1c0.1,0.4,0.3,0.8,0.8,1.3L660.1,28.3
			L660.1,28.3z"/>
	</g>
</g>
</svg>
