<svg id="Capa_1" data-name="Capa 1" xmlns="http://www.w3.org/2000/svg" viewBox="0 0 332.96 89.35"><defs><style>.cls-1,.cls-3,.cls-4{fill:none;stroke-miterlimit:10;}.cls-1{stroke:#dcddde;stroke-width:2px;}.cls-2{fill:#636466;}.cls-3{stroke:#f03;stroke-width:3px;}.cls-4{stroke:red;}</style></defs><title>services-iso</title><rect class="cls-1" x="1.5" y="1.5" width="329.96" height="86.35" rx="26.64"/><path class="cls-2" d="M22.12,54.08h-3V39.82h3Z" transform="translate(-1.54 -16.71)"/><path class="cls-2" d="M34.31,41.28,32.87,43a4.8,4.8,0,0,0-3.16-1.19c-1.24,0-2.08.53-2.08,1.54s.54,1.4,2.86,2.12c2.58.83,4.23,1.9,4.23,4.54s-2.06,4.45-5.52,4.45a7.26,7.26,0,0,1-5.28-2l1.54-1.71a5.43,5.43,0,0,0,3.65,1.42c1.47,0,2.46-.7,2.46-1.95s-.56-1.63-2.72-2.29c-3.1-1-4.33-2.21-4.33-4.37,0-2.43,2.1-4,5-4A6.56,6.56,0,0,1,34.31,41.28Z" transform="translate(-1.54 -16.71)"/><path class="cls-2" d="M48.76,47c0,4.68-2.41,7.46-6.33,7.46s-6.35-2.7-6.35-7.46,2.44-7.46,6.35-7.46S48.76,42.17,48.76,47Zm-9.48,0c0,3.73,1.17,5.2,3.15,5.2s3.14-1.47,3.14-5.2-1.1-5.19-3.14-5.19S39.28,43.22,39.28,47Z" transform="translate(-1.54 -16.71)"/><path class="cls-2" d="M65.22,45.3c0,5.69-2.6,8.06-8.35,9.34l-.62-2.08c3.51-.87,5.38-2.13,5.83-4.76a3.51,3.51,0,0,1-2.92,1.42c-2.17,0-3.94-1.73-3.94-4.56a4.68,4.68,0,0,1,5-4.74C63.53,39.92,65.22,42.13,65.22,45.3Zm-3,.5c0-2.77-.56-3.76-2-3.76-1.26,0-2.06.87-2.06,2.54,0,1.88.82,2.54,1.85,2.54A2.7,2.7,0,0,0,62.23,45.8Z" transform="translate(-1.54 -16.71)"/><path class="cls-2" d="M77,47.16c0,4.63-1.75,7.25-5.11,7.25s-5.09-2.62-5.09-7.25,1.75-7.24,5.09-7.24S77,42.5,77,47.16Zm-7.19,0c0,3.77.64,5.05,2.08,5.05S74,51,74,47.16s-.66-5-2.1-5S69.84,43.38,69.84,47.16Z" transform="translate(-1.54 -16.71)"/><path class="cls-2" d="M89,47.16c0,4.63-1.75,7.25-5.11,7.25s-5.09-2.62-5.09-7.25,1.75-7.24,5.09-7.24S89,42.5,89,47.16Zm-7.19,0c0,3.77.64,5.05,2.08,5.05S86,51,86,47.16s-.66-5-2.1-5S81.78,43.38,81.78,47.16Z" transform="translate(-1.54 -16.71)"/><path class="cls-2" d="M96.93,54.08H94.07v-11L91,45l-1.28-2,4.62-2.78h2.57Z" transform="translate(-1.54 -16.71)"/><path class="cls-2" d="M103,45.4a1.77,1.77,0,1,1-1.78-1.75A1.78,1.78,0,0,1,103,45.4Zm0,7.24a1.77,1.77,0,1,1-1.78-1.75A1.78,1.78,0,0,1,103,52.64Z" transform="translate(-1.54 -16.71)"/><path class="cls-2" d="M123,54.47l-1.84,2.42a6.81,6.81,0,0,0-5.46-2.54c-3.73,0-6.17-2.64-6.17-7.4s2.44-7.46,6.35-7.46,6.33,2.68,6.33,7.46c0,3.46-1.52,5.24-3.34,6.25A6.68,6.68,0,0,1,123,54.47Zm-7.12-2.32c2,0,3.14-1.47,3.14-5.2s-1.1-5.19-3.14-5.19-3.15,1.46-3.15,5.19S113.9,52.15,115.88,52.15Z" transform="translate(-1.54 -16.71)"/><path class="cls-2" d="M133.39,54.08h-2.54l-.14-1.46a3.66,3.66,0,0,1-3.32,1.79c-2,0-3-1.3-3-3.4V43.16h2.93v7.48c0,1.2.39,1.59,1.19,1.59a2.4,2.4,0,0,0,2-1.42V43.16h2.93Z" transform="translate(-1.54 -16.71)"/><path class="cls-2" d="M145.43,52.43l-.62,1.94a2.58,2.58,0,0,1-2.51-1.61A3.69,3.69,0,0,1,139,54.41,3.27,3.27,0,0,1,135.48,51c0-2.39,1.79-3.69,5-3.69h1.26v-.53c0-1.36-.57-1.8-2-1.8a10,10,0,0,0-2.88.58l-.66-2a11.46,11.46,0,0,1,4-.8c3,0,4.33,1.34,4.33,3.81v4.41C144.63,51.94,144.9,52.25,145.43,52.43Zm-3.67-1.34V49h-1c-1.58,0-2.37.58-2.37,1.77,0,1,.5,1.53,1.4,1.53A2.15,2.15,0,0,0,141.76,51.09Z" transform="translate(-1.54 -16.71)"/><path class="cls-2" d="M147.25,51.44V38.81l2.93-.33V51.36c0,.48.18.72.59.72a1.28,1.28,0,0,0,.58-.12L152,54a4.71,4.71,0,0,1-1.88.37A2.64,2.64,0,0,1,147.25,51.44Z" transform="translate(-1.54 -16.71)"/><path class="cls-2" d="M156.69,39.24a1.78,1.78,0,1,1-1.79-1.71A1.7,1.7,0,0,1,156.69,39.24Zm-.31,14.84h-2.92V43.16h2.92Z" transform="translate(-1.54 -16.71)"/><path class="cls-2" d="M165.81,53.57a5.24,5.24,0,0,1-2.85.84c-2.27,0-3.42-1.32-3.42-3.75V45.22h-1.63V43.16h1.63V40.77l2.93-.35v2.74H165l-.29,2.06h-2.22V50.6c0,1.07.35,1.48,1.09,1.48a2.57,2.57,0,0,0,1.24-.37Z" transform="translate(-1.54 -16.71)"/><path class="cls-2" d="M176,52.43l-.61,1.94a2.59,2.59,0,0,1-2.52-1.61,3.69,3.69,0,0,1-3.28,1.65A3.27,3.27,0,0,1,166.08,51c0-2.39,1.79-3.69,5-3.69h1.25v-.53c0-1.36-.57-1.8-2-1.8a10,10,0,0,0-2.89.58l-.66-2a11.46,11.46,0,0,1,4-.8c3,0,4.33,1.34,4.33,3.81v4.41C175.23,51.94,175.5,52.25,176,52.43Zm-8.94-13.15a1.55,1.55,0,1,1,1.54,1.53A1.52,1.52,0,0,1,167.09,39.28Zm5.27,11.81V49h-1c-1.59,0-2.38.58-2.38,1.77a1.34,1.34,0,0,0,1.41,1.53A2.15,2.15,0,0,0,172.36,51.09Zm-.59-11.81a1.55,1.55,0,1,1,1.52,1.53A1.52,1.52,0,0,1,171.77,39.28Z" transform="translate(-1.54 -16.71)"/><path class="cls-2" d="M184.69,53.57a5.19,5.19,0,0,1-2.84.84c-2.27,0-3.42-1.32-3.42-3.75V45.22H176.8V43.16h1.63V40.77l2.93-.35v2.74h2.51l-.29,2.06h-2.22V50.6c0,1.07.35,1.48,1.09,1.48a2.5,2.5,0,0,0,1.23-.37Z" transform="translate(-1.54 -16.71)"/><path class="cls-2" d="M193.58,44.15l-1.11,1.67a5,5,0,0,0-2.72-.87c-1,0-1.51.39-1.51,1s.37.93,2.29,1.48c2.19.6,3.42,1.51,3.42,3.45,0,2.26-2.12,3.54-4.72,3.54a6.52,6.52,0,0,1-4.45-1.58l1.44-1.61a4.83,4.83,0,0,0,2.93,1.07c1.09,0,1.79-.45,1.79-1.2s-.39-1.09-2.41-1.65c-2.2-.61-3.24-1.71-3.24-3.36,0-1.85,1.7-3.25,4.33-3.25A6.19,6.19,0,0,1,193.58,44.15Z" transform="translate(-1.54 -16.71)"/><path class="cls-2" d="M210.57,46.13v7.95h-2.93V46.62c0-1.26-.49-1.61-1.07-1.61-.8,0-1.34.56-1.9,1.53v7.54h-2.92V46.62c0-1.26-.48-1.61-1.07-1.61-.81,0-1.34.56-1.88,1.53v7.54h-2.93V43.16h2.54l.22,1.36a3.79,3.79,0,0,1,3.18-1.69,2.62,2.62,0,0,1,2.6,1.77,3.92,3.92,0,0,1,3.27-1.77C209.4,42.83,210.57,44.06,210.57,46.13Z" transform="translate(-1.54 -16.71)"/><path class="cls-2" d="M222.51,52.43l-.62,1.94a2.58,2.58,0,0,1-2.51-1.61,3.7,3.7,0,0,1-3.28,1.65A3.28,3.28,0,0,1,212.55,51c0-2.39,1.8-3.69,5-3.69h1.26v-.53c0-1.36-.57-1.8-2-1.8a10,10,0,0,0-2.88.58l-.66-2a11.46,11.46,0,0,1,4-.8c3,0,4.33,1.34,4.33,3.81v4.41C221.71,51.94,222,52.25,222.51,52.43Zm-3.67-1.34V49h-1c-1.58,0-2.37.58-2.37,1.77,0,1,.5,1.53,1.4,1.53A2.15,2.15,0,0,0,218.84,51.09Z" transform="translate(-1.54 -16.71)"/><path class="cls-2" d="M233.79,46.13v7.95h-2.93V46.62c0-1.26-.45-1.61-1.19-1.61s-1.51.56-2.1,1.53v7.54h-2.93V43.16h2.53l.23,1.38a4.13,4.13,0,0,1,3.34-1.71C232.66,42.83,233.79,44.06,233.79,46.13Z" transform="translate(-1.54 -16.71)"/><path class="cls-2" d="M245.73,52.43l-.62,1.94a2.58,2.58,0,0,1-2.51-1.61,3.7,3.7,0,0,1-3.28,1.65A3.27,3.27,0,0,1,235.77,51c0-2.39,1.8-3.69,5-3.69h1.26v-.53c0-1.36-.58-1.8-2-1.8a10,10,0,0,0-2.88.58l-.66-2a11.46,11.46,0,0,1,4-.8c3,0,4.33,1.34,4.33,3.81v4.41C244.93,51.94,245.19,52.25,245.73,52.43Zm-3.67-1.34V49h-1c-1.59,0-2.37.58-2.37,1.77,0,1,.5,1.53,1.4,1.53A2.15,2.15,0,0,0,242.06,51.09Z" transform="translate(-1.54 -16.71)"/><path class="cls-2" d="M257.42,43.75a8.91,8.91,0,0,1-3.15.42,2.86,2.86,0,0,1,2,2.8c0,2.12-1.71,3.67-4.49,3.67a5.07,5.07,0,0,1-1.28-.14.87.87,0,0,0-.41.72c0,.37.18.72,1.25.72H253c2.48,0,4.06,1.32,4.06,3.13,0,2.21-1.91,3.55-5.56,3.55-4,0-5.09-1.3-5.09-3.49h2.61c0,1,.46,1.49,2.54,1.49s2.56-.56,2.56-1.34-.56-1.2-1.72-1.2h-1.6c-2.29,0-3.24-1-3.24-2.14a2.5,2.5,0,0,1,1.28-2,3.26,3.26,0,0,1-1.94-3.11c0-2.42,1.92-4,4.66-4a8.71,8.71,0,0,0,5.11-1.32Zm-7.56,3a1.76,1.76,0,0,0,1.81,2c1.18,0,1.79-.7,1.79-2s-.59-1.91-1.81-1.91A1.74,1.74,0,0,0,249.86,46.74Z" transform="translate(-1.54 -16.71)"/><path class="cls-2" d="M267.63,49.51h-6.82c.2,2.1,1.19,2.72,2.59,2.72a4.4,4.4,0,0,0,2.66-.95l1.22,1.65a6.46,6.46,0,0,1-4.14,1.48c-3.51,0-5.34-2.31-5.34-5.73s1.77-5.85,5-5.85,4.92,2.06,4.92,5.54C267.69,48.74,267.65,49.2,267.63,49.51Zm-2.84-2c0-1.65-.56-2.72-2-2.72-1.16,0-1.88.78-2,2.84h4Z" transform="translate(-1.54 -16.71)"/><path class="cls-2" d="M284.52,46.13v7.95h-2.93V46.62c0-1.26-.5-1.61-1.07-1.61-.81,0-1.34.56-1.9,1.53v7.54h-2.93V46.62c0-1.26-.47-1.61-1.07-1.61-.8,0-1.34.56-1.87,1.53v7.54h-2.93V43.16h2.53l.23,1.36a3.79,3.79,0,0,1,3.18-1.69,2.61,2.61,0,0,1,2.59,1.77,4,4,0,0,1,3.28-1.77C283.34,42.83,284.52,44.06,284.52,46.13Z" transform="translate(-1.54 -16.71)"/><path class="cls-2" d="M296.48,49.51h-6.82c.2,2.1,1.19,2.72,2.59,2.72a4.42,4.42,0,0,0,2.66-.95l1.22,1.65A6.47,6.47,0,0,1,292,54.41c-3.5,0-5.33-2.31-5.33-5.73s1.77-5.85,5-5.85,4.93,2.06,4.93,5.54C296.54,48.74,296.5,49.2,296.48,49.51Zm-2.85-2c0-1.65-.55-2.72-1.95-2.72-1.16,0-1.88.78-2,2.84h4Z" transform="translate(-1.54 -16.71)"/><path class="cls-2" d="M307.82,46.13v7.95h-2.93V46.62c0-1.26-.45-1.61-1.19-1.61s-1.51.56-2.11,1.53v7.54h-2.92V43.16h2.53l.23,1.38a4.13,4.13,0,0,1,3.34-1.71C306.69,42.83,307.82,44.06,307.82,46.13Z" transform="translate(-1.54 -16.71)"/><path class="cls-2" d="M317.14,53.57a5.19,5.19,0,0,1-2.84.84c-2.27,0-3.42-1.32-3.42-3.75V45.22h-1.63V43.16h1.63V40.77l2.92-.35v2.74h2.52L316,45.22H313.8V50.6c0,1.07.35,1.48,1.09,1.48a2.51,2.51,0,0,0,1.24-.37Z" transform="translate(-1.54 -16.71)"/><path class="cls-2" d="M27.28,66.77H22.12v3.71h4.5v2.18h-4.5V76.6h5.53v2.23H19.09V64.56h8.52Z" transform="translate(-1.54 -16.71)"/><path class="cls-2" d="M40.74,78.83H36.85L32.31,67.51a42.3,42.3,0,0,1,.41,5.77v5.55H30V64.56h3.81L38.41,75.9A36.14,36.14,0,0,1,38,70.83V64.56h2.74Z" transform="translate(-1.54 -16.71)"/><path class="cls-2" d="M56.48,67.06H51.34v3.19a5,5,0,0,1,2.11-.47c2.28,0,4,1.65,4,4.49s-2.1,4.89-5.31,4.89a5.76,5.76,0,0,1-4.5-2l1.65-1.55A3.48,3.48,0,0,0,52,76.91c1.49,0,2.39-.93,2.39-2.64s-.88-2.45-2.1-2.45a3.36,3.36,0,0,0-1.73.49h-2V64.93h8.29Z" transform="translate(-1.54 -16.71)"/><path class="cls-2" d="M69.22,71.9c0,4.64-1.75,7.26-5.11,7.26S59,76.54,59,71.9s1.76-7.23,5.1-7.23S69.22,67.24,69.22,71.9Zm-7.2,0c0,3.77.64,5,2.09,5s2.1-1.21,2.1-5-.66-5.05-2.1-5.05S62,68.13,62,71.9Z" transform="translate(-1.54 -16.71)"/><path class="cls-2" d="M79.28,67.06H74.15v3.19a4.91,4.91,0,0,1,2.1-.47c2.29,0,4,1.65,4,4.49s-2.1,4.89-5.32,4.89a5.74,5.74,0,0,1-4.49-2l1.65-1.55a3.47,3.47,0,0,0,2.76,1.32c1.48,0,2.39-.93,2.39-2.64s-.89-2.45-2.1-2.45a3.36,3.36,0,0,0-1.73.49h-2V64.93h8.28Z" transform="translate(-1.54 -16.71)"/><path class="cls-2" d="M87.39,78.83H84.52v-11l-3,1.88-1.28-2,4.62-2.79h2.58Z" transform="translate(-1.54 -16.71)"/><path class="cls-2" d="M100.36,75.08c0,2.26-2,4.08-5.28,4.08s-5.18-1.8-5.18-4c0-1.69,1-2.78,2.62-3.51a3.58,3.58,0,0,1-2.06-3.27c0-2.27,2.06-3.69,4.68-3.69s4.68,1.25,4.68,3.56c0,1.24-.7,2.31-2.27,3.14C99.45,72.25,100.36,73.45,100.36,75.08Zm-3,0c0-1.22-.64-1.78-2.35-2.4l-.66-.22A2.72,2.72,0,0,0,92.85,75c0,1.24.89,2,2.31,2S97.41,76.19,97.41,75.06Zm-4.1-6.66c0,1.07.66,1.58,1.89,2.08l.41.14A2.42,2.42,0,0,0,97,68.38a1.84,1.84,0,0,0-3.67,0Z" transform="translate(-1.54 -16.71)"/><path class="cls-2" d="M105.29,70.15a1.77,1.77,0,1,1-1.78-1.75A1.78,1.78,0,0,1,105.29,70.15Zm0,7.23a1.77,1.77,0,1,1-3.53,0,1.77,1.77,0,0,1,3.53,0Z" transform="translate(-1.54 -16.71)"/><path class="cls-2" d="M119.29,75.63h-4.48l-.8,3.2h-3.16l4.4-14.27h3.69l4.37,14.27h-3.22Zm-.58-2.24L117,66.81l-1.65,6.58Z" transform="translate(-1.54 -16.71)"/><path class="cls-2" d="M124.46,76.19V63.55l2.93-.33V76.11c0,.47.19.72.6.72a1.31,1.31,0,0,0,.58-.12l.59,2.08a4.88,4.88,0,0,1-1.87.37A2.65,2.65,0,0,1,124.46,76.19Z" transform="translate(-1.54 -16.71)"/><path class="cls-2" d="M139.72,77.18l-.62,1.94a2.61,2.61,0,0,1-2.51-1.61,3.72,3.72,0,0,1-3.28,1.65,3.27,3.27,0,0,1-3.55-3.38c0-2.39,1.8-3.69,5-3.69h1.26v-.54c0-1.36-.58-1.79-2-1.79a9.92,9.92,0,0,0-2.88.57l-.66-2a11.26,11.26,0,0,1,4-.81c3,0,4.33,1.34,4.33,3.82V75.8C138.92,76.68,139.19,77,139.72,77.18Zm-3.67-1.34V73.76h-1c-1.58,0-2.37.57-2.37,1.77,0,1,.5,1.53,1.4,1.53A2.17,2.17,0,0,0,136.05,75.84Z" transform="translate(-1.54 -16.71)"/><path class="cls-2" d="M148.59,67.76l-.5,2.82a3.72,3.72,0,0,0-1-.14c-1.34,0-2,1-2.35,2.74v5.65h-2.92V67.9h2.53l.27,2.13a3.13,3.13,0,0,1,2.85-2.44A4,4,0,0,1,148.59,67.76Z" transform="translate(-1.54 -16.71)"/><path class="cls-2" d="M164.73,70.87v8H161.8V71.37c0-1.26-.49-1.61-1.07-1.61-.8,0-1.34.55-1.89,1.52v7.55h-2.93V71.37c0-1.26-.47-1.61-1.07-1.61-.81,0-1.34.55-1.88,1.52v7.55H150V67.9h2.54l.23,1.36A3.76,3.76,0,0,1,156,67.57a2.61,2.61,0,0,1,2.6,1.78,3.91,3.91,0,0,1,3.28-1.78C163.56,67.57,164.73,68.81,164.73,70.87Z" transform="translate(-1.54 -16.71)"/><path class="cls-2" d="M176.69,74.25h-6.82c.21,2.1,1.2,2.72,2.6,2.72a4.42,4.42,0,0,0,2.66-1l1.21,1.65a6.41,6.41,0,0,1-4.14,1.49c-3.5,0-5.34-2.31-5.34-5.73s1.77-5.86,5-5.86,4.93,2.06,4.93,5.55C176.76,73.49,176.71,73.94,176.69,74.25Zm-2.84-2c0-1.65-.56-2.72-2-2.72-1.15,0-1.88.79-2,2.85h4Z" transform="translate(-1.54 -16.71)"/><path class="cls-2" d="M193.58,70.87v8h-2.93V71.37c0-1.26-.49-1.61-1.07-1.61-.8,0-1.34.55-1.9,1.52v7.55h-2.92V71.37c0-1.26-.48-1.61-1.07-1.61-.81,0-1.34.55-1.88,1.52v7.55h-2.93V67.9h2.54l.22,1.36a3.79,3.79,0,0,1,3.18-1.69,2.62,2.62,0,0,1,2.6,1.78,3.9,3.9,0,0,1,3.27-1.78C192.41,67.57,193.58,68.81,193.58,70.87Z" transform="translate(-1.54 -16.71)"/><path class="cls-2" d="M206.33,73.34c0,3.34-1.59,5.82-4.33,5.82A3.41,3.41,0,0,1,199.3,78v5l-2.93.33V67.9H199l.14,1.28a4,4,0,0,1,3.17-1.61C205.11,67.57,206.33,69.82,206.33,73.34Zm-3.06,0c0-2.75-.7-3.63-1.91-3.63a2.49,2.49,0,0,0-2.06,1.4V75.9A2.09,2.09,0,0,0,201.13,77C202.47,77,203.27,75.92,203.27,73.37Z" transform="translate(-1.54 -16.71)"/><path class="cls-2" d="M212,66.89v1h2.59L214.22,70H212v8.87H209V70H207.3V67.9H209V66.81c0-2,1.34-3.59,4-3.59a6.54,6.54,0,0,1,2.88.66l-.8,1.94a4.12,4.12,0,0,0-1.77-.41C212.35,65.41,212,65.86,212,66.89Z" transform="translate(-1.54 -16.71)"/><path class="cls-2" d="M224.57,77.18,224,79.12a2.61,2.61,0,0,1-2.52-1.61,3.71,3.71,0,0,1-3.28,1.65,3.27,3.27,0,0,1-3.54-3.38c0-2.39,1.79-3.69,5-3.69h1.26v-.54c0-1.36-.58-1.79-2-1.79a10,10,0,0,0-2.89.57l-.66-2a11.26,11.26,0,0,1,4-.81c3,0,4.33,1.34,4.33,3.82V75.8C223.77,76.68,224,77,224.57,77.18Zm-3.66-1.34V73.76h-1c-1.59,0-2.37.57-2.37,1.77,0,1,.49,1.53,1.4,1.53A2.19,2.19,0,0,0,220.91,75.84Z" transform="translate(-1.54 -16.71)"/><path class="cls-2" d="M235.85,70.87v8h-2.92V71.37c0-1.26-.46-1.61-1.2-1.61s-1.5.55-2.1,1.52v7.55H226.7V67.9h2.54l.22,1.38a4.13,4.13,0,0,1,3.34-1.71C234.72,67.57,235.85,68.81,235.85,70.87Z" transform="translate(-1.54 -16.71)"/><path class="cls-2" d="M248.41,68.5a8.94,8.94,0,0,1-3.15.41,2.87,2.87,0,0,1,2,2.81c0,2.12-1.71,3.67-4.49,3.67a5.05,5.05,0,0,1-1.28-.15.89.89,0,0,0-.42.72c0,.37.19.72,1.26.72H244c2.48,0,4.06,1.32,4.06,3.14,0,2.2-1.91,3.54-5.56,3.54-4,0-5.1-1.3-5.1-3.48H240c0,1,.46,1.48,2.54,1.48s2.55-.55,2.55-1.34-.55-1.19-1.71-1.19h-1.6c-2.29,0-3.24-1-3.24-2.15a2.51,2.51,0,0,1,1.28-2,3.26,3.26,0,0,1-1.94-3.11c0-2.41,1.92-4,4.66-4a8.64,8.64,0,0,0,5.11-1.32Zm-7.56,3a1.76,1.76,0,0,0,1.81,2c1.18,0,1.8-.7,1.8-2s-.6-1.92-1.82-1.92A1.75,1.75,0,0,0,240.85,71.49Z" transform="translate(-1.54 -16.71)"/><path class="cls-2" d="M257.28,68.89l-1.11,1.67a5,5,0,0,0-2.72-.86c-1,0-1.51.39-1.51,1s.37.92,2.29,1.48c2.18.6,3.42,1.5,3.42,3.44,0,2.27-2.12,3.55-4.72,3.55a6.46,6.46,0,0,1-4.45-1.59L249.92,76A4.83,4.83,0,0,0,252.85,77c1.09,0,1.79-.45,1.79-1.19s-.39-1.09-2.41-1.65C250,73.57,249,72.48,249,70.83c0-1.86,1.69-3.26,4.33-3.26A6.25,6.25,0,0,1,257.28,68.89Z" transform="translate(-1.54 -16.71)"/><path class="cls-2" d="M267,68.89l-1.11,1.67a5,5,0,0,0-2.72-.86c-1,0-1.51.39-1.51,1s.37.92,2.29,1.48c2.19.6,3.42,1.5,3.42,3.44,0,2.27-2.12,3.55-4.72,3.55a6.47,6.47,0,0,1-4.45-1.59L259.63,76A4.83,4.83,0,0,0,262.56,77c1.09,0,1.79-.45,1.79-1.19s-.39-1.09-2.41-1.65c-2.2-.62-3.23-1.71-3.23-3.36,0-1.86,1.69-3.26,4.32-3.26A6.25,6.25,0,0,1,267,68.89Z" transform="translate(-1.54 -16.71)"/><path class="cls-2" d="M275.82,78.31a5.17,5.17,0,0,1-2.85.85c-2.26,0-3.42-1.32-3.42-3.75V70h-1.63V67.9h1.63V65.51l2.93-.35V67.9H275L274.7,70h-2.22v5.38c0,1.08.35,1.49,1.09,1.49a2.57,2.57,0,0,0,1.24-.37Z" transform="translate(-1.54 -16.71)"/><path class="cls-2" d="M285.94,74.25h-6.82c.2,2.1,1.19,2.72,2.6,2.72a4.45,4.45,0,0,0,2.66-1l1.21,1.65a6.41,6.41,0,0,1-4.14,1.49c-3.51,0-5.34-2.31-5.34-5.73s1.77-5.86,5-5.86S286,69.63,286,73.12C286,73.49,286,73.94,285.94,74.25Zm-2.84-2c0-1.65-.56-2.72-2-2.72-1.16,0-1.88.79-2,2.85h4Z" transform="translate(-1.54 -16.71)"/><path class="cls-2" d="M288,76.19V63.55l2.93-.33V76.11c0,.47.18.72.59.72a1.31,1.31,0,0,0,.58-.12l.6,2.08a5,5,0,0,1-1.88.37A2.64,2.64,0,0,1,288,76.19Z" transform="translate(-1.54 -16.71)"/><path class="cls-2" d="M294.13,76.19V63.55l2.93-.33V76.11c0,.47.18.72.6.72a1.26,1.26,0,0,0,.57-.12l.6,2.08a4.88,4.88,0,0,1-1.87.37A2.64,2.64,0,0,1,294.13,76.19Z" transform="translate(-1.54 -16.71)"/><path class="cls-2" d="M309.41,74.25h-6.83c.21,2.1,1.2,2.72,2.6,2.72a4.42,4.42,0,0,0,2.66-1l1.22,1.65a6.42,6.42,0,0,1-4.15,1.49c-3.5,0-5.33-2.31-5.33-5.73s1.77-5.86,5-5.86,4.93,2.06,4.93,5.55C309.47,73.49,309.43,73.94,309.41,74.25Zm-2.85-2c0-1.65-.55-2.72-1.95-2.72-1.16,0-1.88.79-2,2.85h4Z" transform="translate(-1.54 -16.71)"/><path class="cls-3" d="M310.11,104.56A22.89,22.89,0,0,0,333,81.67V61.48" transform="translate(-1.54 -16.71)"/><path class="cls-4" d="M333,41.1" transform="translate(-1.54 -16.71)"/><path class="cls-3" d="M25.93,18.21A22.89,22.89,0,0,0,3,41.1V61.48" transform="translate(-1.54 -16.71)"/></svg>