<?xml version="1.0" standalone="no"?>
<!DOCTYPE svg PUBLIC "-//W3C//DTD SVG 1.1//EN" "http://www.w3.org/Graphics/SVG/1.1/DTD/svg11.dtd" >
<svg xmlns="http://www.w3.org/2000/svg">
<metadata>
<json>
<![CDATA[
{
	"fontFamily": "verisure-lp",
	"majorVersion": 1,
	"minorVersion": 0,
	"description": "Font generated by IcoMoon.",
	"version": "Version 1.0",
	"fontId": "verisure-lp",
	"psName": "verisure-lp",
	"subFamily": "Regular",
	"fullName": "verisure-lp"
}
]]>
</json>
</metadata>
<defs>
<font id="verisure-lp" horiz-adv-x="1024">
<font-face units-per-em="1024" ascent="960" descent="-64" />
<missing-glyph horiz-adv-x="1024" />
<glyph unicode="&#x20;" horiz-adv-x="512" d="" />
<glyph unicode="&#xe900;" glyph-name="labs" data-tags="labs" d="M462.592 395.093l-157.44-251.52h413.739l-157.44 251.52h-98.859zM830.848 184.491l-181.888 290.517v335.659h1.707c17.664 0 32 14.336 32 32s-14.336 32-32 32v0h-277.291c-17.664 0-32-14.336-32-32s14.336-32 32-32v0h1.707v-335.659l-181.675-290.517c-10.197-16.043-16.256-35.627-16.256-56.619 0-58.88 47.744-106.667 106.667-106.667h456.704c58.88 0 106.667 47.744 106.667 106.667 0 20.992-6.059 40.533-16.512 57.045l0.256-0.427zM740.48 85.376h-456.917c-23.552 0-42.667 19.115-42.667 42.667 0 8.405 2.432 16.256 6.613 22.827l-0.085-0.171 191.616 306.091v353.877h145.92v-354.005l191.616-305.92c4.139-6.485 6.613-14.379 6.613-22.827 0-23.552-19.115-42.667-42.667-42.667-0.043 0-0.085 0-0.128 0v0z" />
<glyph unicode="&#xe901;" glyph-name="leaving-home" data-tags="leaving-home" d="M693.205 496.085c0 0-0.043 0-0.043 0-4.736 0-9.088 1.792-12.416 4.693l-282.069 247.381-282.069-247.381c-3.371-3.157-7.936-5.163-12.928-5.163-10.411 0-18.859 8.448-18.859 18.859 0 5.845 2.688 11.093 6.912 14.549l294.571 258.261c3.285 2.944 7.68 4.693 12.459 4.693s9.131-1.792 12.459-4.736l294.528-258.261c3.925-3.456 6.443-8.533 6.443-14.165 0-10.411-8.405-18.859-18.859-18.859zM617.173 143.659c-10.411 0-18.859 8.448-18.859 18.859 0 0 0 0 0 0v259.755l-198.272 182.784-204.373-182.955v-259.541c0-10.411-8.448-18.859-18.859-18.859s-18.859 8.448-18.859 18.859v268.032c0 5.589 2.432 10.581 6.229 14.037l223.488 200.021c3.328 2.944 7.723 4.779 12.544 4.779 4.949 0 9.472-1.92 12.8-5.035l216.917-200.021c3.712-3.413 6.059-8.363 6.059-13.781 0 0 0-0.043 0-0.043v-268.032c0-10.411-8.448-18.859-18.859-18.859zM867.541 344.533l-2.261-2.304-27.221 7.765 0.341 5.675c5.419-3.712 12.16-5.931 19.371-5.931 19.157 0 34.688 15.531 34.688 34.688s-15.531 34.688-34.688 34.688c0 0 0 0-0.043 0s-0.043 0-0.085 0c-19.157 0-34.645-15.488-34.645-34.645 0-11.648 5.76-21.931 14.549-28.203l-73.173 4.267-44.075-47.061 26.453-24.789 32.427 34.688 30.421-1.835-23.168-56.661-2.816 1.195-21.888-51.243h-70.315v-36.224h94.293l23.296 54.528 55.979-97.28 31.403 18.091-64.171 111.488-3.2-1.835 22.912 45.312 32.341-31.829 51.2-4.48 3.157 36.096-38.229 3.371-32.939 32.427z" />
<glyph unicode="&#xe902;" glyph-name="link-external" data-tags="link-external" d="M836.821 262.784c-22.741 0-41.259-18.56-41.259-41.387v-83.925c0-17.621-14.336-32.043-32.043-32.043h-561.451c-17.707 0-32.085 14.421-32.085 32.043v561.493c0 17.621 14.421 32.043 32.085 32.043h83.84c22.827 0 41.301 18.432 41.301 41.259s-18.475 41.387-41.301 41.387h-83.84c-63.317 0-114.773-51.413-114.773-114.688v-561.493c0-63.317 51.413-114.688 114.773-114.688h561.451c63.232 0 114.688 51.413 114.688 114.688v83.925c0 22.827-18.56 41.387-41.387 41.387zM937.301 831.317c0 2.901-1.109 5.419-1.621 8.064-0.512 2.517-0.512 5.205-1.536 7.595-4.139 10.283-12.288 18.304-22.485 22.485-4.523 1.835-9.344 2.645-14.123 2.901-0.512 0-0.981 0.341-1.536 0.341h-275.584c-22.827 0-41.301-18.56-41.301-41.387s18.475-41.259 41.301-41.259h175.744l-283.563-283.563c-16.128-16.128-16.128-42.283 0-58.453 8.064-8.064 18.688-12.117 29.184-12.117 10.624 0 21.205 4.011 29.312 12.117l283.563 283.563 0.128-175.787c0-22.827 18.432-41.259 41.259-41.259s41.301 18.432 41.301 41.259l-0.085 275.285c0 0.128 0.085 0.128 0.085 0.256z" />
<glyph unicode="&#xe903;" glyph-name="link-internal" data-tags="link-internal" d="M756.907 500.907l-268.8 268.373c-5.717 5.333-13.355 8.576-21.803 8.576-17.664 0-32-14.336-32-32 0-8.448 3.285-16.128 8.619-21.845v0l268.8-268.373c1.835-2.048 2.944-4.736 2.944-7.68s-1.109-5.632-2.944-7.68v0l-268.8-268.373c-5.803-5.803-9.344-13.781-9.344-22.613s3.584-16.811 9.344-22.613v0c5.717-5.803 13.696-9.387 22.485-9.387 0.043 0 0.085 0 0.171 0v0c0.213 0 0.427 0 0.683 0 8.619 0 16.384 3.584 21.931 9.387v0l268.8 268.373c13.483 13.568 21.803 32.256 21.803 52.907s-8.32 39.339-21.803 52.907v0zM274.773 769.28c-5.717 5.333-13.355 8.576-21.803 8.576-17.664 0-32-14.336-32-32 0-8.448 3.285-16.128 8.619-21.845v0l276.053-276.053-276.053-276.053c-5.803-5.803-9.344-13.781-9.344-22.613s3.584-16.811 9.344-22.613v0c5.717-5.803 13.696-9.387 22.485-9.387 0.043 0 0.085 0 0.171 0v0c0.213 0 0.427 0 0.683 0 8.619 0 16.384 3.584 21.931 9.387v0l322.56 321.28z" />
<glyph unicode="&#xe904;" glyph-name="linkedin" data-tags="linkedin" d="M173.227 594.347h145.493v-487.68h-145.493v487.68zM806.827 529.493c-27.392 30.379-66.859 49.408-110.763 49.408-3.499 0-6.997-0.128-10.453-0.341l0.469 0.043c-0.512 0-1.152 0-1.792 0-60.117 0-112.597-32.64-140.757-81.152l-0.427-0.768h-2.987l-8.96 97.707h-115.2c0-49.067 0-487.68 0-487.68h145.92v305.493c7.083 32.683 35.797 56.832 70.144 56.832 1.28 0 2.603-0.043 3.883-0.085h-0.171c47.787 0 72.107-34.133 72.107-101.547v-260.693h145.493v275.627c0.341 4.565 0.555 9.856 0.555 15.189 0 50.261-17.749 96.341-47.36 132.352l0.299-0.384zM246.187 789.333c-40.277 0-72.96-32.683-72.96-72.96s32.683-72.96 72.96-72.96v0c40.277 0 72.96 32.683 72.96 72.96s-32.683 72.96-72.96 72.96v0z" />
<glyph unicode="&#xe905;" glyph-name="loading-spinner" data-tags="loading-spinner" d="M512.128 20.608c-235.691 0-427.392 191.701-427.392 427.392s191.701 427.392 427.392 427.392c33.707 0 61.056-27.349 61.056-61.056s-27.349-61.056-61.056-61.056c-168.32 0-305.323-136.96-305.323-305.323s136.96-305.323 305.323-305.323c168.32 0 305.323 136.96 305.323 305.323 0 86.699-37.077 169.685-101.803 227.584-25.131 22.485-27.264 61.099-4.779 86.187s61.099 27.264 86.229 4.779c90.539-81.024 142.464-197.163 142.464-318.549 0-235.691-191.701-427.392-427.392-427.392z" />
<glyph unicode="&#xe906;" glyph-name="location" data-tags="location" d="M629.461 299.093c36.907-4.651 69.333-11.051 100.949-19.413l-5.333 1.195c30.72-7.808 57.387-17.621 82.645-29.824l-2.603 1.109c21.333-9.941 39.509-23.253 54.528-39.509l0.085-0.128c12.373-12.672 20.011-30.037 20.053-49.152v0q0-34.56-31.872-60.971-32.811-26.453-85.163-44.629c-33.792-11.904-73.643-21.461-114.731-26.965l-3.157-0.341c-39.936-5.76-86.059-9.088-132.949-9.088v0c-0.256 0-0.555 0-0.853 0-46.592 0-92.416 3.285-137.259 9.685l5.12-0.597c-44.288 5.888-84.139 15.445-122.283 28.629l4.352-1.323q-52.309 18.219-85.12 44.629-31.829 26.368-31.872 60.971c0.213 18.987 7.424 36.224 19.2 49.323l-0.043-0.085c15.061 15.701 32.853 28.672 52.608 38.229l1.109 0.469c22.315 11.221 48.384 21.12 75.605 28.245l2.859 0.64c25.813 7.168 57.6 13.568 90.069 17.792l3.712 0.384q-26.368 28.885-53.675 63.744c-16.469 21.291-32.469 45.269-46.763 70.357l-1.579 3.029c-13.227 23.125-25.003 50.005-33.792 78.123l-0.811 2.944c-8.576 25.557-13.568 54.997-13.653 85.589v0.043c0 0.469 0 1.067 0 1.621 0 37.248 7.68 72.704 21.589 104.875l-0.64-1.707c14.464 33.109 33.664 61.44 57.003 85.675l-0.085-0.085c23.509 24.363 51.456 44.288 82.56 58.496l1.707 0.683c30.507 14.080 66.176 22.4 103.723 22.741h8.405c37.675-0.341 73.301-8.704 105.429-23.424l-1.621 0.683c32.939-14.976 61.013-34.901 84.693-59.136l0.043-0.043c23.552-24.107 42.837-52.437 56.661-83.797l0.725-1.792c13.269-30.464 20.992-65.963 20.992-103.253 0-0.512 0-1.024 0-1.536v0.085c-0.043-30.336-5.035-59.435-14.208-86.656l0.555 1.92c-10.112-31.36-21.973-58.325-36.224-83.755l1.195 2.304c-15.616-28.117-31.445-52.053-48.853-74.752l1.067 1.408q-27.477-35.541-53.845-63.744zM512 57.771c1.749 0 3.797 0 5.888 0 45.483 0 90.155 3.328 133.845 9.685l-4.949-0.597c39.893 6.315 75.051 15.061 108.971 26.453l-4.651-1.365q44.16 14.891 68.736 34.091 23.68 18.219 23.68 37.163c0 10.923-5.76 21.547-17.28 31.872-14.080 12.459-30.507 22.741-48.427 30.080l-1.152 0.427c-22.101 9.6-48.128 17.963-75.179 23.723l-2.773 0.512c-28.971 7.083-63.488 12.544-98.773 15.317l-2.347 0.128c-12.16-11.563-24.576-22.912-37.163-34.176s-26.112-22.315-40.064-33.024c-1.365-1.28-3.072-2.261-4.949-2.731h-0.085c-1.749-0.555-3.797-0.853-5.888-0.896h-0.043c0 0 0 0 0 0-2.432 0-4.779 0.341-7.040 0.939l0.171-0.043c-2.603 0.896-4.864 2.133-6.869 3.712l0.043-0.043q-19.157 16.512-37.76 32.768t-36.011 33.707q-109.44-11.008-175.445-40.405t-66.048-61.525q0-19.072 23.68-37.163 24.789-19.157 68.736-34.091c29.568-10.112 65.024-18.859 101.461-24.619l3.712-0.469c38.912-5.973 83.797-9.387 129.493-9.387 1.536 0 3.115 0 4.651 0h-0.256zM275.2 602.368c0.171-43.52 10.581-84.523 28.971-120.875l-0.725 1.536c19.968-40.96 42.069-76.16 67.499-108.672l-1.024 1.323c24.405-31.531 50.133-59.52 77.995-85.205l0.469-0.427q39.125-36.437 61.013-54.613 20.949 18.219 61.013 54.613c27.733 26.155 53.077 54.144 76.16 83.968l1.237 1.664c24.448 31.189 46.592 66.432 64.896 103.851l1.579 3.541c18.133 34.688 28.8 75.733 28.928 119.296v0.043c0 0.299 0 0.683 0 1.024 0 32.512-7.040 63.403-19.669 91.179l0.555-1.365c-12.331 28.971-29.013 53.76-49.579 74.752l0.043-0.043c-20.608 20.821-44.885 37.973-71.765 50.347l-1.536 0.64c-26.581 11.605-57.472 18.56-89.984 19.115h-3.84c-0.512 0-1.067 0-1.664 0-32.085 0-62.507-7.040-89.856-19.669l1.323 0.555c-28.843-12.843-53.504-30.037-74.325-50.987v0c-20.523-20.949-37.248-45.696-48.939-73.131l-0.597-1.536c-11.52-26.411-18.219-57.216-18.219-89.6 0-0.427 0-0.896 0-1.323v0.085zM643.157 624.213c0-0.469 0-1.024 0-1.579 0-35.584-14.635-67.755-38.229-90.837l-0.043-0.043c-23.723-23.893-56.576-38.699-92.885-38.699s-69.163 14.805-92.885 38.699v0c-23.595 23.083-38.229 55.253-38.229 90.88 0 0.555 0 1.109 0 1.664v-0.085c0 0.171 0 0.384 0 0.597 0 72.107 58.453 130.56 130.56 130.56 0.213 0 0.427 0 0.597 0h-0.043c0.171 0 0.384 0 0.597 0 72.107 0 130.56-58.453 130.56-130.56 0-0.213 0-0.427 0-0.597v0.043zM417.28 624.213c0 0 0-0.043 0-0.043 0-52.309 42.368-94.677 94.677-94.677 26.155 0 49.835 10.624 66.987 27.776v0c17.152 17.109 27.776 40.789 27.776 66.987s-10.624 49.835-27.776 66.987v0c-17.152 17.109-40.789 27.691-66.944 27.691-52.309 0-94.677-42.368-94.72-94.677v0z" />
<glyph unicode="&#xe907;" glyph-name="log-out" data-tags="log-out" d="M756.139 199.509c-15.573 0-28.203-12.587-28.203-28.203 0-51.072-41.515-92.587-92.587-92.587h-392.96c-51.029 0-92.587 41.515-92.587 92.587v553.387c0 51.072 41.557 92.587 92.587 92.587h392.96c51.072 0 92.587-41.515 92.587-92.587 0-15.573 12.587-28.203 28.203-28.203s28.203 12.587 28.203 28.203c0 82.133-66.859 148.992-148.992 148.992h-392.96c-82.133 0-148.992-66.859-148.992-148.992v-553.387c0-82.133 66.859-148.992 148.992-148.992h392.96c82.133 0 148.992 66.859 148.992 148.992 0 15.573-12.587 28.203-28.203 28.203zM928.427 458.496c-1.451 3.456-3.499 6.571-6.101 9.131l-71.381 71.381c-11.008 11.008-28.843 11.008-39.851 0s-11.008-28.843 0-39.851l23.253-23.253h-395.477c-15.573 0-28.203-12.587-28.203-28.203s12.587-28.203 28.203-28.203h395.435l-30.464-30.421c-11.008-11.008-11.008-28.843 0-39.851 5.504-5.504 12.715-8.277 19.925-8.277s14.421 2.773 19.925 8.277l78.635 78.549c2.603 2.603 4.651 5.717 6.101 9.131 2.816 6.912 2.816 14.677 0 21.547z" />
<glyph unicode="&#xe908;" glyph-name="magnet" data-tags="magnet" d="M694.059 866.347h-85.205c-61.995 0-108.459-50.347-108.459-108.459v-623.616c0-61.995 50.347-108.459 108.459-108.459h85.205c61.995 0 108.459 50.347 108.459 108.459v623.616c0 61.995-46.464 108.459-108.459 108.459zM748.288 134.272c0-30.976-23.253-54.229-54.229-54.229h-85.205c-30.976 0-54.229 23.253-54.229 54.229v623.616c0 30.976 23.253 54.229 54.229 54.229h85.205c30.976 0 54.229-23.253 54.229-54.229v-623.616zM322.176 494.464h7.723c-61.995 0-108.459-50.347-108.459-108.459v-213.035c0-61.995 50.347-108.459 108.459-108.459h-7.723c61.995 0 108.459 50.347 108.459 108.459v213.035c0 58.112-50.347 108.459-108.459 108.459zM376.448 173.013c0-30.976-23.253-54.229-54.229-54.229h7.723c-30.976 0-54.229 23.253-54.229 54.229v213.035c0 30.976 23.253 54.229 54.229 54.229h-7.723c30.976 0 54.229-23.253 54.229-54.229v-213.035z" />
<glyph unicode="&#xe909;" glyph-name="manuals" data-tags="manuals" d="M906.325 727.253c-11.307 0-30.208 0-41.515 0 0 0 0 0 0 20.736s-20.736 20.736-20.736 20.736c-235.819 0-305.664-54.699-332.075-84.907-24.533 30.208-94.336 84.907-332.075 84.907 0 0-20.736 0-20.736-20.736s0-20.736 0-20.736c-20.736 0-30.208 0-41.515 0 0 0-20.736 0-20.736-20.736s0-456.576 0-477.355 20.736-20.736 20.736-20.736c292.437 0 358.485-67.925 366.037-81.109 0 0 5.675-11.307 26.411-11.307s28.288 11.307 28.288 11.307c9.429 13.227 77.355 81.109 366.037 81.109 0 0 20.736 0 20.736 20.736s0 456.576 0 477.355-18.859 20.736-18.859 20.736zM493.141 229.12c-41.515 30.208-126.421 64.128-305.664 66.048v443.392c250.923-3.755 298.112-69.803 305.664-81.109v-428.288zM836.523 295.168c-179.243-1.877-264.149-35.84-305.664-66.048v428.288c7.552 11.307 56.619 79.232 305.664 81.109v-443.392zM574.251 374.4c-3.755 0-9.429 1.877-11.307 5.675-3.755 5.675-1.877 15.104 3.755 18.859 1.877 1.877 67.925 43.392 215.083 43.392 7.552 0 15.104-5.675 15.104-15.104s-5.675-15.104-15.104-15.104c-137.728 0-198.101-39.637-199.979-39.637-1.877 1.877-3.755 1.877-7.552 1.877zM574.251 476.288c-3.755 0-9.429 1.877-11.307 5.675-3.755 5.675-1.877 15.104 3.755 18.859 1.877 1.877 67.925 43.392 215.083 43.392 7.552 0 15.104-5.675 15.104-15.104s-5.675-15.104-15.104-15.104c-137.728 0-198.101-39.637-199.979-39.637-1.877 1.877-3.755 1.877-7.552 1.877zM574.251 581.973c-3.755 0-9.429 1.877-11.307 5.675-3.755 5.675-1.877 15.104 3.755 18.859 1.877 1.877 67.925 43.392 215.083 43.392 7.552 0 15.104-5.675 15.104-15.104s-5.675-15.104-15.104-15.104c-137.728 0-198.101-39.637-199.979-39.637-1.877 1.877-3.755 1.877-7.552 1.877zM417.664 404.608l-1.877-16.981c-11.307-5.675-20.736-11.307-28.288-15.104s-15.104-5.675-24.533-7.552c-15.104-1.877-26.411 0-35.84 7.552-9.429 5.675-13.227 15.104-15.104 26.411 0 3.755 0 9.429 0 13.227s0 9.429 1.877 15.104l9.429 54.699c0 5.675 1.877 9.429 1.877 15.104 0 3.755 0 9.429 0 13.227 0 7.552-1.877 11.307-5.675 13.227s-9.429 3.755-16.981 1.877c-3.755 0-7.552-1.877-11.307-3.755s-7.552-3.755-9.429-3.755l1.877 16.981c9.429 5.675 18.859 9.429 26.411 13.227 9.429 3.755 16.981 5.675 24.533 7.552 15.104 1.877 26.411 0 33.963-7.552 9.429-5.675 13.227-15.104 15.104-26.411 0-1.877 0-5.675 0-13.227 0-5.675 0-11.307-1.877-16.981l-9.429-54.699c0-3.755-1.877-9.429-1.877-15.104s0-9.429 0-13.227 3.755-11.307 5.675-13.227c3.755-1.877 9.429-3.755 16.981-1.877 3.755 0 7.552 1.877 11.307 3.755 7.552 5.675 11.307 5.675 13.227 7.552zM395.008 629.12c1.877-9.429-1.877-16.981-7.552-24.533s-15.104-11.307-24.533-13.227c-9.429-1.877-18.859 1.877-26.411 7.552s-13.227 13.227-13.227 22.656c-1.877 9.429 1.877 16.981 7.552 24.533s15.104 11.307 24.533 13.227c9.429 1.877 18.859-1.877 26.411-7.552s13.227-13.227 13.227-22.656z" />
<glyph unicode="&#xe90a;" glyph-name="mice" data-tags="mice" d="M732.501 619.008c-13.44 0.981-26.923 1.621-40.277 2.475-98.432 6.272-145.536 16.853-145.536 64.469 0 12.245-9.984 22.229-22.229 22.229s-22.229-9.984-22.229-22.229c0-92.245 84.992-102.869 187.477-108.757 13.013-0.768 26.325-1.579 39.552-2.475 108.203-7.723 165.376-65.664 165.376-167.68 0-52.864-17.493-81.237-32.981-96.384-23.509 107.349-119.125 187.989-233.301 187.989-50.091 0-107.136-20.608-169.685-60.715-23.936 28.032-58.965 46.293-98.517 46.293-71.68 0-129.963-58.325-129.963-129.92 0-32.299 12.075-62.336 32.981-85.845-99.883-106.197-173.824-211.584-174.592-212.693-4.736-6.784-5.333-15.659-1.493-22.997 3.755-7.339 11.392-11.947 19.669-11.947h521.643c131.627 0 238.72 107.008 238.891 238.677 25.344 14.165 71.893 52.949 71.893 147.627 0 125.44-75.392 202.624-206.72 211.968zM628.48 65.152h-404.992l-30.848 53.845c31.616 39.339 72.192 87.253 117.717 134.485 0.213 0.213 0.341 0.64 0.64 0.853 0.299 0.341 0.853 0.555 1.067 0.981 0.896 1.152 1.28 2.475 1.877 3.755 0.512 0.896 1.067 1.707 1.323 2.688 0.64 1.835 0.853 3.627 0.981 5.461 0.085 0.981 0.213 1.92 0.213 2.901-0.128 1.749-0.555 3.413-1.067 5.12-0.299 1.152-0.555 2.176-1.067 3.2-0.725 1.493-1.749 2.731-2.773 4.011-0.64 0.768-0.981 1.749-1.707 2.432-0.299 0.299-0.64 0.341-0.981 0.64-0.299 0.213-0.469 0.64-0.768 0.896-21.163 16.256-33.28 40.96-33.28 67.755 0 47.147 38.315 85.419 85.504 85.419s85.419-38.315 85.419-85.419c0-12.331 9.984-22.272 22.229-22.272 12.331 0 22.272 9.984 22.272 22.272 0 16-3.328 31.189-8.704 45.44 55.723 36.011 105.173 54.4 146.987 54.4 107.221 0 194.389-87.211 194.389-194.432s-87.168-194.432-194.389-194.432zM331.435 211.669c-20.096 0-36.395-16.256-36.395-36.309s16.256-36.395 36.395-36.395c20.011 0 36.309 16.341 36.309 36.395s-16.256 36.309-36.309 36.309zM689.792 732.587c13.013-0.768 26.325-1.579 39.552-2.475 97.109-6.912 153.344-47.36 163.541-106.752h0.64c-0.043-2.176-0.043-4.309 0.64-6.485l2.432-7.893c2.859-9.301 11.52-15.317 20.779-15.317 2.133 0 4.267 0.299 6.443 0.981 11.477 3.584 17.92 15.701 14.336 27.221l-0.469 1.536c-9.301 83.115-84.693 142.379-205.141 150.955-13.44 0.981-26.923 1.749-40.277 2.475-120.021 6.997-176.597 16.683-176.597 75.435 0 12.245-9.984 22.229-22.229 22.229s-22.272-9.984-22.272-22.229c0-107.136 116.096-113.877 218.581-119.765zM110.421 180.565c7.083-0.128 14.208 3.029 18.901 9.131l60.501 78.677c7.851 10.197 5.931 24.832-4.267 32.683s-24.832 5.931-32.683-4.267l-60.544-78.677c-7.893-10.197-5.973-24.832 4.267-32.683 4.096-3.2 8.96-4.736 13.824-4.821zM259.499 487.125c0.896-0.043 1.835-0.043 2.731 0 11.648 0.64 21.248 9.856 22.016 21.803 2.603 40.704 35.328 72.917 76.16 75.008 38.613 2.005 73.216-23.723 82.304-61.269 2.688-11.093 12.885-18.347 23.808-17.792 1.451 0.085 2.859 0.256 4.309 0.64 12.501 3.072 20.181 15.616 17.195 28.16-14.379 59.264-69.077 99.968-130.048 96.811-64.427-3.328-116.096-54.357-120.235-118.613-0.811-12.843 8.917-23.936 21.76-24.789z" />
<glyph unicode="&#xe90b;" glyph-name="minus" data-tags="minus" d="M170.667 405.333v85.333h682.667v-85.333h-682.667z" />
<glyph unicode="&#xe90c;" glyph-name="more" data-tags="more" d="M512.128 525.781c-40.235 0-72.832-32.597-72.832-72.789s32.64-72.747 72.832-72.747c40.192 0 72.704 32.597 72.704 72.747s-32.555 72.789-72.704 72.789zM193.707 525.781c-40.192 0-72.789-32.597-72.789-72.789s32.64-72.747 72.789-72.747c40.235 0 72.789 32.597 72.789 72.747s-32.597 72.789-72.789 72.789zM830.507 525.781c-40.192 0-72.747-32.597-72.747-72.789s32.597-72.747 72.747-72.747c40.235 0 72.789 32.597 72.789 72.747s-32.597 72.789-72.789 72.789z" />
<glyph unicode="&#xe90d;" glyph-name="motion-burst" data-tags="motion-burst" d="M343.381 124.971c-56.875-10.155-79.232 26.411-85.333 52.821s-8.107 58.923-14.208 93.44c-8.107 34.56-38.613 83.285-52.821 154.411s28.459 170.667 91.435 182.869c62.976 12.203 99.541-101.589 105.643-123.947 16.256-71.125-24.363-107.691-22.357-166.613 2.048-42.667 14.208-69.077 18.304-85.333s38.613-93.44-40.619-107.691zM520.107 291.541c52.821-14.208 75.179 22.357 81.28 46.72 6.101 26.411 10.155 58.923 20.309 93.44 8.107 34.56 40.619 81.28 58.923 150.357s-14.208 172.715-71.125 186.923c-56.875 14.208-97.536-97.536-103.637-117.845-18.304-71.125 16.256-109.696 8.107-168.619-6.101-42.667-16.256-69.077-22.357-85.333-6.101-10.155-42.667-87.381 28.459-105.643zM709.077 21.333h-556.715c-48.768 0-67.029 36.565-67.029 60.971v731.435c0 2.048 0 16.256 8.107 30.464 6.101 12.203 22.357 30.464 58.923 30.464h556.715c48.768 0 67.029-36.565 67.029-60.971v-731.435c0-2.048 0-16.256-8.107-30.464-6.101-12.203-22.357-30.464-58.923-30.464zM152.363 834.048c-16.256 0-20.309-6.101-22.357-10.155-4.053-4.053-4.053-10.155-4.053-10.155v-731.435c0-8.107 4.053-20.309 26.411-20.309h556.715c16.256 0 20.309 6.101 22.357 10.155 4.053 4.053 4.053 10.155 4.053 10.155v731.435c0 8.107-4.053 20.309-26.411 20.309h-556.715zM810.667 61.952h-54.869v40.619h54.869c4.053 0 6.101 14.208 6.101 20.309v650.155c0 8.107-4.053 20.309-6.101 20.309h-54.869v40.619h54.869c32.512 0 46.72-32.512 46.72-60.971v-650.155c0-28.459-14.208-60.971-46.72-60.971zM891.947 106.667h-54.869v30.464h54.869c10.155 0 12.203 24.363 12.203 24.363v570.923c0 0 0 24.363-12.203 24.363h-54.869v32.512h54.869c28.459 0 42.667-28.459 42.667-56.875v-568.875c-2.048-26.411-14.208-56.875-42.667-56.875z" />
<glyph unicode="&#xe90e;" glyph-name="motion-detection" data-tags="motion-detection" d="M587.904 566.443l-4.181-4.267-50.517 14.379 0.64 10.539c10.24-6.955 22.613-11.008 35.925-11.008 35.499 0 64.299 28.757 64.299 64.299s-28.8 64.299-64.299 64.299-64.341-28.8-64.341-64.299c0-21.632 10.795-40.661 27.136-52.309l-135.851 8.064-81.707-87.253 49.024-45.952 60.16 64.256 56.448-3.371-42.965-105.088-5.248 2.261-40.576-94.976h-130.475v-67.243h174.848l43.221 101.077 103.808-180.395 58.24 33.536-118.955 206.805-5.931-3.456 42.496 84.053 59.947-58.923 94.933-8.277 5.845 66.944-70.869 6.187-61.141 60.075zM786.773 671.957l-9.685-13.739c0.853-0.64 87.040-63.701 12.928-214.229l15.061-7.424c80.341 163.2-17.323 234.667-18.347 235.392zM875.733 720.128l-12.16-11.563c1.323-1.365 128.597-138.923 11.179-310.443l13.867-9.472c124.971 182.571-11.477 330.027-12.885 331.435zM238.848 656.768l-15.061 7.381c-84.779-172.288 18.219-247.595 19.243-248.405l9.685 13.739c-3.797 2.731-92.117 68.352-13.867 227.243zM149.248 705.28l-13.867 9.472c-132.011-192.811 12.117-348.416 13.568-349.995l12.203 11.563c-5.675 5.931-136.064 147.499-11.904 328.96z" />
<glyph unicode="&#xe90f;" glyph-name="mouse-detector" data-tags="mouse-detector" d="M816.213 563.157c0.213 9.173-3.115 18.389-10.112 25.429l-263.509 263.509c-13.525 13.525-35.499 13.525-49.024 0l-263.509-263.509c-6.997-6.997-10.325-16.213-10.112-25.387 0-0.299-0.043-0.555-0.043-0.853v-493.952c0-19.157 15.531-34.645 34.645-34.645h527.019c19.157 0 34.645 15.531 34.645 34.645v493.952c0 0.299-0.043 0.555-0.043 0.853zM763.605 116.181c0-16.811-12.8-30.379-28.587-30.379h-434.603c-15.787 0-28.587 13.611-28.587 30.379v433.109c0 11.605 6.144 21.717 15.147 26.837 0.299 0.299 0.555 0.597 0.811 0.939l210.645 210.645c10.837 10.837 28.373 10.837 39.211 0l210.645-210.645c0.597-0.64 1.195-1.28 1.749-1.963 8.107-5.376 13.483-14.891 13.483-25.771v-433.109zM518.059 119.125c-104.107 0-188.715 84.565-188.715 188.629 0 104.107 84.651 188.757 188.715 188.757s188.715-84.651 188.715-188.757c0-104.021-84.651-188.629-188.715-188.629zM518.059 451.157c-79.061 0-143.445-64.256-143.445-143.403 0-79.061 64.341-143.317 143.445-143.317s143.403 64.256 143.403 143.317c0 79.147-64.299 143.403-143.403 143.403z" />
<glyph unicode="&#xe910;" glyph-name="mouse-house-cheese" data-tags="mouse-house-cheese" d="M244.48 552.533h3.84v11.947zM721.92 642.133c-4.096-2.133-8.917-3.413-14.080-3.413v0c-17.536 0.171-31.701 14.421-31.701 32 0 12.416 7.083 23.211 17.451 28.501l0.171 0.085-37.12 73.813c-7.168 14.037-21.547 23.467-38.101 23.467-0.085 0-0.213 0-0.299 0v0c-0.043 0-0.128 0-0.171 0-6.784 0-13.184-1.579-18.859-4.395l-370.091-185.045c-13.995-7.168-23.424-21.461-23.467-37.973v-241.92c-0.043-0.597-0.043-1.28-0.043-1.963 0-19.029 12.416-35.115 29.611-40.619l0.299-0.085 562.347-177.92c1.92-0.299 4.139-0.469 6.4-0.469s4.48 0.171 6.656 0.512l-0.256-0.043c23.552 0 42.667 19.115 42.667 42.667v0 230.4zM618.24 753.92l24.32-49.92c-5.845-10.197-9.301-22.4-9.387-35.371v-0.043c0 0 0-0.043 0-0.043 0-37.419 27.349-68.437 63.147-74.155l0.427-0.043 88.747-177.067-298.667 98.56c0.213 1.28 0.341 2.773 0.341 4.267s-0.128 2.987-0.341 4.437v-0.171c0 0.64 0.043 1.365 0.043 2.133 0 41.216-33.408 74.667-74.667 74.667 0 0 0 0-0.043 0v0c-0.171 0-0.427 0-0.64 0-27.307 0-51.072-14.976-63.616-37.205l-0.171-0.384-66.987 21.76zM444.16 526.507c-0.085-15.317-10.965-28.075-25.387-31.104l-0.213-0.043c-0.896-0.213-1.92-0.299-2.987-0.299s-2.091 0.128-3.072 0.341h0.085c-9.344 0-17.707 4.096-23.424 10.624l-0.043 0.043c-5.291 5.376-8.533 12.757-8.533 20.907 0 0.171 0 0.299 0 0.469v-0.043c0 9.045 3.755 17.195 9.813 23.040v0c5.76 5.504 13.568 8.917 22.187 8.96v0c0.085 0 0.213 0 0.341 0 15.531 0 28.416-11.392 30.763-26.283l0.043-0.171c0.427-1.152 0.683-2.517 0.683-3.925 0-0.853-0.085-1.707-0.299-2.56v0.085zM810.667 149.333l-562.347 177.92v224l89.6-29.44c2.517-39.083 34.773-69.803 74.24-69.973v0c0.128 0 0.256 0 0.384 0 22.827 0 43.221 10.411 56.661 26.752l0.085 0.128 341.333-112.64zM614.827 267.52c41.216 0 74.667 33.408 74.667 74.667s-33.408 74.667-74.667 74.667c-41.216 0-74.667-33.408-74.667-74.667v0c0-41.216 33.408-74.667 74.667-74.667v0zM614.827 374.187c17.664 0 32-14.336 32-32s-14.336-32-32-32c-17.664 0-32 14.336-32 32v0c0.256 17.579 14.421 31.744 31.957 32h0.043z" />
<glyph unicode="&#xe911;" glyph-name="mouse-house-hole" data-tags="mouse-house-hole" d="M85.333 874.667v-853.333h853.333v853.333zM682.667 192h-341.333v256c0 94.251 76.416 170.667 170.667 170.667s170.667-76.416 170.667-170.667v0zM896 64h-170.667v384c0 117.803-95.531 213.333-213.333 213.333s-213.333-95.531-213.333-213.333v0-384h-170.667v768h768z" />
<glyph unicode="&#xe912;" glyph-name="mouse-not-detected-cheese" data-tags="mouse-not-detected-cheese" d="M244.48 552.533h3.84v11.947zM656.64 773.12c-7.168 14.037-21.547 23.467-38.101 23.467-0.085 0-0.213 0-0.299 0v0c-0.043 0-0.128 0-0.171 0-6.784 0-13.184-1.579-18.859-4.395l-370.091-185.045c-13.995-7.168-23.424-21.461-23.467-37.973v-241.92c-0.043-0.597-0.043-1.28-0.043-1.963 0-19.029 12.416-35.115 29.611-40.619l0.299-0.085 18.347-5.973 34.133 34.133-39.68 12.8v225.707l89.6-29.44c2.517-39.083 34.773-69.803 74.24-69.973v0c2.261-0.299 4.821-0.469 7.467-0.469s5.205 0.171 7.765 0.512l-0.299-0.043 55.040 55.040 3.84 9.387c0.213 1.28 0.341 2.773 0.341 4.267s-0.128 2.987-0.341 4.437v-0.171c0 0.512 0 1.109 0 1.707 0 40.96-32.939 74.197-73.771 74.667h-0.043c-0.171 0-0.427 0-0.64 0-27.307 0-51.072-14.976-63.616-37.205l-0.171-0.384-66.987 21.76 337.493 168.533 24.32-49.92c-5.845-10.197-9.301-22.4-9.387-35.371v-0.043c-0.085-1.536-0.171-3.328-0.171-5.12s0.043-3.584 0.171-5.376v0.256l53.76 55.040zM389.973 549.547c5.76 5.504 13.568 8.917 22.187 8.96v0c0.085 0 0.213 0 0.341 0 15.531 0 28.416-11.392 30.763-26.283l0.043-0.171c0.213-0.853 0.341-1.792 0.341-2.773s-0.128-1.92-0.341-2.859v0.085c-0.085-15.317-10.965-28.075-25.387-31.104l-0.213-0.043c-0.896-0.213-1.92-0.299-2.987-0.299s-2.091 0.128-3.072 0.341h0.085c-9.344 0-17.707 4.096-23.424 10.624l-0.043 0.043c-5.291 5.376-8.533 12.757-8.533 20.907 0 0.171 0 0.299 0 0.469v-0.043c0.384 8.789 4.224 16.597 10.24 22.187v0zM910.933 817.067l-29.867 29.867-768-768 29.867-29.867 202.24 202.24 452.693-144.64c1.92-0.299 4.139-0.469 6.4-0.469s4.48 0.171 6.656 0.512l-0.256-0.043c23.552 0 42.667 19.115 42.667 42.667v0 230.4l-128 253.013zM810.667 149.333l-431.36 136.107 167.253 167.253 264.107-85.333zM785.493 419.413l-204.8 67.413 110.933 110.933h5.12zM614.827 416.853c-41.216 0-74.667-33.408-74.667-74.667s33.408-74.667 74.667-74.667c41.216 0 74.667 33.408 74.667 74.667v0c-0.256 41.131-33.536 74.411-74.624 74.667h-0.043zM614.827 310.187c-17.664 0-32 14.336-32 32s14.336 32 32 32c17.664 0 32-14.336 32-32v0c0-17.664-14.336-32-32-32v0z" />
<glyph unicode="&#xe913;" glyph-name="mouse-not-detected-hole" data-tags="mouse-not-detected-hole" d="M85.333 874.667v-853.333h853.333v853.333zM128 832h738.133l-738.133-738.133zM298.667 64h-140.8l140.8 140.8zM682.667 192h-341.333v55.467l305.067 305.067c22.613-28.331 36.267-64.64 36.267-104.149 0-0.128 0-0.256 0-0.384v0zM896 64h-170.667v384c0 0.043 0 0.128 0 0.171 0 51.413-18.219 98.603-48.512 135.467l0.299-0.384 218.88 218.88zM512 661.333c-117.803 0-213.333-95.531-213.333-213.333v0-122.88l42.667 42.667v80.213c0 94.251 76.416 170.667 170.667 170.667v0c0.171 0 0.427 0 0.64 0 23.851 0 46.507-5.035 66.987-14.080l-1.067 0.427 32 32c-28.288 15.317-61.909 24.32-97.664 24.32-0.299 0-0.64 0-0.939 0h0.043z" />
<glyph unicode="&#xe914;" glyph-name="mouse-not-detected" data-tags="mouse-not-detected" d="M938.325 507.307c0 101.76-49.579 170.923-136.96 198.656l134.016 134.016-32.725 32.768-155.563-155.477c-4.779 0.512-9.6 0.981-14.549 1.323-12.971 1.835-27.819 1.835-40.789 1.835-120.491 7.424-176.085 16.683-176.085 75.989 0 12.971-9.259 22.229-22.229 22.229s-22.229-9.344-22.229-22.229c0-107.52 116.779-113.067 218.667-118.656 5.675 0 11.349-0.341 16.981-0.768l-77.056-77.013c-0.981 0-1.92 0-2.901 0-50.048 0-107.52-20.395-168.661-61.184-24.107 27.819-59.307 46.336-98.261 46.336-0.256 0-0.512 0-0.811 0-71.211 0-128.939-57.728-128.939-128.939 0-0.299 0-0.555 0-0.853v0.043c0-31.488 12.971-63.019 33.323-85.248-100.053-107.477-172.331-211.328-174.208-213.163-5.547-7.424-5.547-14.848-1.835-22.229s11.136-11.136 20.437-11.136h45.568l-66.176-66.133 32.768-32.768 98.901 98.859h409.728c131.584 0 237.269 107.52 239.104 237.269 24.107 12.971 70.443 51.883 70.443 146.432zM570.667 540.757l-82.944-82.901c-0.811 14.037-4.053 27.093-9.344 39.040l0.299-0.725c32.811 20.821 63.744 35.797 91.989 44.587zM193.195 219.989c31.531 38.912 72.277 87.125 116.779 133.461l1.835 1.835c1.835 1.835 1.835 1.835 1.835 3.712l1.835 1.835c-0.043 0.256-0.043 0.555-0.043 0.853 0 1.835 0.725 3.499 1.92 4.736v0 3.712c0.043 0.256 0.043 0.555 0.043 0.853 0 1.835-0.725 3.499-1.92 4.736v0c0 1.835 0 1.835-1.835 3.712 0 1.835-1.835 1.835-3.712 3.712l-1.835 1.835h-1.835c-20.395 16.683-33.323 40.789-33.323 66.688 0 46.336 38.912 85.333 85.333 85.333s85.248-38.912 85.248-85.333c0-11.008 6.656-19.285 16.555-21.589l-118.656-118.656c-2.731 0.768-5.888 1.195-9.131 1.195 0 0-0.043 0-0.043 0v0c-20.437-0.043-37.035-16.64-37.077-37.077v0c0 0 0 0 0-0.043 0-3.243 0.427-6.4 1.237-9.429l-0.043 0.256-82.219-82.005zM628.779 166.272h-367.104l72.32 72.32c19.029 1.024 34.219 16.213 35.243 35.157v0.085l275.157 275.157c98.859-10.155 175.275-92.971 175.317-193.664v0c1.835-101.973-85.248-189.056-190.933-189.056zM860.459 412.8c-19.669 87.808-86.357 157.099-172.8 179.499l78.677 78.677c83.328-17.237 127.488-72.448 127.488-161.792 0-51.925-16.683-81.579-33.365-96.384z" />
<glyph unicode="&#xe915;" glyph-name="mouse" data-tags="mouse" d="M929.707 485.205c0 122.624-73.728 198.101-202.069 207.232-13.141 0.939-26.368 1.707-39.381 2.432-117.333 6.827-172.629 16.299-172.629 73.771 0 11.989-9.728 21.717-21.717 21.717s-21.76-9.728-21.76-21.717c0-104.747 113.536-111.36 213.717-117.077 12.8-0.768 25.771-1.536 38.741-2.432 105.771-7.552 161.664-64.213 161.664-163.925 0-51.712-17.109-79.403-32.256-94.251-22.955 104.96-116.395 183.765-228.053 183.765-48.981 0-104.747-20.096-165.888-59.349-23.381 27.435-57.643 45.227-96.341 45.227-70.101 0-127.104-57.045-127.104-127.019 0-31.573 11.819-60.928 32.256-83.925-97.664-103.808-169.899-206.848-170.667-207.915-4.693-6.656-5.248-15.317-1.451-22.485 3.712-7.168 11.136-11.691 19.285-11.691h509.952c128.683 0 233.344 104.661 233.557 233.301 24.747 13.824 70.272 51.712 70.272 144.341zM625.92 150.997h-395.904l-30.165 52.651c30.891 38.443 70.571 85.291 115.072 131.456 0.213 0.213 0.341 0.597 0.555 0.853 0.341 0.341 0.853 0.512 1.067 0.939 0.896 1.152 1.28 2.432 1.877 3.669 0.512 0.853 1.024 1.664 1.28 2.603 0.597 1.792 0.853 3.584 0.939 5.333 0.085 0.939 0.213 1.877 0.171 2.859-0.128 1.707-0.512 3.328-1.067 4.992-0.299 1.152-0.512 2.133-1.024 3.157-0.768 1.451-1.707 2.645-2.731 3.925-0.597 0.768-0.981 1.707-1.664 2.389-0.299 0.299-0.64 0.341-0.939 0.64-0.299 0.213-0.512 0.597-0.853 0.853-20.651 15.872-32.469 40.064-32.469 66.219 0 46.037 37.461 83.499 83.584 83.499 46.037 0 83.499-37.419 83.499-83.499 0-12.075 9.685-21.76 21.717-21.76 11.989 0 21.76 9.728 21.76 21.76 0 15.659-3.243 30.507-8.533 44.459 54.443 35.2 102.827 53.163 143.701 53.163 104.832 0 189.995-85.205 189.995-190.080s-85.163-190.080-189.995-190.080zM335.531 294.187c-19.627 0-35.584-15.872-35.584-35.499s15.872-35.541 35.584-35.541c19.584 0 35.499 15.957 35.499 35.541s-15.872 35.499-35.499 35.499z" />
<glyph unicode="&#xe916;" glyph-name="multiple-images" data-tags="multiple-images" d="M874.667 704h-106.667v106.667c0 35.328-28.672 64-64 64v0h-554.667c-35.328 0-64-28.672-64-64v0-554.667c0-35.328 28.672-64 64-64v0h106.667v-106.667c0-35.328 28.672-64 64-64v0h554.667c35.328 0 64 28.672 64 64v0 554.667c0 35.328-28.672 64-64 64v0zM149.333 256v554.667h554.667v-554.667zM874.667 85.333h-554.667v106.667h384c35.328 0 64 28.672 64 64v0 384h106.667z" />
<glyph unicode="&#xe917;" glyph-name="my-services" data-tags="my-services" d="M363.435 527.829c94.677 0 172.672 77.995 172.672 174.549 0 94.677-77.995 172.672-172.672 172.672s-172.672-77.995-172.672-174.549c0-94.677 77.995-172.672 172.672-172.672zM363.435 826.795v0c68.693 0 124.416-55.723 124.416-124.416s-55.723-124.416-124.416-124.416c-68.693 0-124.416 55.723-124.416 124.416v0c0 68.693 55.723 124.416 124.416 124.416v0zM755.243 390.443v0c-26.069 3.925-47.744 20.011-59.221 42.24l-0.213 0.427c-18.56 38.997-72.405 37.12-91.008 0-11.136-24.149-33.408-38.997-59.392-42.667-42.667-5.589-59.435-57.557-27.861-87.296 22.272-22.272 25.984-52.011 22.272-70.571-7.424-42.667 37.12-74.283 74.283-53.845 22.272 11.136 48.256 13.013 72.405 0 37.12-20.437 81.707 13.013 74.283 53.845-3.712 20.437-1.835 48.299 22.272 70.571 31.573 27.861 14.848 81.707-27.861 87.296zM703.232 251.179v0c-14.848-13.013-33.408-20.437-52.011-20.437h-5.589c-38.997 1.835-68.693 33.408-70.571 72.405-1.835 22.272 5.589 42.667 20.437 57.557s35.285 24.149 55.723 24.149c42.667 0 76.117-35.285 76.117-76.117 0.043-24.149-9.259-44.587-24.107-57.557zM651.264 600.277c-0.128 0-0.299 0-0.469 0-79.061 0-150.827-31.232-203.605-82.048l0.085 0.085c-1.195 0.171-2.603 0.256-4.011 0.256h-7.424c-11.136 1.877-52.011 1.877-116.992 0h-22.272c-133.675 0-213.547-83.541-213.547-222.848 0-20.437 14.848-40.832 40.832-40.832h238.976c25.429-136.021 145.237-239.531 288.384-239.531 161.536 0 293.333 133.675 293.333 293.333s-131.797 291.584-293.333 291.584zM357.931 308.736c0-1.877 0-3.712 0-5.589h-226.603c1.835 107.691 61.312 167.125 167.125 165.248h107.307c-29.995-44.8-47.872-99.925-47.872-159.275 0-0.171 0-0.299 0-0.469v0.043zM651.264 63.616c-135.381 0-245.12 109.739-245.12 245.12s109.739 245.12 245.12 245.12v0c135.552 0 246.955-109.568 246.955-245.12s-111.403-245.12-246.955-245.12z" />
<glyph unicode="&#xe918;" glyph-name="nest" data-tags="nest" d="M512 874.667c-235.648 0-426.667-191.019-426.667-426.667s191.019-426.667 426.667-426.667c235.648 0 426.667 191.019 426.667 426.667v0c0 235.648-191.019 426.667-426.667 426.667v0zM238.507 618.667l72.96-45.653c-5.76-9.173-11.349-19.797-16.085-30.891l-0.597-1.536-78.933 32c7.296 18.048 14.848 33.195 23.467 47.659l-0.853-1.579zM200.533 524.8l85.333-19.2c-2.688-10.539-4.651-22.912-5.504-35.627l-0.043-0.64-85.333 5.973c0.64 17.92 2.603 34.944 5.888 51.541l-0.341-2.048zM200.533 375.893c-3.413 13.867-6.272 30.763-7.979 47.957l-0.128 1.536 85.333 6.827c1.067-13.525 3.029-25.899 5.888-37.931l-0.341 1.664zM215.893 328.107l79.36 34.56c5.461-12.928 11.051-23.68 17.28-34.048l-0.64 1.195-72.533-42.667c-7.851 11.648-15.531 25.045-22.229 39.040l-0.811 1.92zM285.013 224.853l-16.64 17.92 64.853 55.467 12.373-13.227zM333.227 602.88l-65.28 55.467c11.093 12.757 22.656 24.32 34.987 35.072l0.427 0.341 55.893-64.853c-9.6-7.893-18.133-16.427-25.771-25.728l-0.256-0.299zM388.693 650.667l-42.667 72.96c11.904 7.808 25.771 15.488 40.192 22.187l2.048 0.853 33.28-78.507c-12.672-5.461-23.467-11.307-33.664-18.005l0.811 0.512zM456.107 679.253l-20.053 82.773c14.123 3.627 31.019 6.528 48.256 8.021l1.237 0.085 7.253-85.333c-13.483-0.853-26.027-2.859-38.144-5.845l1.451 0.299zM822.613 527.787c3.84-14.464 6.699-31.488 8.064-48.939l0.043-0.981-85.333-6.827c-1.067 13.44-3.157 25.813-6.315 37.76l0.341-1.493zM807.253 576l-78.933-32.853c-5.291 12.8-10.88 23.595-17.195 33.835l0.555-0.981 72.107 42.667c8.064-12.117 15.872-26.112 22.656-40.704l0.811-1.963zM565.76 679.68c-10.325 2.475-22.699 4.437-35.328 5.504l-0.939 0.043 6.4 85.333c18.603-1.536 35.541-4.096 52.053-7.723l-2.56 0.469zM600.747 668.587l32.427 78.080c17.621-7.467 32.341-15.061 46.464-23.552l-1.664 0.939-42.667-72.96c-9.685 5.973-21.035 11.819-32.853 16.853l-1.707 0.64zM718.507 695.467c13.013-11.008 24.747-22.571 35.499-35.029l0.341-0.384-64.427-55.893c-8.149 9.472-16.811 18.005-26.112 25.728l-0.341 0.299zM738.133 226.133l-60.16 60.16 12.373 13.227 64.853-55.467zM785.92 286.72l-72.96 42.667c5.632 9.259 11.179 20.224 16 31.531l0.64 1.749 78.933-32c-7.339-17.707-14.891-32.555-23.467-46.763l0.853 1.536zM740.693 398.933c2.432 10.283 4.395 22.656 5.461 35.285l0.085 0.981 85.333-5.973c-1.536-18.603-4.096-35.541-7.723-52.053l0.469 2.56z" />
<glyph unicode="&#xe919;" glyph-name="news" data-tags="news" d="M919.083 798.677h-651.563c-13.739 0-24.875-11.136-24.875-24.875v-169.045h-137.685c-13.739 0-24.875-11.136-24.875-24.917v-376.277c0-58.581 47.616-106.24 106.155-106.24h651.52c58.581 0 106.24 47.659 106.24 106.24v570.197c0 13.739-11.136 24.917-24.875 24.917zM242.603 203.563c0-31.189-25.344-56.491-56.448-56.491s-56.405 25.344-56.405 56.491v351.36h112.768v-351.36zM894.165 203.563c0-31.189-25.344-56.491-56.448-56.491h-561.579c10.283 16.384 16.256 35.755 16.256 56.491v545.323h601.813v-545.323zM651.605 398.976h155.136c13.739 0 24.875 11.136 24.875 24.875v182.613c0 13.739-11.136 24.875-24.875 24.875h-155.136c-13.739 0-24.875-11.136-24.875-24.875v-182.613c0-13.739 11.136-24.875 24.875-24.875zM676.48 581.589h105.344v-132.821h-105.344v132.821zM389.12 398.976h171.691c13.739 0 24.875 11.136 24.875 24.875s-11.136 24.917-24.875 24.917h-171.691c-13.739 0-24.917-11.136-24.917-24.917s11.136-24.875 24.917-24.875zM389.12 490.325h171.691c13.739 0 24.875 11.136 24.875 24.917s-11.136 24.875-24.875 24.875h-171.691c-13.739 0-24.917-11.136-24.917-24.875s11.136-24.917 24.917-24.917zM389.12 216.405h415.147c13.739 0 24.875 11.136 24.875 24.875s-11.136 24.917-24.875 24.917h-415.147c-13.739 0-24.917-11.136-24.917-24.917s11.136-24.875 24.917-24.875zM389.12 307.712h415.147c13.739 0 24.875 11.136 24.875 24.875s-11.136 24.875-24.875 24.875h-415.147c-13.739 0-24.917-11.136-24.917-24.875s11.136-24.875 24.917-24.875zM389.12 581.589h171.691c13.739 0 24.875 11.136 24.875 24.917s-11.136 24.875-24.875 24.875h-171.691c-13.739 0-24.917-11.136-24.917-24.875s11.136-24.917 24.917-24.917z" />
<glyph unicode="&#xe91a;" glyph-name="night-control" data-tags="night-control" d="M894.507 873.813h-770.005c-22.101 0-39.979-17.877-39.979-39.979v-770.005c0-22.101 17.877-39.979 39.979-39.979h770.005c22.101 0 39.979 17.877 39.979 39.979v770.005c0 22.101-17.877 39.979-39.979 39.979zM875.819 102.485c0-11.051-8.96-20.011-20.011-20.011h-692.651c-11.051 0-20.011 8.96-20.011 20.011v692.651c0 11.051 8.96 20.011 20.011 20.011h692.651c11.051 0 20.011-8.96 20.011-20.011v-692.651zM314.837 349.013c4.437 0 8.021 3.584 8.021 8.021v18.432c0 4.395-3.541 7.979-8.021 7.979s-7.979-3.584-7.979-7.979v-18.432c0-4.437 3.541-8.021 7.979-8.021zM255.104 283.819c0 4.437-3.541 7.979-8.021 7.979h-18.389c-4.437 0-8.021-3.541-8.021-7.979s3.584-8.021 8.021-8.021h18.389c4.437 0 8.021 3.584 8.021 8.021zM403.755 291.797h-18.389c-4.437 0-8.021-3.541-8.021-7.979s3.541-8.021 8.021-8.021h18.389c4.437 0 8.021 3.584 8.021 8.021s-3.584 7.979-8.021 7.979zM251.733 330.923c1.579-1.579 3.627-2.347 5.675-2.347s4.096 0.768 5.675 2.347c3.115 3.115 3.115 8.192 0.043 11.307l-13.056 13.056c-3.115 3.115-8.192 3.115-11.307 0s-3.115-8.192 0-11.307l13.013-13.056zM374.315 326.784c2.048 0 4.053 0.768 5.632 2.347l13.013 13.013c3.115 3.115 3.115 8.192 0 11.307s-8.149 3.115-11.307 0l-13.013-13.013c-3.115-3.115-3.115-8.192 0-11.307 1.579-1.579 3.627-2.347 5.675-2.347zM314.837 212.437c-4.437 0-7.979-3.584-7.979-8.021v-18.432c0-4.395 3.541-7.979 7.979-7.979s8.021 3.584 8.021 7.979v18.432c0 4.437-3.541 8.021-8.021 8.021zM251.733 230.528l-13.013-13.056c-3.115-3.115-3.115-8.192 0-11.307 1.536-1.579 3.627-2.347 5.675-2.347s4.096 0.768 5.675 2.347l13.056 13.056c3.115 3.115 3.115 8.192 0 11.307s-8.192 3.115-11.307 0zM379.989 232.32c-3.115 3.115-8.149 3.115-11.307 0s-3.115-8.149 0-11.307l13.013-13.056c1.579-1.536 3.627-2.347 5.675-2.347s4.053 0.768 5.632 2.347c3.115 3.115 3.115 8.192 0 11.307l-13.013 13.013zM314.837 338.645c-30.208 0-54.784-24.576-54.784-54.827s24.576-54.827 54.784-54.827c30.251 0 54.827 24.576 54.827 54.827s-24.576 54.827-54.827 54.827zM314.837 244.992c-21.419 0-38.784 17.408-38.784 38.827s17.408 38.827 38.784 38.827c21.419 0 38.827-17.408 38.827-38.827s-17.408-38.827-38.827-38.827zM629.803 243.2c8.832-26.88 27.563-48.725 52.779-61.525 9.216-4.651 14.933-1.365 17.109 0.853 6.144 6.016 3.968 15.317 0.085 32.171-4.949 21.248-12.373 53.376-0.341 77.099 12.203 24.021 42.453 37.163 62.507 45.909 15.744 6.827 25.259 11.008 25.515 20.224 0.171 5.248-2.944 9.472-9.173 12.629-7.296 3.712-14.976 6.571-22.869 8.448-48 11.691-97.152-10.923-119.467-55.040-12.8-25.216-14.976-53.888-6.187-80.811zM651.819 315.989c18.603 36.693 59.477 55.509 99.371 45.781 4.011-0.981 7.979-2.261 12.117-3.968-2.688-1.237-5.76-2.56-8.491-3.755-22.357-9.728-56.192-24.405-71.253-54.144-14.976-29.525-6.613-65.408-1.152-89.173 0.725-3.2 1.579-6.699 2.176-9.856-17.963 10.88-31.317 27.648-37.931 47.829-7.339 22.357-5.504 46.251 5.163 67.243zM140.245 483.712h742.357v-21.163h-742.357v21.163zM500.821 471.125h21.163v-392.661h-21.163v392.661z" />
<glyph unicode="&#xe91b;" glyph-name="no-exist" data-tags="no-exist" d="M512.171 868.011c0.171 0 0.384 0 0.597 0 116.011 0 221.056-47.104 297.003-123.221v0c164.224-164.181 164.608-431.701 0.384-596.011s-432.085-164.181-596.352 0-163.797 431.701 0.341 596.011c76.117 76.117 181.291 123.221 297.472 123.221 0.213 0 0.384 0 0.597 0h-0.043zM512.171 788.821c-188.757-0.213-341.675-153.259-341.675-342.059 0-80.341 27.691-154.197 74.027-212.565l-0.555 0.683c0.597 0.597 1.195 1.195 1.835 1.835l477.867 478.208c-57.472 45.995-131.2 73.771-211.456 73.771 0 0 0 0-0.043 0v0zM779.989 658.688l-477.867-477.867c-0.683-0.725-1.323-1.493-2.176-2.176 57.685-45.995 131.627-73.771 212.053-73.771 94.464 0 179.968 38.357 241.792 100.309v0c124.245 124.203 132.651 319.147 26.155 453.504z" />
<glyph unicode="&#xe91c;" glyph-name="notice" data-tags="notice" d="M509.227 21.333c-0.043 0-0.085 0-0.085 0-0.853 0-1.664 0.341-2.219 0.896v0l-21.12 6.443q-121.515 46.933-185.045 116.907-63.445 70.912-91.136 137.259t-31.317 114.176q-2.731 48.768-2.773 49.536v283.563c0.043 2.56 0.768 4.949 2.048 6.955l-0.043-0.043c1.237 2.176 2.475 4.139 3.669 5.973 1.579 1.109 3.371 2.176 5.291 3.115l0.256 0.128c1.792 0.896 3.883 1.408 6.101 1.408 0.128 0 0.213 0 0.341 0h17.365q19.328 0 51.541 2.773c26.453 3.541 50.219 9.301 73.003 17.28l-2.56-0.768c31.872 10.88 59.179 23.339 84.949 38.101l-2.389-1.237c31.531 19.072 58.709 40.96 82.688 65.92l0.128 0.128c1.664 1.28 3.584 2.432 5.589 3.371l0.213 0.085c2.048 0.896 4.437 1.408 6.912 1.408s4.864-0.512 7.040-1.451l-0.128 0.043c2.304-0.939 4.267-2.005 6.101-3.243l-0.128 0.085c24.277-25.259 51.797-47.147 81.963-65.067l1.792-0.981c23.424-13.525 50.688-25.941 79.189-35.797l3.413-1.024c20.821-7.381 45.269-13.184 70.485-16.341l1.749-0.171q32.213-2.816 51.541-2.773h17.493c0.043 0 0.085 0 0.171 0 2.432 0 4.736-0.512 6.869-1.451l-0.128 0.043c1.963-0.768 3.669-1.877 5.077-3.243v0c1.707-1.664 3.115-3.669 4.096-5.888l0.043-0.128c0.896-2.005 1.408-4.352 1.408-6.827 0-0.043 0-0.043 0-0.085v0-284.459q0-0.896-2.773-48.768t-30.592-114.389q-27.605-66.048-91.136-136.277-63.531-70.997-184.107-117.888l-22.997-6.443c-0.555-0.555-1.365-0.896-2.219-0.896-0.043 0-0.085 0-0.128 0h-5.547zM211.456 445.696q0-4.565 2.773-48.768t28.544-104.448q25.771-60.416 84.693-123.861 57.813-63.531 170.283-106.795l14.72-4.608 16.512 5.547q110.507 42.368 169.301 105.856 57.813 63.445 83.755 123.349t28.544 104.021q2.773 44.203 2.773 47.915v267.904c-19.541 0.341-38.357 1.664-56.875 3.925l2.603-0.256c-27.989 3.499-53.12 9.173-77.312 16.939l2.987-0.811c-33.195 10.539-61.653 22.869-88.619 37.675l2.56-1.28c-33.664 18.517-62.677 39.893-88.533 64.597l0.171-0.128c-25.515-24.363-54.187-45.739-85.333-63.36l-2.133-1.109c-24.064-13.355-52.267-25.643-81.621-35.371l-3.584-1.024c-20.949-6.997-45.696-12.629-71.168-15.915l-2.005-0.213c-15.616-1.963-34.133-3.328-52.864-3.669h-0.512zM467.456 642.688c-0.128 1.024-0.213 2.219-0.213 3.456 0 6.144 1.963 11.819 5.291 16.469l-0.043-0.085c3.755 4.779 9.515 7.851 16.043 7.851 0.341 0 0.725 0 1.067-0.043h45.056c0.256 0 0.555 0 0.896 0 6.656 0 12.629-3.029 16.597-7.808l0.043-0.043c3.2-4.053 5.12-9.216 5.12-14.805 0-1.792-0.213-3.499-0.555-5.163l0.043 0.171-21.12-254.976c-0.213-6.699-2.987-12.672-7.381-17.067v0c-4.139-3.712-9.643-6.016-15.701-6.016-0.299 0-0.597 0-0.853 0h0.043c-0.213 0-0.427 0-0.64 0-5.675 0-10.837 2.304-14.549 6.016v0c-4.139 4.48-6.699 10.453-6.912 17.024v0.043zM512.555 318.677c0.469 0 1.067 0.043 1.621 0.043 11.776 0 22.4-4.736 30.123-12.416v0c7.68-7.552 12.416-18.048 12.416-29.653 0-0.384 0-0.811 0-1.195v0.043-6.443c0-0.341 0-0.683 0-1.067 0-11.648-4.736-22.187-12.416-29.824v0c-7.808-7.68-18.475-12.416-30.293-12.416-0.512 0-1.024 0-1.536 0.043h0.085c-0.384 0-0.811 0-1.28 0-12.032 0-22.912 4.736-30.976 12.416v0c-7.936 7.552-12.885 18.176-12.885 29.995 0 0.341 0 0.64 0 0.939v-0.043 6.357c0 0.299 0 0.64 0 0.981 0 11.733 4.949 22.357 12.885 29.824v0c7.979 7.723 18.859 12.501 30.848 12.501 0.469 0 0.896 0 1.323 0h-0.085z" />
<glyph unicode="&#xe91d;" glyph-name="notification-android" data-tags="notification-android" d="M735.787 679.723c-2.731 7.467-12.544 27.179-17.451 35.285-18.261 29.568-46.549 57.003-78.208 75.861-7.211 4.352-10.283 6.699-10.283 8.149 0 2.304 2.731 7.381 26.069 49.237 9.344 16.725 10.539 20.267 8.32 23.723-2.219 3.285-6.571 4.437-9.899 2.475-1.365-0.768-4.651-5.504-7.296-10.453s-6.613-12.117-8.747-16c-2.304-3.84-4.139-7.211-4.139-7.509s-2.773-5.376-6.101-11.392c-3.328-6.016-7.296-13.141-8.704-15.957-4.267-8.363-4.949-8.704-12.715-5.589-20.565 8.107-46.123 14.635-64.768 16.469-13.653 1.323-48.939 1.323-61.483 0-10.624-1.109-27.989-4.48-36.565-6.955-12.16-3.627-23.296-7.168-24.747-7.936-2.517-1.28-9.685-4.053-10.581-4.053s-3.499 4.309-10.496 17.365c-2.475 4.608-6.357 11.605-8.619 15.445-2.176 3.883-4.053 7.253-4.053 7.467 0 1.237-14.208 25.771-16.128 27.861-4.309 4.736-12.331 1.621-12.331-4.736 0-1.536 1.493-5.504 3.243-8.704s4.907-8.832 6.912-12.629c6.613-12.245 17.451-31.957 21.589-39.296 4.949-8.917 5.077-10.88 0.64-12.971-1.877-0.811-5.589-2.944-8.192-4.608s-5.461-3.456-6.357-3.883c-3.627-1.664-21.205-15.061-29.653-22.485-21.291-18.944-38.144-40.619-49.877-64.213-2.133-4.395-4.352-8.747-4.907-9.728-2.304-4.309-9.003-24.064-11.691-34.475-1.536-6.016-6.144-37.419-6.187-42.325 0-0.469 0.725-1.493 1.707-2.347 1.493-1.493 24.363-1.664 236.16-1.621 160.939 0 235.221 0.341 236.629 1.067 1.92 1.024 1.963 1.92 1.451 11.349-1.067 17.749-5.717 39.296-12.629 58.112zM411.008 695.893c-2.773-1.579-8.533-2.389-11.861-1.749-4.053 0.811-10.496 5.333-12.715 8.96-4.267 7.040-3.627 16.64 1.707 22.955 11.648 13.781 34.133 5.589 34.133-12.331 0-7.595-3.925-13.824-11.221-17.835zM629.077 696.917c-13.696-7.68-29.056 1.493-28.885 17.365 0.085 10.752 8.619 18.773 19.755 18.56 6.613-0.043 11.307-2.475 15.275-7.979 2.773-3.712 3.2-5.248 3.2-11.264 0-8.064-2.731-13.056-9.216-16.683zM746.923 582.485c0 0.427-106.027 0.725-235.563 0.725-213.76 0-235.563-0.128-236.117-1.621-1.067-2.773-0.725-332.331 0.341-341.76 1.323-11.392 6.656-22.869 14.72-31.275 6.699-7.040 10.709-9.813 20.267-13.952 6.613-2.859 7.253-2.859 32.555-3.413l25.856-0.64 0.597-63.189c0.64-67.669 0.555-67.371 6.144-77.995 3.029-5.76 10.965-14.848 15.787-18.219 6.955-4.907 10.368-6.443 18.773-8.448 4.565-1.109 9.813-2.091 11.605-2.091 6.4-0.128 21.035 4.011 27.477 7.808 11.307 6.571 21.333 19.584 24.789 32.128 0.64 2.133 1.365 30.037 1.707 66.901l0.64 63.189h69.589l0.555-63.744c0.555-57.515 0.683-64.256 2.432-69.291 6.528-19.157 21.163-31.744 41.685-35.712 9.387-1.792 9.813-1.749 19.371 0.427 17.493 3.925 29.312 13.056 36.992 28.459l4.48 9.045 0.555 65.365 0.555 65.451 26.368 0.597c24.96 0.555 26.709 0.683 32.213 3.072 17.579 7.723 28.416 19.456 34.005 36.949l2.219 6.827-0.213 174.848c-0.085 96.085-0.213 169.216-0.213 169.685zM235.605 587.136c-14.336 11.392-30.165 14.976-46.891 10.539-8.064-2.133-13.269-4.779-20.565-10.539-6.997-5.547-8.96-8.107-13.909-18.005l-4.48-8.96-0.299-121.856-0.256-121.899 2.56-7.253c3.243-9.173 6.997-15.189 14.080-22.101 6.187-5.973 9.301-7.893 18.731-11.392 8.704-3.2 23.296-3.328 33.28-0.384 14.592 4.395 27.733 16.512 33.451 31.019l2.901 7.381v246.443l-4.523 8.96c-4.949 9.899-6.955 12.416-13.952 18.005zM871.723 558.848c-4.949 19.541-18.56 33.579-37.803 38.869-9.173 2.56-16.853 2.56-26.411 0.085-8.789-2.347-13.099-4.395-19.797-9.685-11.008-8.747-17.749-20.821-19.669-35.072-1.493-11.349-1.493-221.483 0-233.429 1.835-14.037 7.040-24.149 17.067-33.237 6.315-5.717 9.557-7.595 18.176-10.624 8.576-3.072 23.765-3.243 32.768-0.555 7.040 2.091 17.451 8.235 21.547 12.629 7.125 7.723 10.624 13.653 13.739 23.509 2.005 6.315 2.091 10.453 2.091 123.648 0 104.533-0.213 117.845-1.749 123.819z" />
<glyph unicode="&#xe91e;" glyph-name="notification-email" data-tags="notification-email" d="M892.501 768.896h-760.96c-18.731 0-33.92-15.147-33.92-33.92v-565.291c0-18.773 15.189-33.92 33.92-33.92h760.917c18.773 0 33.92 15.104 33.92 33.92v565.291c0.043 18.731-15.104 33.92-33.877 33.92zM882.517 180.011c-4.267-4.309-9.941-6.443-15.573-6.443s-11.264 2.133-15.573 6.443l-244.48 244.48-57.899-57.856c-10.88-10.88-25.216-16.341-39.552-16.341s-28.672 5.504-39.552 16.341l-53.888 53.931-241.963-241.92c-4.267-4.267-9.941-6.443-15.573-6.443s-11.264 2.133-15.573 6.443c-8.619 8.619-8.619 22.613 0 31.189l241.92 241.877-243.285 243.285c-8.619 8.619-8.619 22.528 0 31.147s22.571 8.619 31.189 0l328.32-328.32c5.973-5.931 10.795-5.931 16.768 0l328.107 328.149c8.661 8.619 22.571 8.619 31.189 0s8.619-22.613 0-31.189l-239.104-239.061 244.48-244.48c8.619-8.619 8.619-22.613 0-31.189z" />
<glyph unicode="&#xe91f;" glyph-name="notification-iphone" data-tags="notification-iphone" d="M788.651 316.032c-23.723 34.091-35.584 72.32-35.584 114.773 0 38.699 11.221 74.155 33.536 106.197 12.416 17.664 31.957 37.888 58.667 60.587-17.749 21.675-35.584 38.912-53.675 51.584-31.957 22.016-68.608 33.067-109.653 33.067-25.003 0-54.613-5.845-88.661-17.579-34.048-11.648-58.581-17.536-73.643-17.536-11.733 0-35.413 5.205-71.168 15.616-35.371 10.325-65.621 15.445-90.667 15.445-58.795 0-107.52-24.619-146.176-74.155-38.4-49.408-57.643-113.365-57.643-191.787 0-84.437 25.216-170.667 75.691-258.475 50.389-88.789 101.845-133.163 154.283-133.163 17.323 0 39.936 5.845 67.627 17.493 28.075 11.349 52.608 17.024 73.685 17.024s46.763-5.419 77.141-16.512c30.635-11.008 54.741-16.469 72.107-16.469 43.733 0 87.808 33.536 132.181 100.651 29.355 44.757 50.432 87.723 63.104 128.768-30.507 9.003-57.515 30.549-81.195 64.64zM613.803 713.216c21.675 21.717 37.504 45.312 47.573 70.656 9.984 25.387 15.019 48.768 15.019 70.144 0 3.371-0.171 6.699-0.512 10.027-0.256 3.285-1.067 7.211-2.475 11.52-59.776-13.696-102.699-39.125-128.725-76.075-25.728-37.12-38.912-81.024-39.552-131.797 23.723 1.92 41.429 4.779 53.12 8.448 18.347 6.357 36.907 18.688 55.595 37.077z" />
<glyph unicode="&#xe920;" glyph-name="notification-sms" data-tags="notification-sms" d="M511.915 875.52c-221.952 0-401.877-179.84-401.877-401.877 0-101.163 29.909-200.917 99.115-264.277 5.547-5.077-4.437-41.6-25.899-75.947-29.355-47.104-104.235-84.736-60.928-98.475 163.371-51.968 255.317 59.477 269.397 55.168 38.059-11.733 78.379-18.304 120.235-18.304 221.952 0 401.835 179.883 401.835 401.92s-179.925 401.835-401.835 401.835zM693.333 321.323h-364.075c-13.995 0-25.387 11.349-25.387 25.387 0 13.909 11.349 25.301 25.387 25.301h364.032c13.952 0 25.344-11.349 25.344-25.301 0-13.995-11.349-25.387-25.301-25.387zM693.333 438.4h-364.075c-13.995 0-25.387 11.349-25.387 25.344s11.349 25.301 25.387 25.301h364.032c13.952 0 25.344-11.349 25.344-25.301s-11.349-25.344-25.301-25.344zM693.333 555.435h-364.075c-13.995 0-25.387 11.349-25.387 25.344s11.349 25.301 25.387 25.301h364.032c13.952 0 25.344-11.349 25.344-25.301s-11.349-25.344-25.301-25.344z" />
<glyph unicode="&#xe921;" glyph-name="notification-windows" data-tags="notification-windows" d="M84.309 754.475l348.373 47.488 0.171-336.085-348.245-1.92-0.299 290.56zM432.555 427.221l0.256-336.384-348.245 47.872-0.043 290.688 347.989-2.219zM474.752 808.149l461.952 67.413v-405.419l-461.952-3.627v341.632zM936.789 424.021l-0.085-403.541-461.952 65.195-0.64 339.115 462.677-0.725z" />
<glyph unicode="&#xe922;" glyph-name="notifications" data-tags="notifications" d="M861.44 206.379l-55.765 92.928c-22.315 39.040-35.328 83.627-35.328 130.091v81.792c0 104.064-66.901 200.747-165.419 237.909v39.040c0 52.011-40.875 92.928-92.928 92.928s-92.928-42.752-92.928-92.928v-40.875c-98.517-37.163-165.419-132.011-165.419-237.909v-81.792c0-46.464-11.136-91.093-35.328-130.091l-55.765-92.928c-3.499-6.144-5.589-13.525-5.589-21.376s2.091-15.232 5.675-21.589l-0.128 0.213c7.424-14.891 22.315-22.315 37.163-22.315h145.451c12.459-48.213 60.331-124.544 168.619-124.544v0c107.221 0 153.685 74.795 166.443 124.544h144c16.725 0 29.739 9.344 37.163 24.149 3.499 6.144 5.547 13.483 5.547 21.333s-2.091 15.232-5.717 21.632l0.128-0.213zM474.752 710.059v78.080c0 22.315 16.725 39.040 39.040 39.040s39.040-16.725 39.040-39.040v-79.915l18.645-5.547c85.504-24.192 144.981-104.107 144.981-193.323v-81.792c0-0.256 0-0.597 0-0.939 0-57.301 15.872-110.891 43.52-156.587l-0.768 1.365 46.464-78.080h-589.184l50.176 80c29.739 46.464 44.587 100.352 44.587 156.117v81.707c0 87.381 59.477 167.296 144.981 193.323zM403.456 139.392h221.056c-11.093-27.008-40.021-68.779-110.677-68.779-69.376 0.043-98.773 41.856-110.336 68.821z" />
<glyph unicode="&#xe923;" glyph-name="offline" data-tags="offline" d="M647.040 585.685c-30.037 30.763-66.176 55.424-106.453 72.107l-2.133 0.768c-37.845 16-81.835 25.344-128 25.344v0c-0.725 0.043-1.579 0.085-2.389 0.085-12.331 0-23.509-4.992-31.616-13.013v0c-7.637-9.003-12.245-20.736-12.245-33.536 0-6.571 1.195-12.843 3.413-18.603l-0.128 0.341c2.731-5.888 6.357-10.88 10.752-15.104v0c3.84-3.925 8.533-7.083 13.739-9.131l0.256-0.085c2.475-0.725 5.333-1.152 8.277-1.152 3.627 0 7.083 0.64 10.283 1.792l-0.213-0.085c33.109-1.579 64.085-8.789 92.672-20.693l-1.835 0.683c59.819-24.832 106.411-71.424 130.688-129.621l0.597-1.579c11.179-26.752 18.389-57.728 19.968-90.197l0.043-0.64c0-14.421 4.139-25.771 12.373-33.963s19.627-12.373 34.005-12.373c0.597-0.043 1.28-0.043 1.963-0.043 12.203 0 23.296 4.736 31.573 12.459l-0.043-0.043c8.064 8.107 13.013 19.243 13.013 31.573 0 0.853-0.043 1.707-0.085 2.56v-0.128c-1.536 45.483-11.136 88.363-27.349 127.744l0.896-2.432c-17.109 41.856-41.557 77.483-72.021 106.923l-0.085 0.085zM503.381 392.917c-0.213 12.928-5.547 24.576-14.037 33.024v0c-8.363 9.088-20.224 14.848-33.451 15.104h-0.043c-12.971-0.128-24.533-5.931-32.384-15.061l-128.597-128.683-128.555 128.555c-8.192 9.045-19.925 14.805-32.981 15.104h-0.043c-13.099-0.299-24.832-6.059-32.981-15.061l-0.043-0.043c-9.344-8.021-15.189-19.84-15.189-33.024s5.888-25.003 15.147-32.981l128.597-128.597-128.384-128.384c-9.173-7.893-14.976-19.456-15.104-32.384v0c0.256-13.269 6.016-25.131 15.061-33.451l0.043-0.043c4.352-3.84 9.344-7.125 14.763-9.557l0.384-0.128c5.035-2.091 10.923-3.285 17.067-3.285 0.469 0 0.939 0 1.365 0h-0.085c0.256 0 0.555 0 0.811 0 5.931 0 11.563 1.195 16.725 3.371l-0.299-0.085c5.803 2.603 10.795 5.845 15.232 9.771l128.512 128.512 128.555-128.555c4.011-4.096 8.875-7.381 14.293-9.6l0.299-0.085c5.12-2.048 11.051-3.285 17.237-3.285 0.213 0 0.427 0 0.64 0h-0.043c0.043 0 0.085 0 0.128 0 6.741 0 13.184 1.195 19.115 3.371l-0.384-0.128c5.845 1.92 10.795 5.291 14.592 9.643l0.043 0.043c8.576 8.576 13.909 20.395 14.037 33.451v0.043c-0.043 12.757-5.419 24.277-14.037 32.384h-0.043l-128.597 128.555 128.555 128.555c8.491 8.448 13.824 20.053 14.037 32.896v0.043zM929.024 473.387c-6.485 35.029-15.829 66.005-28.16 95.445l1.152-3.072c-13.696 32.981-28.928 61.227-46.592 87.68l1.152-1.835c-19.584 28.629-40.192 53.717-62.763 76.843l0.128-0.128c-22.869 22.869-47.957 43.52-74.965 61.525l-1.792 1.109c-24.832 16.256-53.333 31.317-83.285 43.605l-3.413 1.237c-26.411 10.837-57.813 20.352-90.24 26.965l-3.499 0.597c-28.885 5.504-62.080 8.619-96.043 8.619-0.043 0-0.085 0-0.128 0v0c-0.683 0.043-1.536 0.043-2.347 0.043-12.331 0-23.552-4.992-31.659-13.013v0c-7.68-8.277-12.416-19.413-12.416-31.616 0-0.64 0-1.28 0.043-1.963v0.085c-0.043-0.555-0.043-1.195-0.043-1.835 0-12.245 4.736-23.381 12.459-31.659l-0.043 0.043c8.149-8.064 19.328-13.013 31.659-13.013 0.811 0 1.664 0.043 2.475 0.085h-0.128c0.256 0 0.555 0 0.853 0 55.296 0 107.904-11.307 155.733-31.787l-2.603 0.981c51.413-21.675 95.317-51.371 132.352-88.021l-0.043 0.043c36.779-36.608 66.389-80.427 86.528-129.195l0.939-2.603c19.115-45.525 30.208-98.432 30.208-153.941 0-0.171 0-0.341 0-0.555v0.043c0-0.341 0-0.725 0-1.152 0-6.272 1.408-12.203 3.925-17.493l-0.085 0.256c5.291-10.453 13.696-18.688 24.021-23.595l0.299-0.128c5.376-2.603 11.648-4.139 18.304-4.139 0.384 0 0.768 0 1.152 0h-0.043c0.597-0.043 1.323-0.043 2.091-0.043 24.533 0 44.416 19.883 44.416 44.416 0 0.725 0 1.451-0.043 2.176v-0.085c0 0.384 0 0.811 0 1.237 0 34.645-3.499 68.48-10.112 101.205l0.555-3.243z" />
<glyph unicode="&#xe924;" glyph-name="onboarding" data-tags="onboarding" d="M187.733 166.4l64 64c8.533 8.533 8.533 21.333 0 29.867s-21.333 8.533-29.867 0l-64-64c-8.533-8.533-8.533-21.333 0-29.867s21.333-8.533 29.867 0zM273.067 166.4l-110.933-110.933c-8.533-8.533-8.533-21.333 0-29.867s21.333-8.533 29.867 0c0 0 0 0 0 0l110.933 110.933c8.533 8.533 8.533 21.333 0 29.867s-21.333 8.533-29.867 0zM699.733 388.267l123.733 123.733c132.267 132.267 115.2 362.667 115.2 362.667s-234.667 17.067-366.933-119.467l-119.467-119.467c-93.867-8.533-183.467-51.2-256-115.2l-25.6-25.6 72.533-72.533-29.867-25.6 247.467-247.467 25.6 25.6 72.533-72.533 25.6 25.6c64 72.533 106.667 162.133 115.2 260.267zM708.267 452.267l-247.467-247.467-187.733 192 332.8 332.8c85.333 85.333 226.133 102.4 290.133 102.4 0-68.267-17.067-204.8-106.667-294.4l-81.067-85.333zM516.267 576c-34.133-34.133-34.133-89.6 0-119.467 34.133-34.133 89.6-34.133 119.467 0 34.133 34.133 34.133 85.333 0 119.467-29.867 34.133-81.067 34.133-119.467 0 4.267 0 4.267 0 0 0zM610.133 486.4c-17.067-17.067-42.667-17.067-59.733 0s-17.067 42.667 0 59.733c0 0 0 0 0 0 17.067 17.067 42.667 17.067 59.733 0s17.067-42.667 0-59.733z" />
<glyph unicode="&#xe925;" glyph-name="ongoing-installation" data-tags="ongoing-installation" d="M760.704 19.243c-40.832 0-81.664 14.848-116.949 40.832-44.544 35.285-70.528 89.088-70.528 144.768 0 9.301 0 22.272 1.877 33.408l-92.8 92.8-22.272-22.272c3.712-29.696-7.424-63.104-29.696-85.376l-170.752-170.752c-20.395-20.437-48.256-31.573-76.117-29.696-27.861 0-55.68 12.971-74.24 35.285-37.12 40.832-31.573 103.936 9.301 144.768l165.205 165.205c22.272 22.272 53.845 33.408 85.376 29.696l24.149 24.149-90.965 90.965c-59.392-13.013-120.661 3.712-165.205 48.256-48.256 46.421-66.816 115.072-48.256 178.176l9.301 35.285 92.8-81.664c24.149-24.149 59.392-24.149 81.664-1.877 11.136 11.136 16.683 25.984 16.683 40.832s-5.589 29.696-16.683 40.832l-89.088 89.088 40.832 9.301c55.68 12.971 115.072 0 159.616-35.285s70.528-89.088 70.528-144.768c0-11.136-1.877-18.56-1.877-25.984 0-1.877 0-3.712 0-5.589l85.376-92.8 76.117 76.117 50.133 131.797 161.493 92.8c20.437 9.301 42.709 5.589 55.68-7.424l48.256-48.256c12.971-12.971 11.136-35.285 3.712-51.968l-1.877-1.877-96.512-155.904-128.085-46.421-76.117-76.117 92.8-92.8c1.877 0 3.712 0 5.589 0 7.424 1.877 16.725 1.877 25.984 1.877 57.557 0 111.36-25.984 148.48-74.24 35.285-46.421 48.256-105.813 31.573-161.493l-11.136-38.997-89.088 89.088c-22.272 22.272-57.557 22.272-79.829 0-11.136-11.136-16.683-25.984-16.683-40.832s5.589-29.696 16.683-40.832l89.088-89.088-40.832-9.301c-12.971-1.877-27.861-3.712-42.709-3.712zM484.139 396.032l144.768-144.768-5.589-13.013c-3.712-9.301-3.712-22.272-3.712-33.408 0-42.709 18.56-81.664 53.845-107.648 22.272-16.725 46.421-27.861 74.24-29.696l-24.149 24.149c-20.437 20.437-31.573 46.421-31.573 72.405 0 27.861 11.136 53.845 31.573 72.405 20.437 20.437 46.421 31.573 72.405 31.573 27.861 0 53.845-11.136 72.405-31.573l25.984-25.984c-1.877 27.861-11.136 53.845-29.696 77.952-27.861 35.285-66.816 55.68-111.36 55.68-7.424 0-12.971-1.877-20.437-1.877-7.424-1.877-13.013-1.877-20.437-1.877h-9.301l-141.056 141.056 116.949 116.949 122.496 42.709 90.965 141.056c0 0 0 0 0 1.877l-44.544 44.544-146.645-85.376-48.256-126.208-116.949-116.949-131.797 141.056v9.301c0 7.424 1.877 14.848 1.877 20.395 1.877 7.424 1.877 12.971 1.877 20.395 0 42.709-18.56 81.664-53.845 107.648-22.272 16.725-46.421 27.861-74.24 29.696l24.149-24.149c20.395-20.437 31.573-46.421 31.573-72.405 0-27.861-11.136-53.845-31.573-72.405-20.395-20.437-46.421-31.573-72.405-31.573-27.861 0-53.845 11.136-72.405 31.573l-31.573 27.861c1.877-35.285 14.848-68.693 40.832-92.8 35.285-35.285 85.376-46.421 131.797-33.408l13.013 3.712 142.933-142.933-74.24-74.24-13.013 3.712c-20.395 5.589-38.997 0-53.845-14.848l-165.205-165.205c-24.149-24.149-25.984-59.392-7.424-81.664 11.136-12.971 25.984-18.56 40.832-20.437 14.848 0 29.696 5.589 42.709 16.725l170.752 170.752c13.013 13.013 20.437 37.12 14.848 53.845l-3.712 12.971 76.117 72.405z" />
<glyph unicode="&#xe926;" glyph-name="operator" data-tags="operator" d="M753.92 647.083c-29.312 29.781-63.744 54.4-101.888 72.491l-2.176 0.939c-18.176 8.661-39.424 15.957-61.525 20.821l-2.005 0.384c-20.011 4.651-43.264 7.68-67.115 8.491h-9.088c-0.469 0-0.981 0-1.536 0-23.637 0-46.677-2.603-68.864-7.552l2.091 0.384c-24.149-5.077-45.269-11.861-65.408-20.565l2.176 0.853c-31.36-13.611-58.411-30.421-82.56-50.645l0.512 0.427c-24.277-20.523-45.397-43.605-63.36-69.035l-0.768-1.152c-17.493-25.557-32.341-54.912-43.179-86.144l-0.768-2.603c-9.941-29.867-16.384-64.341-17.877-100.096l-0.043-0.768v-8.277c0-0.384 0-0.853 0-1.28 0-32.085 4.437-63.104 12.672-92.544l-0.597 2.389c8.533-31.019 20.181-58.155 34.987-83.2l-0.853 1.579 23.723 15.744c-11.989 21.333-22.187 45.995-29.355 71.979l-0.555 2.347c-7.125 24.363-11.221 52.309-11.221 81.237 0 0.768 0 1.536 0 2.304v-0.128 7.168c0.256 43.904 9.984 85.504 27.221 122.923l-0.768-1.835c16.981 38.272 39.637 70.955 67.328 98.645v0c13.312 13.525 27.989 25.643 43.819 36.139l1.024 0.64c14.72 10.283 31.488 19.84 49.109 27.861l2.005 0.811c16.597 7.168 36.181 13.525 56.533 17.963l2.176 0.384c18.731 3.968 40.277 6.272 62.336 6.272h7.595c22.4-0.555 43.819-3.285 64.512-8.021l-2.176 0.427c22.016-5.035 41.301-11.819 59.52-20.48l-1.749 0.725c28.245-13.227 52.608-29.099 74.411-47.872l-0.427 0.341c22.144-19.115 41.216-40.832 57.088-64.896l0.725-1.152c15.403-23.595 28.501-50.773 37.888-79.616l0.683-2.432c8.491-27.477 13.397-59.093 13.397-91.819 0-0.469 0-0.939 0-1.408v0.085-7.851c-0.853-86.144-36.565-163.797-93.653-219.648l-0.043-0.043c-13.312-13.227-27.819-25.301-43.349-36.053l-1.067-0.683c-14.677-10.155-31.488-19.584-49.109-27.477l-2.005-0.811c-16.725-7.424-36.395-13.781-56.789-18.048l-1.963-0.341c-18.688-4.267-40.192-6.741-62.251-6.741-0.171 0-0.384 0-0.555 0h-7.211c-23.339 0.896-45.525 3.925-66.901 9.003l2.347-0.469c-22.656 5.248-42.539 12.501-61.227 21.76l1.621-0.725c-37.675 17.877-69.675 41.685-96.213 70.613l-0.213 0.213-21.12-18.389c14.933-15.744 30.891-30.123 47.915-43.264l0.981-0.725c16.384-12.203 34.944-23.339 54.571-32.555l2.005-0.853c18.517-8.789 40.32-16.64 62.976-22.315l2.517-0.555c20.821-5.163 44.885-8.405 69.589-8.96h8.661c0.171 0 0.384 0 0.64 0 23.936 0 47.317 2.432 69.888 7.040l-2.219-0.384c24.448 5.035 45.909 11.819 66.347 20.565l-2.219-0.853c31.019 13.909 57.771 30.805 81.707 50.901l-0.555-0.427c49.195 41.429 86.699 95.232 107.776 156.672l0.725 2.475c10.411 29.909 16.64 64.384 17.024 100.267v9.6c0 0.768 0 1.707 0 2.603 0 46.507-9.557 90.752-26.837 130.944l0.811-2.176c-17.963 41.813-41.643 77.653-70.571 108.544l0.213-0.213zM921.6 476.715c-5.163 2.773-11.349 5.547-17.792 7.936l-1.067 0.341c-1.365 9.813-2.688 20.139-4.48 30.037-6.443 28.587-14.592 53.419-24.832 77.141l1.067-2.816c-10.965 26.155-23.125 48.555-37.248 69.547l0.896-1.408c-14.805 22.357-30.763 41.856-48.427 59.648v0c-17.152 17.451-35.755 33.323-55.68 47.573l-1.28 0.853c-18.987 13.013-40.747 25.387-63.531 35.968l-2.816 1.195c-21.419 9.557-46.635 17.749-72.789 23.339l-2.56 0.469c-24.32 5.12-52.267 8.064-80.939 8.064s-56.619-2.944-83.584-8.491l2.645 0.469c-28.629-5.931-53.845-14.123-77.739-24.704l2.432 0.939c-70.741-31.701-128.811-80.853-170.411-142.080l-0.896-1.408c-20.139-30.464-37.291-65.493-49.579-102.699l-0.896-3.115c-6.528-19.797-11.861-43.307-15.019-67.456l-0.213-2.005c-4.139-1.835-8.491-3.584-13.44-6.272-12.117-6.741-17.92-13.909-17.92-21.973l5.333-138.581c0.469-8.064 7.168-14.763 19.755-20.181 2.005-1.067 4.352-2.133 6.827-3.029l0.384-0.128c0.427-3.584 0.427-7.125 0.853-10.752q2.731-35.669 8.277-68.608c3.883-23.253 9.344-43.776 16.469-63.488l-0.768 2.475c1.024-1.92 1.92-4.139 2.603-6.485l0.043-0.256c0.597-2.048 1.493-3.84 2.731-5.419l-0.043 0.043c0.725-1.024 1.365-2.219 1.792-3.499l0.043-0.085c0.555-1.024 1.152-1.92 1.792-2.731l-0.043 0.043c1.28-1.877 2.773-3.499 4.48-4.907l0.043-0.043c1.323-0.853 3.157-2.219 4.907-3.541 0.768-0.597 1.664-1.067 2.645-1.365h0.043c1.024-0.256 1.92-0.725 2.688-1.365v0c0.213 0 0.469 0.043 0.768 0.043 1.024 0 2.005-0.171 2.901-0.469h-0.085c0.853-0.299 1.792-0.469 2.816-0.469 0.128 0 0.256 0 0.341 0v0h0.896c1.963 0.085 3.797 0.427 5.547 0.896l-0.171-0.043c1.835 0.469 3.584 1.365 5.419 1.835s2.688 1.323 4.139 2.219c1.237 0.768 2.731 1.493 4.267 2.133l0.213 0.085c2.219 2.261 4.48 4.139 6.741 6.272l5.803 5.845c4.267 4.309 8.32 8.832 12.117 13.525l0.256 0.341c4.139 4.949 8.491 9.856 13.44 15.701l21.504 22.869c7.253 7.765 15.147 14.72 23.765 20.779l0.469 0.299c4.48 2.688 8.96 4.907 13.013 7.595 3.755 2.048 8.32 4.181 13.056 5.973l0.811 0.299c4.181 1.579 9.429 3.115 14.805 4.352l0.896 0.171c3.456 0.853 7.467 1.323 11.563 1.323 0.043 0 0.085 0 0.128 0v0c3.755-8.064 9.387-14.72 16.341-19.584l0.171-0.085c12.544-8.704 28.075-13.909 44.843-13.909 0.469 0 0.939 0 1.451 0h-0.085c0.597 0 1.237-0.043 1.92-0.043 16.555 0 31.915 5.205 44.501 14.123l-0.256-0.171q18.816 14.123 18.816 32.299c0 13.013-6.272 23.723-18.816 32.683s-27.819 13.013-46.208 13.013c-0.853 0.043-1.835 0.043-2.859 0.043-16.128 0-31.147-4.864-43.605-13.227l0.299 0.171c-6.528-4.181-11.733-9.941-15.147-16.768l-0.128-0.256c-0.085 0-0.171 0-0.256 0-5.461 0-10.795-0.512-15.957-1.451l0.555 0.085c-6.613-0.939-12.501-2.389-18.176-4.352l0.683 0.213c-10.155-3.456-18.901-7.552-27.093-12.459l0.64 0.341c-8.832-5.205-16.469-10.667-23.552-16.725l0.256 0.213c-5.589-4.309-10.581-8.704-15.232-13.397l-14.379-14.379c-3.157-3.584-5.803-7.168-8.96-10.795s-5.803-7.125-8.491-10.283c-2.219-2.261-4.48-4.48-6.272-6.741-1.749-2.091-3.499-4.011-5.333-5.803v0c-2.048-2.859-4.267-5.333-6.699-7.595l-0.043-0.043c-2.261-2.219-4.949-4.48-7.168-6.272-0.896-0.896-1.365-1.365-1.835-1.365s-0.853-0.853-1.323-0.853-0.469 0-0.469 0.427c-0.896 0.469-0.896 0.896-0.896 1.835-0.853 1.323-1.323 2.219-2.219 3.584-0.469 1.365-1.067 2.56-1.792 3.627l0.043-0.043c-5.461 15.915-10.453 35.371-13.995 55.296l-0.384 2.517c-3.669 18.304-6.656 40.704-8.405 63.488l-0.128 1.963c0 1.835-0.469 3.157-0.469 4.949 6.315 1.237 11.691 4.437 15.659 8.917l0.043 0.043c4.736 4.864 7.68 11.52 7.68 18.859 0 0.469 0 0.896-0.043 1.365v-0.043 1.835l-5.419 138.112c0 0.085 0 0.171 0 0.299 0 7.808-3.243 14.848-8.491 19.84v0c-2.517 2.56-5.717 4.437-9.259 5.376l-0.128 0.043c1.024 9.557 2.475 18.005 4.395 26.24l-0.299-1.451c5.291 26.325 12.757 49.579 22.528 71.552l-0.853-2.133c10.325 24.448 21.376 45.227 34.048 64.896l-1.024-1.664c14.123 20.992 29.056 39.296 45.483 56.149l-0.085-0.085c16.043 16.128 33.621 30.72 52.437 43.563l1.237 0.811c17.579 12.331 37.632 23.851 58.709 33.536l2.432 0.981c20.053 9.259 43.435 16.981 67.84 21.931l2.091 0.341c22.656 5.205 48.64 8.235 75.349 8.277v0c0.128 0 0.256 0 0.384 0 26.581 0 52.437-3.029 77.269-8.704l-2.304 0.427c26.496-5.376 49.877-13.099 71.979-23.253l-2.005 0.853c34.091-15.403 63.488-34.133 89.771-56.491l-0.512 0.427c26.539-22.485 49.621-47.829 69.12-75.861l0.853-1.28c18.688-28.373 34.517-61.056 45.824-95.744l0.811-2.901c5.973-17.792 10.667-38.741 13.312-60.373l0.171-1.579c-1.92-0.981-3.541-2.176-4.949-3.584v0c-5.163-5.077-8.533-11.989-8.96-19.669v-0.085l-8.491-138.069v-2.731c0-0.043 0-0.085 0-0.128 0-7.637 3.072-14.549 8.064-19.584v0c4.864-5.589 11.819-9.301 19.627-9.856h0.085c11.136 0.085 21.589 2.731 30.933 7.339l-0.427-0.171c12.373 4.949 19.243 11.691 19.712 19.755l8.533 138.581c0.469 8.235-4.949 15.403-17.067 22.144z" />
<glyph unicode="&#xe927;" glyph-name="password-key" data-tags="password-key" d="M938.667 469.333h-597.333c-10.581 60.928-63.061 106.667-126.208 106.667-70.699 0-128-57.301-128-128s57.301-128 128-128c63.147 0 115.627 45.739 126.080 105.899l0.128 0.768h384v-106.667h128v106.667h85.333zM213.333 362.667c-47.147 0-85.333 38.187-85.333 85.333s38.187 85.333 85.333 85.333c47.147 0 85.333-38.187 85.333-85.333v0c0-47.147-38.187-85.333-85.333-85.333v0z" />
<glyph unicode="&#xe928;" glyph-name="pause" data-tags="pause" d="M384 618.667h85.333v-341.333h-85.333v341.333zM554.667 618.667h85.333v-341.333h-85.333v341.333zM512 874.667c-235.648 0-426.667-191.019-426.667-426.667s191.019-426.667 426.667-426.667c235.648 0 426.667 191.019 426.667 426.667v0c0 235.648-191.019 426.667-426.667 426.667v0zM512 64c-212.096 0-384 171.904-384 384s171.904 384 384 384c212.096 0 384-171.904 384-384v0c0-212.096-171.904-384-384-384v0z" />
<glyph unicode="&#xe929;" glyph-name="pending" data-tags="pending" d="M680.491 717.099h-137.472l116.224 116.267c9.6 9.6 9.6 25.259 0 34.859s-25.301 9.643-34.901 0l-158.336-158.336c-2.304-2.304-4.096-5.035-5.333-7.979-1.28-3.029-1.92-6.229-1.92-9.472s0.64-6.443 1.92-9.429c1.237-3.029 3.072-5.76 5.333-8.064l151.253-151.296c4.821-4.821 11.136-7.211 17.408-7.211s12.672 2.389 17.493 7.211c9.643 9.6 9.643 25.259 0 34.859l-109.227 109.227h137.557c61.269 0 111.104-49.835 111.104-111.019v-217.557c0-61.184-49.835-111.019-111.104-111.019-13.611 0-24.661-11.051-24.661-24.704s11.051-24.661 24.661-24.661c88.491 0 160.512 71.979 160.512 160.427v217.472c-0.043 88.448-72.021 160.384-160.512 160.384zM560.341 212.907c-1.28 2.987-3.115 5.76-5.376 8.021l-151.253 151.253c-9.6 9.6-25.259 9.6-34.859 0s-9.6-25.301 0-34.901l109.141-109.141h-137.557c-61.269 0-111.061 49.835-111.061 111.019v217.515c0 61.184 49.835 110.976 111.061 110.976 13.611 0 24.661 11.051 24.661 24.661s-11.051 24.704-24.661 24.704c-88.448 0-160.427-71.893-160.427-160.341v-217.557c0-88.405 72.021-160.427 160.427-160.427h137.515l-116.224-116.224c-9.6-9.6-9.6-25.301 0-34.901 4.821-4.821 11.136-7.168 17.408-7.168s12.629 2.347 17.408 7.168l158.379 158.379c2.261 2.304 4.053 5.035 5.376 7.979 2.517 6.144 2.517 12.971 0.085 18.987z" />
<glyph unicode="&#xe92a;" glyph-name="picture" data-tags="picture" d="M858.837 783.232h-693.675c-45.824 0-82.944-37.163-82.944-82.944v-504.491c0-45.824 37.163-82.944 82.944-82.944h693.675c45.824 0 82.944 37.163 82.944 82.944v504.491c0 45.824-37.163 82.944-82.944 82.944zM887.851 195.712c0-16-13.056-29.056-29.056-29.056h-693.675c-16 0-29.056 13.056-29.056 29.056v504.491c0 16 13.056 29.056 29.056 29.056h693.675c16 0 29.056-13.056 29.056-29.056v-504.491zM302.208 509.44c37.547 0 68.053 30.549 68.053 68.053s-30.549 68.053-68.053 68.053c-37.547 0-68.053-30.549-68.053-68.053s29.696-68.053 68.053-68.053zM753.877 525.184c-14.848 14.848-35.797 23.595-56.747 23.595-21.803 0-41.899-8.747-56.747-23.595l-360.533-359.68h644.267v188.587l-170.24 171.093zM888.235 168.448h-527.787l295.339 294.656c12.16 12.16 28.587 19.285 46.507 19.285 17.152 0 34.347-7.125 46.507-19.285l139.435-140.16v-154.496zM233.472 383.915c0 0 28.843 42.283 71.083 0l115.883-81.152-31.659-32.171 56.192 56.192-140.501 95.147c-23.595 23.595-61.099 23.595-84.693 0l-85.035-88.363v-167.381l0.171 119.253 98.517 98.517z" />
<glyph unicode="&#xe92b;" glyph-name="play" data-tags="play" d="M384 273.92l341.333 172.373-341.333 172.373v-344.747zM512 874.667c-235.648 0-426.667-191.019-426.667-426.667s191.019-426.667 426.667-426.667c235.648 0 426.667 191.019 426.667 426.667v0c0 235.648-191.019 426.667-426.667 426.667v0zM512 64c-212.096 0-384 171.904-384 384s171.904 384 384 384c212.096 0 384-171.904 384-384v0c0-212.096-171.904-384-384-384v0z" />
<glyph unicode="&#xe92c;" glyph-name="plus" data-tags="plus" d="M853.333 490.667h-298.667v298.667h-85.333v-298.667h-298.667v-85.333h298.667v-298.667h85.333v298.667h298.667v85.333z" />
<glyph unicode="&#xe92d;" glyph-name="power" data-tags="power" d="M298.027 719.275c-15.061 16.043-40.277 16.853-56.32 1.877-79.744-74.581-125.44-179.925-125.44-289.024 0-218.197 177.536-395.776 395.776-395.776s395.691 177.536 395.691 395.776c0 105.813-41.173 205.184-115.883 279.765-15.573 15.573-40.789 15.573-56.32 0-15.531-15.616-15.531-40.832 0.043-56.32 59.648-59.605 92.501-138.965 92.501-223.445 0-174.293-141.781-316.075-316.032-316.075s-316.075 141.824-316.075 316.075c0 88.363 35.584 170.368 100.181 230.827 16.085 15.061 16.896 40.235 1.877 56.32zM551.851 412.715v407.083c0 21.973-17.835 39.851-39.808 39.851s-39.851-17.835-39.851-39.851v-407.083c0-21.973 17.835-39.851 39.851-39.851s39.808 17.835 39.808 39.851z" />
<glyph unicode="&#xe92e;" glyph-name="question-mark" data-tags="question-mark" d="M610.133 688.64c19.755-9.515 35.755-24.149 46.677-42.197l0.256-0.469c9.899-15.573 15.787-34.517 15.787-54.869 0-0.213 0-0.427 0-0.64v0.043c0.043-1.024 0.043-2.261 0.043-3.499 0-15.915-3.499-30.976-9.728-44.544l0.256 0.683c-6.144-12.416-13.995-22.997-23.424-31.957l-0.043-0.043c-11.008-9.941-22.955-19.456-35.499-28.245l-1.195-0.768c-17.152-11.221-32-23.893-45.056-38.229l-0.171-0.171c-9.387-11.605-15.061-26.539-15.061-42.752 0-1.451 0.043-2.901 0.128-4.352v0.213-32.427h-65.28v35.84c-0.043 1.152-0.043 2.517-0.043 3.84 0 17.621 3.797 34.304 10.624 49.365l-0.299-0.768c6.187 13.483 14.507 24.96 24.704 34.517l0.043 0.043c11.307 9.941 23.723 19.627 36.651 28.544l1.323 0.896c15.275 9.387 28.416 20.096 40.021 32.341l0.085 0.085c8.235 9.045 13.312 21.163 13.312 34.432 0 0.939-0.043 1.877-0.085 2.816v-0.128c0.043 0.981 0.085 2.091 0.085 3.243 0 16.981-7.637 32.171-19.627 42.325l-0.085 0.085c-13.355 10.197-30.293 16.341-48.64 16.341-1.493 0-2.987-0.043-4.48-0.128h0.213c-40.917-0.555-77.056-20.608-99.584-51.285l-0.256-0.341-45.227 36.267c34.859 43.563 88.021 71.253 147.627 71.253 0.597 0 1.195 0 1.792 0h-0.085c1.237 0.043 2.688 0.043 4.096 0.043 25.429 0 49.536-5.675 71.125-15.829l-1.024 0.427zM547.84 277.333c8.96-8.491 14.507-20.48 14.507-33.749 0-0.427 0-0.853 0-1.28v0.043c0-27.819-22.528-50.347-50.347-50.347v0c-0.213 0-0.427 0-0.64 0-13.525 0-25.728 5.717-34.304 14.891l-0.043 0.043c-8.96 8.704-14.507 20.864-14.507 34.304 0 0.384 0 0.768 0 1.152v-0.043c0 27.349 22.144 49.493 49.493 49.493v0c0.512 0 1.109 0.043 1.707 0.043 13.397 0 25.515-5.589 34.133-14.507v0zM512 832c212.096 0 384-171.904 384-384s-171.904-384-384-384c-212.096 0-384 171.904-384 384v0c0 212.096 171.904 384 384 384v0zM512 874.667c-235.648 0-426.667-191.019-426.667-426.667s191.019-426.667 426.667-426.667c235.648 0 426.667 191.019 426.667 426.667v0c0 235.648-191.019 426.667-426.667 426.667v0z" />
<glyph unicode="&#xe92f;" glyph-name="radio-button" data-tags="radio-button" d="M678.101 841.088c102.357-44.757 182.357-124.757 226.005-224.299l1.109-2.773c21.205-49.024 33.579-106.112 33.579-166.101s-12.331-117.077-34.645-168.875l1.067 2.773c-44.757-102.357-124.757-182.357-224.299-226.005l-2.773-1.109c-49.024-21.205-106.112-33.579-166.101-33.579s-117.077 12.331-168.875 34.645l2.773-1.067c-52.779 22.741-97.835 53.76-135.68 91.904l-0.043 0.043c-37.632 37.973-68.352 82.816-90.155 132.437l-1.109 2.816c-21.205 49.024-33.579 106.112-33.579 166.101s12.331 117.077 34.645 168.875l-1.067-2.773c22.912 52.523 53.632 97.365 91.264 135.381l-0.043-0.043c37.888 38.059 82.944 68.992 132.949 90.624l2.773 1.067c49.024 21.205 106.112 33.579 166.101 33.579s117.077-12.331 168.875-34.645l-2.773 1.067zM657.451 101.973c46.464 20.181 86.187 47.403 119.765 80.811v0c33.195 33.237 60.117 72.704 78.976 116.48l0.939 2.432c18.944 43.093 29.952 93.355 29.952 146.176s-11.008 103.083-30.891 148.565l0.939-2.389c-19.797 46.251-46.805 85.76-80.043 119.040v0c-33.536 33.365-73.259 60.629-117.248 79.829l-2.475 0.981c-43.051 18.347-93.141 29.013-145.707 29.013s-102.656-10.667-148.224-29.952l2.475 0.939c-89.899-39.552-160.213-109.824-198.827-197.248l-0.981-2.475c-18.347-43.179-29.013-93.44-29.013-146.176s10.667-102.955 29.952-148.693l-0.939 2.517c39.552-89.856 109.867-160.171 197.248-198.741l2.432-0.981c43.051-18.347 93.141-29.013 145.707-29.013s102.656 10.667 148.224 29.952l-2.475-0.939zM594.56 644.224c26.496-10.88 49.109-26.283 67.883-45.397l0.043-0.043c18.773-19.2 34.176-41.771 45.141-66.773l0.555-1.451c10.837-23.765 17.152-51.541 17.152-80.811 0-0.64 0-1.237 0-1.877v0.085c0-0.341 0-0.768 0-1.152 0-29.781-6.315-58.112-17.664-83.669l0.512 1.323c-11.733-26.112-27.093-48.427-45.824-67.456l0.043 0.043c-18.816-19.157-41.429-34.517-66.603-44.928l-1.323-0.469c-23.765-10.837-51.541-17.152-80.811-17.152-0.64 0-1.237 0-1.877 0h0.085c-0.341 0-0.768 0-1.152 0-29.781 0-58.112 6.315-83.669 17.664l1.323-0.512c-51.072 21.76-90.923 61.611-112.171 111.317l-0.512 1.365c-10.795 24.192-17.067 52.48-17.067 82.176 0 0.555 0 1.067 0 1.621v-0.085c0 0.512 0 1.152 0 1.749 0 29.269 6.315 57.045 17.664 82.048l-0.512-1.237c11.008 26.667 26.368 49.408 45.44 68.48v0c18.816 18.901 41.216 34.219 66.048 44.885l1.365 0.512c24.107 10.667 52.224 16.896 81.792 16.896 0.555 0 1.109 0 1.664 0h-0.085c0.512 0 1.152 0 1.749 0 29.269 0 57.045-6.315 82.048-17.664l-1.237 0.512z" />
<glyph unicode="&#xe930;" glyph-name="rearrange" data-tags="rearrange" d="M333.653 121.003h-180.224c-26.027 0-38.997 20.437-38.997 38.997v575.957c0 18.56 14.848 38.997 38.997 38.997h278.699v-38.997h-278.699v-575.957h178.347v-38.997zM337.365 115.413h-183.936c-29.739 0-44.587 22.315-44.587 44.587v575.957c0 22.315 14.848 44.587 44.587 44.587h284.245v-48.299h-278.699v-566.656h178.347v-50.176zM153.429 771.285c-22.315 0-35.285-18.56-35.285-35.285v-575.957c0-16.725 13.013-35.285 35.285-35.285h174.635v29.739h-178.347v587.093h278.699v29.739h-274.987zM264.917 20.693c-5.589 0-9.301 1.877-14.848 5.589-7.424 7.424-7.424 20.437 0 27.861l79.872 79.872c1.877 1.877 5.589 5.589 0 11.136l-79.872 79.872c-7.424 7.424-7.424 20.437 0 27.861s20.437 7.424 27.861 0l79.872-79.872c13.013-13.013 24.149-42.752 0-68.736l-79.872-79.872c-3.712-1.877-7.424-3.712-13.013-3.712zM264.917 16.981c-7.424 0-13.013 1.877-16.725 7.424s-7.424 11.136-7.424 16.725c0 7.424 1.877 13.013 7.424 16.725l79.872 79.872c1.877 1.877 1.877 1.877 0 5.589l-79.872 79.872c-3.712 3.712-7.424 11.136-7.424 16.725 0 7.424 1.877 13.013 7.424 16.725 9.301 9.301 26.027 9.301 35.285 0l79.872-79.872c9.301-9.301 14.848-20.437 14.848-31.573 1.877-11.136 0-26.027-14.848-42.752l-79.872-79.872c-5.589-3.712-13.013-5.589-18.56-5.589zM264.917 254.763c-3.712 0-7.424-1.877-11.136-3.712-5.589-5.589-5.589-14.848 0-22.315l79.872-79.872c9.301-9.301 1.877-16.725 0-18.56l-79.872-79.872c-3.712-3.712-3.712-7.424-3.712-11.136s1.877-7.424 3.712-11.136c5.589-5.589 14.848-5.589 22.315 0l79.872 79.872c9.301 9.301 14.848 22.315 13.013 33.451-1.877 9.301-5.589 20.437-13.013 27.861l-79.872 79.872c-3.712 3.712-7.424 5.589-11.136 5.589zM512 656.085c-53.888 0-98.475 44.587-98.475 98.475s44.587 98.475 98.475 98.475 98.475-44.587 98.475-98.475-44.587-98.475-98.475-98.475zM512 815.872c-33.451 0-59.435-26.027-59.435-59.435s26.027-59.435 59.435-59.435 59.435 26.027 59.435 59.435-26.027 59.435-59.435 59.435zM512 652.373c-57.6 0-104.064 46.464-104.064 104.064s46.464 104.064 104.064 104.064c57.6 0 104.064-46.464 104.064-104.064s-46.464-104.064-104.064-104.064zM512 851.157c-52.011 0-94.763-42.752-94.763-94.763s42.752-94.763 94.763-94.763 94.763 42.752 94.763 94.763-42.752 94.763-94.763 94.763zM512 691.371c-35.285 0-65.024 29.739-65.024 65.024s29.739 63.189 65.024 63.189c35.285 0 65.024-29.739 65.024-65.024 0-33.451-29.739-63.189-65.024-63.189zM512 810.283c-29.739 0-55.723-24.149-55.723-55.723s24.149-55.723 55.723-55.723 55.723 24.149 55.723 55.723-26.027 55.723-55.723 55.723zM512 41.131c-53.888 0-98.475 44.587-98.475 98.475s44.587 98.475 98.475 98.475 98.475-44.587 98.475-98.475c0-53.888-44.587-98.475-98.475-98.475zM512 199.040c-33.451 0-59.435-26.027-59.435-59.435s26.027-59.435 59.435-59.435 59.435 26.027 59.435 59.435c0 33.451-26.027 59.435-59.435 59.435zM512 35.541c-57.6 0-104.064 46.464-104.064 104.064s46.464 104.064 104.064 104.064c57.6 0 104.064-46.464 104.064-104.064s-46.464-104.064-104.064-104.064zM512 234.325c-52.011 0-94.763-42.752-94.763-94.763s42.752-94.763 94.763-94.763 94.763 42.752 94.763 94.763-42.752 94.763-94.763 94.763zM512 76.416c-35.285 0-65.024 29.739-65.024 65.024s29.739 65.024 65.024 65.024c35.285 0 65.024-29.739 65.024-65.024 0-37.163-29.739-65.024-65.024-65.024zM512 195.328c-29.739 0-55.723-24.149-55.723-55.723s24.149-55.723 55.723-55.723 55.723 24.149 55.723 55.723-26.027 55.723-55.723 55.723zM512 338.389c-53.888 0-98.475 44.587-98.475 98.475s44.587 98.475 98.475 98.475 98.475-44.587 98.475-98.475-44.587-98.475-98.475-98.475zM512 498.176c-33.451 0-59.435-26.027-59.435-59.435s26.027-59.435 59.435-59.435 59.435 26.027 59.435 59.435c0 31.573-26.027 59.435-59.435 59.435zM512 334.677c-57.6 0-104.064 46.464-104.064 104.064s46.464 104.064 104.064 104.064c57.6 0 104.064-46.464 104.064-104.064s-46.464-104.064-104.064-104.064zM512 533.461c-52.011 0-94.763-42.752-94.763-94.763s42.752-94.763 94.763-94.763 94.763 42.752 94.763 94.763-42.752 94.763-94.763 94.763zM512 373.675c-35.285 0-65.024 29.739-65.024 65.024s29.739 65.024 65.024 65.024c35.285 0 65.024-29.739 65.024-65.024s-29.739-65.024-65.024-65.024zM512 492.587c-29.739 0-55.723-24.149-55.723-55.723s24.149-55.723 55.723-55.723 55.723 24.149 55.723 55.723-26.027 55.723-55.723 55.723zM870.571 121.003h-278.699v38.997h278.699v575.957h-178.347v40.875h178.347c26.027 0 38.997-20.437 38.997-38.997v-575.957c0-20.437-14.848-40.875-38.997-40.875zM870.571 115.413h-284.245v48.299h278.699v568.533h-178.347v48.299h183.936c29.739 0 44.587-22.315 44.587-44.587v-575.957c-1.877-22.315-16.725-44.587-44.587-44.587zM595.627 124.715h273.109c22.315 0 35.285 18.56 35.285 35.285v575.957c0 16.725-13.013 35.285-35.285 35.285h-174.635v-29.739h178.347v-585.259h-278.699v-31.573zM759.083 637.525c-5.589 0-9.301 1.877-14.848 5.589l-79.872 79.872c-13.013 13.013-24.149 42.752 0 68.736l79.872 79.872c7.424 7.424 20.437 7.424 27.861 0s7.424-20.437 0-27.861l-79.872-79.872c-1.877-1.877-5.589-5.589 0-11.136l79.872-79.872c7.424-7.424 7.424-20.437 0-27.861-1.877-5.589-7.424-7.424-13.013-7.424zM759.083 631.936c-7.424 0-13.013 1.877-16.725 7.424l-79.872 79.872c-9.301 9.301-14.848 20.437-14.848 31.573-1.877 11.136 0 26.027 14.848 42.752l79.872 79.872c9.301 9.301 26.027 9.301 35.285 0 3.712-3.712 7.424-11.136 7.424-16.725 0-7.424-1.877-13.013-7.424-16.725l-79.872-81.749c-1.877-1.877-1.877-1.877 0-5.589l79.872-79.872c3.712-3.712 7.424-11.136 7.424-16.725 0-7.424-1.877-13.013-7.424-16.725s-11.136-7.424-18.56-7.424zM759.083 871.595c-3.712 0-7.424-1.877-11.136-3.712l-79.872-79.872c-9.301-9.301-14.848-22.315-13.013-33.451 1.877-9.301 5.589-20.437 13.013-27.861l79.872-79.872c5.589-5.589 14.848-5.589 22.315 0 3.712 3.712 3.712 7.424 3.712 11.136s-1.877 7.424-3.712 11.136l-79.872 79.872c-9.301 9.301-1.877 16.725 0 18.56l79.872 79.872c3.712 3.712 3.712 7.424 3.712 11.136s-1.877 7.424-3.712 11.136-7.424 1.877-11.136 1.877z" />
<glyph unicode="&#xe931;" glyph-name="recommend" data-tags="recommend" d="M512 218.624c-135.808 0-249.557 99.072-264.235 231.211v344.96c0 20.181 14.677 42.197 42.197 42.197h445.909c27.52 0 42.197-22.016 42.197-42.197l-1.835-350.464c-14.677-130.304-128.427-225.707-264.235-225.707zM288.128 451.669c12.843-110.080 108.245-192.683 223.872-192.683s211.029 82.56 223.872 190.848v14.677l1.835 332.117c0 0 0 1.835 0 1.835l-447.744-1.835c-1.835 0-1.835-1.835-1.835-1.835v-343.125zM512 213.12c-139.435 0-255.061 100.907-267.904 234.88v1.835l-1.835 344.96c0 22.016 16.512 47.701 47.701 47.701h445.909c31.189 0 47.701-23.851 47.701-47.701l-1.835-350.464c-16.512-132.096-130.304-231.211-269.739-231.211zM289.963 831.488c-23.851 0-38.528-20.181-38.528-38.528l1.835-344.96c12.843-128.427 124.757-225.707 258.731-225.707s245.888 95.403 258.731 223.872l1.835 348.629c0 18.347-12.843 38.528-38.528 38.528h-444.075zM512 253.483c-117.419 0-216.533 84.395-227.541 198.187v0l-1.835 343.125c0 3.669 1.835 7.339 5.504 7.339h449.579l1.835-1.835c1.835-1.835 1.835-3.669 1.835-5.504l-1.835-333.952v-14.677c-11.008-110.080-110.080-192.683-227.541-192.683zM293.632 451.669c12.843-108.245 106.411-189.013 218.368-189.013 113.749 0 207.36 80.725 218.368 185.344v12.843l1.835 330.283h-440.405l1.835-339.456zM680.832 59.008h-337.621c-11.008 0-20.181 9.173-20.181 20.181s9.173 20.181 20.181 20.181h337.621c11.008 0 20.181-9.173 20.181-20.181s-9.173-20.181-20.181-20.181zM680.832 55.339h-337.621c-12.843 0-23.851 11.008-23.851 23.851s11.008 23.851 23.851 23.851h337.621c12.843 0 23.851-11.008 23.851-23.851s-11.008-23.851-23.851-23.851zM343.168 93.867c-9.173 0-14.677-7.339-14.677-14.677 0-9.173 7.339-14.677 14.677-14.677h337.621c9.173 0 14.677 7.339 14.677 14.677 0 9.173-7.339 14.677-14.677 14.677h-337.621zM491.819 253.483h40.363v-189.013h-40.363v189.013zM535.851 60.843h-49.536v198.187h49.536v-198.187zM497.323 70.016h31.189v179.84h-31.189v-179.84zM286.293 369.109l-23.851 5.504c-168.832 38.528-172.501 319.275-172.501 332.117 0 20.181 12.843 40.363 36.693 40.363h159.659v-377.984zM130.347 708.565c0-1.835 0-1.835 0 0 0-3.669 3.669-231.211 115.584-286.251v286.251h-115.584zM291.797 363.605l-29.355 7.339c-172.501 38.528-176.171 322.944-176.171 335.787 0 22.016 14.677 45.867 42.197 45.867h163.328v-388.992zM128.512 743.424c-22.016 0-33.024-18.347-33.024-36.693 0-11.008 3.669-289.92 168.832-328.448l18.347-3.669v368.811h-154.155zM251.435 414.976l-7.339 3.669c-115.584 55.040-117.419 286.251-117.419 288.085v5.504h124.757v-297.259zM135.851 703.061c0-27.52 9.173-218.368 106.411-273.408v273.408h-106.411zM130.347 708.565v0zM737.707 369.109v377.984h159.659c23.851 0 36.693-22.016 36.693-40.363 0-12.843-3.669-293.589-172.501-332.117l-23.851-5.504zM776.235 708.565v-286.251c113.749 55.040 117.419 282.581 117.419 284.416 0 0 0 0 0 0h-117.419zM732.203 363.605v388.992h165.163c27.52 0 42.197-23.851 42.197-45.867 0-12.843-3.669-297.259-176.171-337.621l-31.189-5.504zM741.376 743.424v-368.811l18.347 3.669c165.163 38.528 168.832 315.605 168.832 328.448 0 18.347-11.008 36.693-33.024 36.693h-154.155zM772.565 414.976v297.259h124.757l1.835-5.504c0-1.835-3.669-233.045-119.253-289.92l-7.339-1.835zM781.739 703.061v-273.408c97.237 55.040 106.411 244.053 108.245 273.408h-108.245z" />
<glyph unicode="&#xe932;" glyph-name="refresh" data-tags="refresh" d="M897.28 396.971c-18.304 3.627-36.096-8.32-39.68-26.667-37.205-189.099-221.312-312.619-410.411-275.456-89.003 17.493-166.315 68.053-217.813 141.013l130.944-25.771c2.219-0.427 4.395-0.64 6.571-0.64 15.829 0 29.952 11.179 33.109 27.264 3.627 18.304-8.32 36.096-26.667 39.68l-205.269 40.363c0 0 0 0 0 0-0.768 0.171-1.493 0.256-2.304 0.341-1.493 0.213-3.029 0.299-4.523 0.256-14.592-0.128-27.691-9.685-32.043-23.936-0.341-1.067-0.64-2.219-0.853-3.371l-40.363-205.269c-3.627-18.304 8.32-36.096 26.667-39.68 2.219-0.427 4.395-0.64 6.571-0.64 15.829 0 29.952 11.179 33.109 27.264l23.552 119.765c61.44-84.309 152.149-142.592 256.213-163.072 26.923-5.333 54.016-7.936 80.981-7.936 28.373 0 56.619 2.901 84.651 8.747 52.779 11.008 102.357 31.915 147.328 62.123s83.115 68.139 113.28 112.811c31.275 46.293 52.651 97.707 63.488 152.96 3.627 18.304-8.32 36.096-26.667 39.68zM909.312 850.688c-18.304 3.627-36.096-8.32-39.68-26.667l-23.552-119.765c-61.44 84.309-152.149 142.592-256.213 163.072-55.253 10.88-110.933 10.581-165.632-0.811-52.779-11.008-102.357-31.915-147.328-62.123s-83.115-68.139-113.28-112.811c-31.275-46.293-52.651-97.707-63.488-152.96-3.627-18.304 8.32-36.096 26.667-39.68 2.219-0.427 4.395-0.64 6.571-0.64 15.829 0 29.952 11.179 33.109 27.264 18.048 91.605 70.656 170.709 148.139 222.72s170.667 70.741 262.229 52.736c89.003-17.493 166.315-68.053 217.813-141.013l-130.944 25.771c-18.304 3.627-36.096-8.32-39.68-26.667s8.32-36.096 26.667-39.68l205.269-40.405c2.219-0.427 4.395-0.64 6.571-0.64 15.829 0 29.952 11.179 33.109 27.264l40.405 205.269c3.627 18.304-8.32 36.096-26.667 39.68z" />
<glyph unicode="&#xe933;" glyph-name="reminders" data-tags="reminders" d="M762.453 641.963c-9.131 4.139-18.347 7.808-27.563 11.093 10.325 2.859 20.693 6.187 30.976 10.069 77.611 29.525 146.176 85.675 127.019 135.893-5.504 14.507-23.168 38.699-79.787 38.699-31.317 0-68.779-7.68-105.429-21.632-37.717-14.293-70.272-33.451-93.312-54.187v32.085c0 43.051-34.901 77.952-77.952 77.952s-77.952-34.901-77.952-77.952v-157.867c-9.515 4.48-20.608 7.083-32.384 7.083-21.461 0-40.917-8.747-54.955-22.869-14.123 14.123-33.579 22.869-55.125 22.869-33.664 0-62.336-21.376-73.216-51.285-10.923 5.547-23.808 9.131-37.504 9.131-42.496 0-76.971-34.475-76.971-76.971 0-0.043 0-0.043 0-0.085v-24.619h-0.512v-234.667c0-134.144 109.056-243.2 243.285-243.2s243.2 109.141 243.2 243.2v279.083c22.016-19.669 50.603-37.589 81.024-51.243 40.32-18.091 80.981-28.075 114.517-28.075 48.683 0 65.664 21.504 71.381 34.347 6.187 13.568 10.837 42.027-25.728 80.469-22.315 23.424-55.467 45.696-93.184 62.635zM624.896 703.787c8.32 18.645 42.923 48.427 99.029 69.76 31.659 12.032 63.275 18.603 89.173 18.603 25.131 0 35.968-6.4 37.077-9.301 3.328-8.704-26.069-48.725-100.523-77.056-31.659-11.989-63.275-18.56-89.173-18.56-25.131 0-36.053 6.4-37.163 9.387-0.341 0.939-0.213 3.413 1.493 7.211zM568.661 643.285h-64.427v30.805h64.427zM536.448 826.325c17.749-0.085 32.128-14.507 32.171-32.256v-74.325h-64.427v74.325c0 17.835 14.464 32.256 32.256 32.256zM426.155 597.632c17.835 0 32.256-14.464 32.256-32.299 0 0 0 0 0 0v-60.245c-12.501 2.389-27.477 4.224-42.752 5.035-6.357 0.043-13.696 0.043-21.717-0.64v55.851c0 0 0 0.043 0 0.043 0 17.792 14.379 32.213 32.171 32.299zM283.648 565.333c0 17.835 14.464 32.256 32.256 32.256s32.256-14.464 32.256-32.256v-69.035c-17.408-10.795-30.976-29.952-30.976-64.043 0-26.325 13.355-42.112 30.976-52.523v-40.491c0-17.835-14.464-32.256-32.256-32.256s-32.256 14.464-32.256 32.256zM173.995 524.032c0 17.323 14.037 31.36 31.36 31.36s31.36-14.037 31.36-31.36v-145.323c0-17.323-14.037-31.36-31.36-31.36s-31.36 14.037-31.36 31.36v145.323zM568.661 264.789c0-109.099-88.448-197.589-197.589-197.589s-197.589 88.491-197.589 197.589v43.904c9.344-4.437 20.352-6.997 31.915-6.997 13.867 0 26.88 3.669 38.101 10.155 11.093-29.867 39.381-50.475 72.491-50.475 43.051 0 77.952 34.859 77.952 77.909v24.021c3.541-0.811 7.040-1.664 10.453-2.432 17.707-4.053 37.973-8.704 45.227-15.957 14.891-14.891 14.251-68.267 9.173-99.712-0.213-1.067-0.299-2.347-0.299-3.627 0-11.264 8.192-20.651 18.944-22.528 1.28-0.213 2.56-0.341 3.883-0.341 11.264 0.043 20.651 8.235 22.528 18.987 2.773 16.939 14.677 102.912-21.931 139.52-16.555 16.555-42.325 22.485-67.413 28.203-36.352 8.32-51.669 13.952-51.669 26.837 0 26.24 9.643 32.299 50.987 32.341 1.579 0 154.923-8.661 154.923-92.117v-107.648zM568.661 461.611c-14.677 11.307-33.408 21.632-58.069 30.208-2.133 0.725-4.395 1.451-6.443 2.091v103.723h64.469v-135.979zM839.637 517.504c-1.067-2.389-9.813-7.381-29.781-7.381-26.837 0-61.781 8.747-95.829 24.021-72.619 32.64-99.712 74.283-95.872 82.773 1.067 2.389 9.728 7.381 29.781 7.381 26.752 0 61.739-8.747 95.787-24.021 32.085-14.379 60.8-33.493 78.763-52.523 15.616-16.384 18.347-27.648 17.237-30.251z" />
<glyph unicode="&#xe934;" glyph-name="remotely" data-tags="remotely" d="M327.808 529.28c20.736-20.693 33.579-49.323 33.579-80.939s-12.843-60.245-33.579-80.939v0c-20.096-20.395-48.043-33.067-78.933-33.067-0.64 0-1.28 0-1.92 0h0.085c-0.512 0-1.152 0-1.792 0-30.891 0-58.837 12.629-78.933 33.024v0c-20.736 20.693-33.579 49.323-33.579 80.939s12.843 60.245 33.579 80.939v0c20.053 20.736 48.085 33.579 79.147 33.579 0.555 0 1.109 0 1.664 0h-0.085c0.469 0 1.024 0 1.579 0 31.061 0 59.136-12.843 79.147-33.536l0.043-0.043zM449.365 629.12c4.608 3.797 10.581 6.101 17.067 6.101 1.28 0 2.517-0.085 3.712-0.256h-0.128c8.149-0.981 15.189-5.163 19.883-11.264l0.043-0.085 17.28-27.221q17.237-27.264 28.885-73.515c5.888-24.064 9.301-51.712 9.301-80.128 0-9.472-0.384-18.816-1.109-28.117l0.085 1.237q-3.584-60.8-45.44-128.768c-2.859-4.096-6.528-7.467-10.752-9.899l-0.171-0.085c-3.84-2.304-8.491-3.627-13.44-3.627-0.043 0-0.085 0-0.128 0v0c-0.171 0-0.341 0-0.555 0-2.731 0-5.376 0.341-7.936 0.981l0.213-0.043c-2.773 0.725-5.205 1.664-7.467 2.816l0.213-0.085c-6.4 4.053-11.008 10.411-12.629 17.963l-0.043 0.171c-0.597 2.219-0.939 4.779-0.939 7.424 0 5.248 1.365 10.197 3.755 14.464l-0.085-0.171q33.493 55.381 37.163 103.424c1.067 8.747 1.664 18.901 1.664 29.184 0 19.883-2.261 39.211-6.528 57.771l0.341-1.707c-5.077 22.272-12.885 41.984-23.211 60.032l0.555-1.067c-9.088 14.507-14.208 22.4-15.403 23.595-3.797 4.651-6.144 10.667-6.144 17.195 0 1.195 0.085 2.432 0.213 3.584v-0.128c1.024 8.32 5.376 15.445 11.648 20.139l0.085 0.043zM616.277 756.053q0.853-0.853 34.475-52.608 33.493-50.773 55.339-135.125t10.88-193.237q-10.88-108.757-99.755-224.043c-2.859-3.499-6.315-6.357-10.283-8.491l-0.171-0.085c-3.541-2.005-7.723-3.2-12.245-3.2-0.043 0-0.128 0-0.171 0v0c-3.285 0-6.4 0.683-9.259 1.877l0.171-0.043c-3.541 1.408-6.528 2.944-9.344 4.651l0.256-0.171c-5.803 4.608-9.771 11.307-10.837 18.944v0.171c-0.256 1.408-0.384 2.987-0.384 4.608 0 6.485 2.176 12.459 5.845 17.195l-0.043-0.085q78.037 101.589 88.917 197.76 9.984 95.275-9.515 169.6t-48.555 119.723q-28.885 45.44-29.952 46.293c-3.797 4.821-6.144 10.965-6.144 17.664 0 1.109 0.085 2.219 0.171 3.328v-0.128c0.555 7.979 4.267 15.019 9.899 19.925l0.043 0.043c5.035 3.84 11.435 6.144 18.347 6.144 1.195 0 2.389-0.085 3.541-0.213h-0.128c7.68-0.853 14.336-4.736 18.816-10.411l0.043-0.043zM754.133 864.043q0.939-1.877 46.251-71.68 44.459-70.741 73.045-186.411t11.349-264.277q-17.28-149.675-140.629-308.437c-2.475-3.669-5.845-6.613-9.813-8.533l-0.128-0.085c-3.669-1.963-8.064-3.157-12.715-3.2v0c-3.285 0-6.4 0.683-9.259 1.877l0.171-0.043c-3.157 1.237-5.888 2.731-8.363 4.565l0.085-0.085c-6.229 4.352-10.496 11.136-11.349 18.944v0.128c-0.128 1.067-0.213 2.304-0.213 3.584 0 6.869 2.304 13.184 6.187 18.261l-0.043-0.085q112.469 146.048 128.768 282.112t-9.899 241.792q-26.283 105.6-67.157 170.027-40.704 63.36-41.6 65.323c-3.84 4.736-6.187 10.795-6.187 17.451 0 1.365 0.085 2.688 0.299 4.011v-0.128c1.621 14.549 13.867 25.771 28.715 25.771 9.088 0 17.152-4.181 22.485-10.709l0.043-0.043z" />
<glyph unicode="&#xe935;" glyph-name="remove" data-tags="remove" d="M511.659 875.008c-235.477 0-427.051-191.659-427.051-427.307 0-235.477 191.616-427.093 427.051-427.093 235.605 0 427.307 191.616 427.307 427.093 0 235.605-191.659 427.307-427.307 427.307zM511.659 67.456c-209.621 0-380.203 170.624-380.203 380.288 0 209.835 170.581 380.459 380.203 380.459 209.835 0 380.459-170.667 380.459-380.459 0-209.621-170.667-380.288-380.459-380.288zM720.683 479.573h-422.016c-18.688 0-33.877-15.189-33.877-33.877s15.189-33.877 33.877-33.877h422.016c18.731 0 33.877 15.189 33.877 33.877s-15.189 33.877-33.877 33.877z" />
<glyph unicode="&#xe936;" glyph-name="renovate" data-tags="renovate" d="M512 173.696c14.507 0 26.283-13.653 26.283-30.464s-11.776-30.507-26.283-30.507-26.24 13.653-26.24 30.507 11.776 30.464 26.24 30.464zM512 204.16c-29.013 0-52.523-27.307-52.523-60.928s23.552-60.971 52.523-60.971 52.523 27.349 52.523 60.971-23.509 60.928-52.523 60.928zM748.331 630.869v213.333c0 16.896-11.733 30.507-26.325 30.507h-420.011c-14.549 0-26.283-13.653-26.283-30.507v-213.333c-14.507 0-26.283-13.653-26.283-30.464v-91.435c0-16.811 11.776-30.507 26.283-30.507 0-91.435 157.568-60.928 157.568-152.405 0-30.507-26.283-91.435-26.283-152.405 0-91.435 47.061-152.405 105.003-152.405s105.003 60.971 105.003 152.405c0 60.971-26.283 121.899-26.283 152.405 0 91.435 157.568 60.971 157.568 152.405 14.507 0 26.24 13.653 26.24 30.507v91.477c0.043 16.811-11.691 30.464-26.197 30.464zM301.995 844.245h26.24v-96.512c0-8.363 5.931-15.232 13.141-15.232s13.141 6.827 13.141 15.232v96.512h26.283v-60.971c0-8.363 5.888-15.232 13.099-15.232s13.099 6.869 13.099 15.232v60.971h26.283v-137.173c0-8.363 5.931-15.232 13.141-15.232s13.184 6.827 13.184 15.232v137.173h26.24v-25.429c0-8.363 5.931-15.232 13.099-15.232s13.056 6.869 13.056 15.232v25.429h210.005v-213.333h-420.011zM661.333 431.189c-40.832-15.787-96.768-37.419-96.768-105.131 0-17.024 4.992-36.907 10.837-60.032 7.211-28.672 15.445-61.099 15.445-92.459 0-70.656-33.152-121.899-78.763-121.899s-78.805 51.243-78.805 121.941c0 31.36 8.192 63.829 15.445 92.459 5.803 23.040 10.837 42.923 10.837 60.032 0 67.712-55.936 89.344-96.683 105.131-41.429 15.915-60.843 25.813-60.843 47.232h420.011c0-21.376-19.413-31.275-60.715-47.275zM748.373 508.971h-472.704v91.435h472.661zM722.005 554.667c0-8.363-5.888-15.232-13.099-15.232h-393.813c-7.211 0-13.141 6.869-13.141 15.232v0c0 8.363 5.931 15.232 13.141 15.232h393.899c7.211 0 13.141-6.827 13.141-15.232z" />
</font>
</defs>
</svg>
