<?xml version="1.0" encoding="utf-8"?>
<!-- Generator: Adobe Illustrator 23.1.1, SVG Export Plug-In . SVG Version: 6.00 Build 0)  -->
<svg version="1.1" id="Capa_1" xmlns="http://www.w3.org/2000/svg" xmlns:xlink="http://www.w3.org/1999/xlink" x="0px" y="0px"
	 viewBox="0 0 94 57.4" style="enable-background:new 0 0 94 57.4;" xml:space="preserve">
<style type="text/css">
	.st0{fill:#F0F2F8;}
	.st1{fill:url(#SVGID_3_);}
	.st2{fill:url(#SVGID_4_);}
	.st3{fill:url(#SVGID_5_);}
	.st4{fill:url(#SVGID_6_);}
	.st5{fill:url(#SVGID_7_);}
	.st6{fill:url(#SVGID_8_);}
	.st7{fill:url(#SVGID_9_);}
	.st8{fill:url(#SVGID_10_);}
	.st9{fill:url(#SVGID_11_);}
	.st10{fill:url(#SVGID_12_);}
	.st11{filter:url(#Adobe_OpacityMaskFilter);}
	.st12{opacity:0.73;fill:url(#SVGID_13_);enable-background:new    ;}
	.st13{opacity:0.83;mask:url(#SVGID_1_);fill:#FFFFFF;enable-background:new    ;}
	.st14{filter:url(#Adobe_OpacityMaskFilter_1_);}
	.st15{opacity:0.73;fill:url(#SVGID_14_);enable-background:new    ;}
	.st16{opacity:4.000000e-02;mask:url(#SVGID_2_);fill:#FFFFFF;enable-background:new    ;}
	.st17{fill:#FF0033;}
</style>
<g>
	<path class="st0" d="M41.9,39.5c-5.2,2.8-11.3-1.7-10.2-7.5c0.5-2.7,0-6.7-3.1-9.8c-4.2-4.1-1.9-11.2,3.9-12c3.5-0.5,6.6-2.7,8.2-6
		c2.5-5.2,10-5.4,12.7,0c1.6,3.2,4.6,5.5,8.2,6c5.8,0.8,8.2,8,3.9,12.1c-3.3,3.1-3.6,7-3.1,9.7c1,5.8-5.1,10.3-10.2,7.5
		C48.7,37.7,45,37.9,41.9,39.5z"/>
	<g>
		
			<linearGradient id="SVGID_3_" gradientUnits="userSpaceOnUse" x1="46.9824" y1="65.88" x2="46.9824" y2="25.5" gradientTransform="matrix(1 0 0 -1 0 65.88)">
			<stop  offset="8.790000e-02" style="stop-color:#FFFFFF"/>
			<stop  offset="0.1498" style="stop-color:#EFF0F1;stop-opacity:0.9885"/>
			<stop  offset="0.456" style="stop-color:#A4AAAD;stop-opacity:0.9314"/>
			<stop  offset="0.7096" style="stop-color:#6D767C;stop-opacity:0.8841"/>
			<stop  offset="0.8979" style="stop-color:#4B565D;stop-opacity:0.849"/>
			<stop  offset="1" style="stop-color:#3F4A52;stop-opacity:0.83"/>
		</linearGradient>
		<path class="st1" d="M38.6,40.4c-2.1,0-4.2-1-5.5-2.6c-1.4-1.7-1.9-3.7-1.5-5.9c0.2-1.3,0.8-6-3-9.6c-2-1.9-2.8-4.7-2-7.3
			c0.9-2.7,3.1-4.5,5.8-4.9C36,9.5,39,7.3,40.5,4.1C41.7,1.6,44.2,0,47,0c2.8,0,5.2,1.5,6.4,4.1C55,7.3,58,9.5,61.5,10
			c2.8,0.4,5,2.3,5.8,4.9c0.9,2.6,0.1,5.5-1.9,7.4c-3.8,3.6-3.3,8.2-3,9.6c0.4,2.1-0.2,4.2-1.5,5.9c-1.4,1.7-3.4,2.6-5.5,2.6
			c-1.2,0-2.3-0.3-3.4-0.9c-1.5-0.8-3.2-1.3-5-1.3c-1.7,0-3.5,0.4-5,1.3C40.9,40.1,39.8,40.4,38.6,40.4L38.6,40.4z M47,0.3
			c-2.7,0-5.1,1.5-6.2,3.9c-1.6,3.3-4.7,5.6-8.3,6.1c-2.6,0.4-4.8,2.2-5.6,4.7s-0.1,5.3,1.8,7.1c3.9,3.8,3.4,8.4,3.2,9.8
			C31.5,34,32,36,33.3,37.6c1.3,1.6,3.3,2.5,5.3,2.5l0,0c1.1,0,2.2-0.3,3.3-0.8c1.6-0.8,3.3-1.3,5.1-1.3c1.8,0,3.5,0.4,5.1,1.3
			c1,0.6,2.1,0.8,3.2,0.8c2,0,4-1,5.3-2.5c1.3-1.6,1.8-3.6,1.5-5.6c-0.2-1.3-0.7-6,3.2-9.8c1.9-1.9,2.6-4.6,1.8-7.1
			c-0.8-2.5-3-4.4-5.6-4.7c-3.6-0.5-6.7-2.8-8.3-6.1C52,1.8,49.7,0.3,47,0.3z"/>
	</g>
	<g>
		
			<linearGradient id="SVGID_4_" gradientUnits="userSpaceOnUse" x1="47.005" y1="25.72" x2="47.005" y2="65.94" gradientTransform="matrix(1 0 0 -1 0 65.88)">
			<stop  offset="0" style="stop-color:#FFFFFF"/>
			<stop  offset="0.1411" style="stop-color:#424F56"/>
			<stop  offset="0.2505" style="stop-color:#8E9397"/>
			<stop  offset="0.3313" style="stop-color:#C9C8C8"/>
			<stop  offset="0.4233" style="stop-color:#424F56;stop-opacity:0.92"/>
			<stop  offset="0.5646" style="stop-color:#8E969F;stop-opacity:0.9649"/>
			<stop  offset="0.6748" style="stop-color:#CDD0DA"/>
			<stop  offset="0.7288" style="stop-color:#D1D5DD"/>
			<stop  offset="0.7907" style="stop-color:#DFE1E7"/>
			<stop  offset="0.8563" style="stop-color:#F6F7F8"/>
			<stop  offset="0.8773" style="stop-color:#FFFFFF"/>
			<stop  offset="1" style="stop-color:#CDD0DA"/>
		</linearGradient>
		<path class="st2" d="M38.6,40.2c-2.1,0-4.2-1-5.5-2.6s-2-3.7-1.6-5.9c0.3-1.6,0.8-5.6-3-9.5c-2-2-2.7-4.8-1.9-7.4s3.1-4.5,5.8-4.9
			C36,9.4,39,7.2,40.5,4c1.2-2.5,3.7-4.1,6.5-4.1c2.8,0,5.2,1.5,6.4,4.1C55,7.2,58,9.4,61.5,9.9c2.8,0.4,5,2.3,5.8,4.9
			s0.2,5.5-1.9,7.4c-3.8,3.6-3.3,8.2-3.1,9.5c0.4,2.1-0.2,4.2-1.5,5.9c-1.4,1.6-3.4,2.6-5.5,2.6c-1.2,0-2.3-0.3-3.4-0.9
			c-1.5-0.8-3.2-1.3-5-1.3c-1.7,0-3.5,0.4-5,1.3C41,39.9,39.8,40.2,38.6,40.2L38.6,40.2z M47,0.2c-2.7,0-5.1,1.5-6.2,3.9
			c-1.6,3.3-4.7,5.5-8.3,6c-2.6,0.4-4.8,2.2-5.6,4.7s-0.1,5.3,1.8,7.1c3.9,3.7,3.4,8.4,3.2,9.8c-0.4,2,0.2,4,1.5,5.6
			c1.3,1.6,3.3,2.5,5.3,2.5l0,0c1.1,0,2.2-0.3,3.3-0.8c1.6-0.8,3.3-1.3,5.1-1.3c1.8,0,3.5,0.4,5.1,1.3c1,0.5,2.1,0.8,3.2,0.8
			c2,0,4-0.9,5.3-2.5c1.3-1.6,1.8-3.6,1.5-5.6c-0.2-1.3-0.7-6,3.2-9.8c1.9-1.9,2.6-4.6,1.8-7.1c-0.8-2.5-3-4.3-5.6-4.7
			c-3.6-0.5-6.7-2.8-8.3-6C52,1.7,49.7,0.2,47,0.2z"/>
	</g>
	
		<linearGradient id="SVGID_5_" gradientUnits="userSpaceOnUse" x1="42.575" y1="60.1047" x2="53.0712" y2="31.2664" gradientTransform="matrix(1 0 0 -1 0 65.88)">
		<stop  offset="0" style="stop-color:#DEE0E9"/>
		<stop  offset="1.380000e-02" style="stop-color:#E3E4EC"/>
		<stop  offset="7.440000e-02" style="stop-color:#F3F3F7"/>
		<stop  offset="0.1435" style="stop-color:#FCFCFD"/>
		<stop  offset="0.2393" style="stop-color:#FFFFFF"/>
		<stop  offset="0.4547" style="stop-color:#FBFBFC"/>
		<stop  offset="0.6676" style="stop-color:#EFF1F3"/>
		<stop  offset="0.8789" style="stop-color:#DBDEE5"/>
		<stop  offset="1" style="stop-color:#CDD1DA"/>
	</linearGradient>
	<path class="st3" d="M32.6,36.4c1.7,3,5.6,4.4,9.1,2.7c0.1-0.1,0.2-0.1,0.3-0.2c3-1.6,6.7-1.8,10,0c0.1,0.1,0.2,0.1,0.3,0.2
		c3.5,1.7,7.4,0.2,9.1-2.8c0.8-1.3,1.1-2.8,0.8-4.7c-0.2-1.4-0.2-3.1,0.3-4.9c0.5-1.6,1.3-3.2,2.8-4.6c1.2-1.2,1.8-2.6,2.1-4.1
		c0.5-3-1.4-6.4-4.2-7.4c-0.3-0.1-1-0.3-2.1-0.5c-3.3-0.6-6.2-2.6-7.7-5.8c-0.2-0.5-0.7-1.1-1-1.6c-2.4-3.2-7.7-3.4-10.5-0.1
		c-0.4,0.5-0.7,1-1,1.6c-1.6,3.2-4.6,5.4-8.1,5.9c-0.6,0.1-1.2,0.2-1.8,0.4c-2.9,1.1-4.6,4.2-4.2,7.2c0.2,1.5,0.8,3,2.1,4.2
		c1.5,1.4,2.3,3.1,2.8,4.5c0.6,1.7,0.6,3.8,0.4,5.2C31.5,33.4,31.9,35.1,32.6,36.4z"/>
	
		<radialGradient id="SVGID_6_" cx="63.5693" cy="47.633" r="20.1307" gradientTransform="matrix(1 0 0 -1 0 65.88)" gradientUnits="userSpaceOnUse">
		<stop  offset="0" style="stop-color:#CDD0DA"/>
		<stop  offset="1" style="stop-color:#CDD0DA;stop-opacity:0"/>
	</radialGradient>
	<path class="st4" d="M32.6,36.4c1.7,3,5.6,4.4,9.1,2.7c0.1-0.1,0.2-0.1,0.3-0.2c3-1.6,6.7-1.8,10,0c0.1,0.1,0.2,0.1,0.3,0.2
		c3.5,1.7,7.4,0.2,9.1-2.8c0.8-1.3,1.1-2.8,0.8-4.7c-0.2-1.4-0.2-3.1,0.3-4.9c0.5-1.6,1.3-3.2,2.8-4.6c1.2-1.2,1.8-2.6,2.1-4.1
		c0.5-3-1.4-6.4-4.2-7.4c-0.3-0.1-1-0.3-2.1-0.5c-3.3-0.6-6.2-2.6-7.7-5.8c-0.2-0.5-0.7-1.1-1-1.6c-2.4-3.2-7.7-3.4-10.5-0.1
		c-0.4,0.5-0.7,1-1,1.6c-1.6,3.2-4.6,5.4-8.1,5.9c-0.6,0.1-1.2,0.2-1.8,0.4c-2.9,1.1-4.6,4.2-4.2,7.2c0.2,1.5,0.8,3,2.1,4.2
		c1.5,1.4,2.3,3.1,2.8,4.5c0.6,1.7,0.6,3.8,0.4,5.2C31.5,33.4,31.9,35.1,32.6,36.4z"/>
	
		<linearGradient id="SVGID_7_" gradientUnits="userSpaceOnUse" x1="44.0641" y1="65.2994" x2="58.6945" y2="32.8281" gradientTransform="matrix(1 0 0 -1 0 65.88)">
		<stop  offset="0" style="stop-color:#3D5059"/>
		<stop  offset="8.460000e-02" style="stop-color:#606F77"/>
		<stop  offset="0.1867" style="stop-color:#838E96"/>
		<stop  offset="0.2907" style="stop-color:#9EA7AE"/>
		<stop  offset="0.3957" style="stop-color:#B1B8C0"/>
		<stop  offset="0.5024" style="stop-color:#BDC2CA"/>
		<stop  offset="0.6135" style="stop-color:#C1C6CD"/>
		<stop  offset="0.8265" style="stop-color:#D0D4DC"/>
		<stop  offset="1" style="stop-color:#D6D9E1"/>
	</linearGradient>
	<path class="st5" d="M62,30.6C51.5,14,31.8,10.3,31.8,10.3c0.6-0.1,1.3-0.2,1.9-0.4c2-0.6,5.4-2.1,7.1-5.8C43-0.7,50.4-1.4,53.1,4
		c1.6,3.1,3.7,5.5,8.5,6.2c5.2,0.9,8,7.5,3.5,12C65.1,22.2,61.7,25.4,62,30.6z"/>
	
		<radialGradient id="SVGID_8_" cx="54.0459" cy="44.5481" r="9.8839" fx="53.3605" fy="44.725" gradientTransform="matrix(1 0 0 -1 0 65.88)" gradientUnits="userSpaceOnUse">
		<stop  offset="0" style="stop-color:#FFFFFF;stop-opacity:0.16"/>
		<stop  offset="2.230000e-02" style="stop-color:#FFFFFF;stop-opacity:0.1564"/>
		<stop  offset="1" style="stop-color:#FFFFFF;stop-opacity:0"/>
	</radialGradient>
	<path class="st6" d="M62,30.6C51.5,14,31.8,10.3,31.8,10.3c0.6-0.1,1.3-0.2,1.9-0.4c2-0.6,5.4-2.1,7.1-5.8C43-0.7,50.4-1.4,53.1,4
		c1.6,3.1,3.7,5.5,8.5,6.2c5.2,0.9,8,7.5,3.5,12C65.1,22.2,61.7,25.4,62,30.6z"/>
	
		<radialGradient id="SVGID_9_" cx="34.7482" cy="55.6246" r="9.884" fx="34.4666" fy="54.9752" gradientTransform="matrix(1 0 0 -1 0 65.88)" gradientUnits="userSpaceOnUse">
		<stop  offset="0" style="stop-color:#333D49;stop-opacity:0.2"/>
		<stop  offset="0.4572" style="stop-color:#3B474F;stop-opacity:0.1086"/>
		<stop  offset="1" style="stop-color:#3F4A52;stop-opacity:0"/>
	</radialGradient>
	<path class="st7" d="M62,30.6C51.5,14,31.8,10.3,31.8,10.3c0.6-0.1,1.3-0.2,1.9-0.4c2-0.6,5.4-2.1,7.1-5.8C43-0.7,50.4-1.4,53.1,4
		c1.6,3.1,3.7,5.5,8.5,6.2c5.2,0.9,8,7.5,3.5,12C65.1,22.2,61.7,25.4,62,30.6z"/>
	
		<radialGradient id="SVGID_10_" cx="61.9866" cy="62.3628" r="13.1385" fx="61.6122" fy="61.4996" gradientTransform="matrix(1 0 0 -1 0 65.88)" gradientUnits="userSpaceOnUse">
		<stop  offset="0" style="stop-color:#333D49;stop-opacity:0.3"/>
		<stop  offset="0.36" style="stop-color:#39434D;stop-opacity:0.192"/>
		<stop  offset="1" style="stop-color:#3F4A52;stop-opacity:0"/>
	</radialGradient>
	<path class="st8" d="M62,30.6C51.5,14,31.8,10.3,31.8,10.3c0.6-0.1,1.3-0.2,1.9-0.4c2-0.6,5.4-2.1,7.1-5.8C43-0.7,50.4-1.4,53.1,4
		c1.6,3.1,3.7,5.5,8.5,6.2c5.2,0.9,8,7.5,3.5,12C65.1,22.2,61.7,25.4,62,30.6z"/>
	
		<linearGradient id="SVGID_11_" gradientUnits="userSpaceOnUse" x1="40.347" y1="51.4286" x2="56.977" y2="36.9722" gradientTransform="matrix(1 0 0 -1 -1.7344 65.88)">
		<stop  offset="0" style="stop-color:#CDD0DA"/>
		<stop  offset="0.6319" style="stop-color:#FFFFFF"/>
		<stop  offset="0.675" style="stop-color:#F9FAFA"/>
		<stop  offset="0.73" style="stop-color:#EAEBED"/>
		<stop  offset="0.7914" style="stop-color:#CFD3D7"/>
		<stop  offset="0.8575" style="stop-color:#ABB1B8"/>
		<stop  offset="0.9274" style="stop-color:#7C8691"/>
		<stop  offset="1" style="stop-color:#435261"/>
	</linearGradient>
	<path class="st9" d="M46.9,10.7c-6.3,0-11.4,5.3-11,11.7c0.3,5.5,4.8,9.9,10.3,10.3c6.4,0.4,11.7-4.7,11.7-11
		C58,15.6,53,10.7,46.9,10.7z M47.6,32.5c-6.3,0.4-11.5-4.6-11.5-10.8c0-6,4.9-10.9,10.9-10.9c6.2,0,11.2,5.3,10.8,11.6
		C57.4,27.8,53,32.1,47.6,32.5z"/>
	
		<linearGradient id="SVGID_12_" gradientUnits="userSpaceOnUse" x1="37.2353" y1="46.8718" x2="60.1741" y2="41.5759" gradientTransform="matrix(1 0 0 -1 -1.7344 65.88)">
		<stop  offset="0" style="stop-color:#5F707B"/>
		<stop  offset="0.8132" style="stop-color:#FFFFFF"/>
	</linearGradient>
	<path class="st10" d="M45.6,10c-5.4,0.6-9.8,4.9-10.4,10.3C34.5,27.4,40,33.4,47,33.4c6.5,0,11.8-5.3,11.8-11.8
		C58.7,14.7,52.7,9.2,45.6,10z M46.9,33.2c-6.6,0-12-5.6-11.6-12.4c0.4-5.8,5.1-10.4,10.8-10.8c6.7-0.4,12.3,4.9,12.3,11.6
		C58.5,28,53.3,33.2,46.9,33.2z"/>
	<defs>
		<filter id="Adobe_OpacityMaskFilter" filterUnits="userSpaceOnUse" x="35.6" y="10.4" width="22.5" height="22.5">
			<feColorMatrix  type="matrix" values="1 0 0 0 0  0 1 0 0 0  0 0 1 0 0  0 0 0 1 0"/>
		</filter>
	</defs>
	<mask maskUnits="userSpaceOnUse" x="35.6" y="10.4" width="22.5" height="22.5" id="SVGID_1_">
		<g class="st11">
			
				<radialGradient id="SVGID_13_" cx="46.97" cy="44.26" r="12.87" gradientTransform="matrix(1 0 0 -1 0 65.88)" gradientUnits="userSpaceOnUse">
				<stop  offset="0" style="stop-color:#FFFFFF"/>
				<stop  offset="0.2675" style="stop-color:#A3A3A3"/>
				<stop  offset="0.5366" style="stop-color:#4C4C4C"/>
				<stop  offset="0.7268" style="stop-color:#151515"/>
				<stop  offset="0.8187" style="stop-color:#000000"/>
			</radialGradient>
			<path class="st12" d="M34.1,21.6c0-7.1,5.8-12.9,12.9-12.9s12.9,5.8,12.9,12.9c0,7.1-5.8,12.9-12.9,12.9
				C39.9,34.5,34.1,28.7,34.1,21.6z"/>
		</g>
	</mask>
	<path class="st13" d="M35.6,21.7c0-6.5,5.4-11.6,12-11.2c5.6,0.3,10.2,4.9,10.5,10.5c0.4,6.5-4.8,12-11.2,12
		C40.7,32.9,35.6,27.9,35.6,21.7z"/>
	<defs>
		<filter id="Adobe_OpacityMaskFilter_1_" filterUnits="userSpaceOnUse" x="35.6" y="10.9" width="21.6" height="21.6">
			<feColorMatrix  type="matrix" values="1 0 0 0 0  0 1 0 0 0  0 0 1 0 0  0 0 0 1 0"/>
		</filter>
	</defs>
	<mask maskUnits="userSpaceOnUse" x="35.6" y="10.9" width="21.6" height="21.6" id="SVGID_2_">
		<g class="st14">
			
				<radialGradient id="SVGID_14_" cx="46.48" cy="44.25" r="12.34" gradientTransform="matrix(1 0 0 -1 0 65.88)" gradientUnits="userSpaceOnUse">
				<stop  offset="0" style="stop-color:#FFFFFF"/>
				<stop  offset="0.2675" style="stop-color:#A3A3A3"/>
				<stop  offset="0.5366" style="stop-color:#4C4C4C"/>
				<stop  offset="0.7268" style="stop-color:#151515"/>
				<stop  offset="0.8187" style="stop-color:#000000"/>
			</radialGradient>
			<path class="st15" d="M34.1,21.6c0-6.8,5.5-12.3,12.3-12.3s12.3,5.5,12.3,12.3c0,6.8-5.5,12.3-12.3,12.3
				C39.7,34,34.1,28.4,34.1,21.6z"/>
		</g>
	</mask>
	<path class="st16" d="M35.6,21c0.3-5.4,4.7-9.7,10.1-10.1c6.3-0.4,11.5,4.6,11.5,10.8c0,6-4.8,10.8-10.8,10.8
		C40.2,32.5,35.2,27.3,35.6,21z"/>
</g>
<g>
	<path class="st17" d="M66.2,51.4c0,2.4-1.4,2.9-2.6,2.9c-1.2,0-2.6-0.5-2.6-2.9v-6.8h-3.5v7.2c0,3.5,2.3,5.7,6.1,5.7
		c3.8,0,6.1-2.2,6.1-5.7v-7.2h-3.5C66.2,44.6,66.2,51.4,66.2,51.4z"/>
	<path class="st17" d="M79.8,44.4l-0.3-0.1c-0.4-0.1-1.2-0.1-1.3-0.1c-4.7,0-6.9,2.1-6.9,6.4v6.5h3.5V53c0-0.2,0-0.4,0-0.6
		c0-3,0.1-4.7,3-4.8c0.3,0,1.1,0,1.5,0.2l0.6,0.2C79.8,47.9,79.8,44.4,79.8,44.4z"/>
	<path class="st17" d="M36.3,44.3c-4.7,0-7,2.1-7,6.4v6.5h3.5V53c0-0.2,0-0.4,0-0.6c0-3,0.1-4.7,3-4.8c0.3,0,1.1,0,1.5,0.2l0.6,0.2
		v-3.5l-0.3-0.1C37.1,44.3,36.4,44.3,36.3,44.3z"/>
	<rect x="39.5" y="44.4" class="st17" width="3.5" height="12.7"/>
	<path class="st17" d="M14.1,44.4h-3.6l0,0.4c0,0-0.5,4.1-3.4,7.9c-2.9-3.8-3.4-7.8-3.4-7.9l0-0.4H0l0,0.5c0,0.3,0.6,7.4,6.7,12.4
		L7,57.5l0.3-0.2c6.1-5.1,6.7-12.1,6.7-12.4L14.1,44.4z"/>
	<path class="st17" d="M52,49.4L49.9,49c-0.9-0.1-1.4-0.6-1.4-0.9c0-0.4,0.8-0.9,2-0.8h0c1,0.1,1.8,0.3,2.3,0.6l0.2,0.1l2.6-2.1
		l-0.4-0.3c-1.1-0.8-2.5-1.2-4.5-1.3h-0.1c-2.8-0.2-5.7,1.1-5.9,3.8c-0.1,1.5,0.5,3.5,4.2,4l2.1,0.3c0.9,0.2,1.5,0.5,1.5,1
		c-0.1,0.7-1.5,0.9-2.5,0.9l0,0c-1.2-0.1-2.1-0.4-2.8-0.9l-0.3-0.2l-2.7,2.2l0.4,0.3c1.4,1.2,3.1,1.5,5.1,1.7l0.1,0
		c0.2,0,0.5,0,0.7,0c1.3,0,2.5-0.2,3.5-0.7c1.4-0.7,2.2-1.8,2.3-3.2C56.4,51.4,54.8,49.8,52,49.4z"/>
	<path class="st17" d="M90.6,52.6l-0.1,0.1c-0.4,0.9-1.7,1.5-3.2,1.5c-2.2-0.1-2.9-1.6-3.1-2.5H94v-0.3c0-4.7-2.5-7.4-6.7-7.5h0
		c-4.7,0-6.7,3.4-6.7,6.7c0,4.1,2.8,6.8,6.9,6.8c3.5,0,5.2-2,5.8-3L90.6,52.6z M87.4,46.8c1.6,0,2.7,0.9,2.9,2.4h-5.8
		C84.7,47.9,86,46.8,87.4,46.8z"/>
	<path class="st17" d="M24.7,52.6l0,0.1c-0.4,0.9-1.7,1.5-3.2,1.5c-2.2-0.1-2.9-1.6-3.1-2.5h9.7v-0.3c0-4.7-2.5-7.4-6.7-7.5h0
		c-4.7,0-6.7,3.4-6.7,6.7c0,4.1,2.8,6.8,6.9,6.8c3.5,0,5.2-2,5.8-3L24.7,52.6z M21.4,46.8c1.5,0,2.7,0.9,2.9,2.4h-5.8
		C18.7,47.9,20,46.8,21.4,46.8z"/>
</g>
</svg>
