<svg xmlns="http://www.w3.org/2000/svg" viewBox="0 0 170.22 37.88" xml:space="preserve" height="33"><path d="M20.5,11.9a9.54,9.54,0,0,0-6.9,3A9.18,9.18,0,0,0,11.1,22a9.46,9.46,0,0,0,8.8,8.8,9.09,9.09,0,0,0,7-2.5,9.54,9.54,0,0,0,3-6.9A9.41,9.41,0,0,0,20.5,11.9Z" transform="translate(-0.98 -1.01)" fill="#fff"/><path d="M34.3,10.5a10.26,10.26,0,0,1-7.8-5.7,6.65,6.65,0,0,0-12,0,10.26,10.26,0,0,1-7.8,5.7A6.54,6.54,0,0,0,3.1,21.8a10.51,10.51,0,0,1,3,9.2,6.69,6.69,0,0,0,9.7,7.1,10.19,10.19,0,0,1,9.6,0A6.69,6.69,0,0,0,35.1,31,9.63,9.63,0,0,1,38,21.8,6.6,6.6,0,0,0,34.3,10.5ZM27.8,29.1A10.54,10.54,0,0,1,20.5,32h-.7a10.6,10.6,0,0,1-10-10,10.37,10.37,0,0,1,2.9-8,10.6,10.6,0,0,1,7.8-3.4A10.71,10.71,0,0,1,31.2,21.3,10.6,10.6,0,0,1,27.8,29.1ZM134,19.8c0,3.1-1.8,3.7-3.3,3.7s-3.3-.6-3.3-3.7V11h-4.5v9.3c0,4.5,3,7.3,7.9,7.4s7.8-2.9,7.8-7.4V11H134Zm18.3-9-.4-.1a11,11,0,0,0-1.6-.1c-6,0-8.9,2.7-8.9,8.2v8.4h4.5V21.1c0-3.9.1-6.1,3.8-6.2a6.82,6.82,0,0,1,1.9.2l.7.2Zm-59.2-.2c-6,0-8.9,2.7-8.9,8.2v8.4h4.5V21.1c0-3.9.1-6.1,3.8-6.2a6.48,6.48,0,0,1,1.9.2l.7.2V10.8l-.4-.1A11,11,0,0,0,93.1,10.6Zm4.9.3h4.5V27.3H98Zm-35.1,0H58.3l-.1.5a22.52,22.52,0,0,1-4.3,10.1,22.52,22.52,0,0,1-4.3-10.1l-.1-.5H44.9v.6a24.73,24.73,0,0,0,8.6,16l.3.3.3-.3a24.73,24.73,0,0,0,8.6-16Zm52,6.3-2.7-.4c-1.2-.2-1.8-.7-1.8-1.2s1.1-1.1,2.5-1a6,6,0,0,1,3,.8l.3.2,3.4-2.7-.6-.4a11.08,11.08,0,0,0-5.8-1.7h-.1c-3.6-.2-7.4,1.4-7.6,4.9-.1,2,.7,4.4,5.3,5.2l2.7.4c1.2.2,1.9.7,1.9,1.3-.1.9-2,1.2-3.2,1.1h-.1a7.3,7.3,0,0,1-3.6-1.1l-.3-.2-3.5,2.9.5.4a10.14,10.14,0,0,0,6.5,2.1h1a9.86,9.86,0,0,0,4.4-.9,4.87,4.87,0,0,0,3-4.1c.4-3-1.6-5.1-5.2-5.6Zm52,4.1-.1.2c-.5,1.1-2.2,2-4.1,2a3.88,3.88,0,0,1-4-3.2h12.5v-.4c0-6-3.2-9.5-8.7-9.6-6,0-8.6,4.3-8.6,8.6,0,5.2,3.6,8.7,8.9,8.7a8.11,8.11,0,0,0,7.4-3.9l-3.3-2.4Zm-4.1-7.4a3.53,3.53,0,0,1,3.7,3.1H159a4,4,0,0,1,3.8-3.1ZM77.3,21.3l-.1.2c-.5,1.1-2.2,2-4.1,2a3.88,3.88,0,0,1-4-3.2H81.6v-.4c0-6-3.2-9.5-8.7-9.6-6,0-8.6,4.3-8.6,8.6,0,5.2,3.6,8.7,8.9,8.7a8.11,8.11,0,0,0,7.4-3.9Zm-4.1-7.4A3.53,3.53,0,0,1,76.9,17H69.4A4,4,0,0,1,73.2,13.9Z" transform="translate(-0.98 -1.01)" fill="#fff"/></svg>