<svg enable-background="new 0 0 633.7 141.8" viewBox="0 0 633.7 141.8" xml:space="preserve" xmlns="http://www.w3.org/2000/svg"><path d="M54.2 138.8c-17.9 9.8-39-5.8-35.4-26.2 1.7-9.5 0-23.6-10.8-34.2C-6.8 64 1.3 39 21.4 36.2c12.4-1.8 23-9.7 28.3-21 8.7-18.4 34.8-19 43.8 0 5.3 11.3 15.9 19.2 28.3 21C142 39 150 64.4 135.1 78.5c-11.6 11-12.3 24.5-10.6 34 3.6 20.4-17.5 36-35.4 26.2-10.9-5.9-24.1-5.9-34.9.1z" fill="#e9ebf2"/><linearGradient id="a" x1="71.598" x2="71.598" y1="143.77" y2="2.18" gradientTransform="matrix(1 0 0 -1 0 144)" gradientUnits="userSpaceOnUse"><stop stop-color="#fff" offset=".09"/><stop stop-color="#e0e3e4" stop-opacity=".97" offset=".2"/><stop stop-color="#99a1a4" stop-opacity=".91" offset=".49"/><stop stop-color="#657076" stop-opacity=".87" offset=".73"/><stop stop-color="#445259" stop-opacity=".84" offset=".9"/><stop stop-color="#38474e" stop-opacity=".83" offset="1"/></linearGradient><path d="M42.7 141.8c-13.9-.2-25-11.6-24.8-25.6 0-1.4.2-2.9.4-4.3C19 107.3 21.1 91 8 78.2c-6.9-6.8-9.8-16.4-6.8-25.7 2.8-9.2 10.7-16 20.2-17.3 12.2-1.7 22.7-9.5 27.9-20.7C53.3 5.8 62.1.2 71.7.2 81.3.2 90 5.8 93.9 14.5c5.2 11.2 15.7 18.9 27.9 20.7 9.5 1.3 17.4 8.1 20.2 17.2 2.9 9.2.4 19.3-6.6 26-13.1 12.8-11.2 28.9-10.4 33.5 2.6 13.7-6.5 26.9-20.2 29.4-1.4.3-2.8.4-4.3.4-4.1 0-8.1-1.1-11.7-3.1-10.7-5.9-23.7-5.9-34.5 0-3.5 2.1-7.6 3.2-11.6 3.2zm29-140.6C62.5 1.2 54 6.6 50.2 15 44.8 26.5 34 34.4 21.5 36.2c-9.1 1.3-16.7 7.7-19.4 16.5-2.9 8.8-.5 18.5 6.2 25C21.7 91 20 107.4 19.2 112.1c-2.5 13.1 6.2 25.8 19.3 28.2 1.3.3 2.7.4 4.1.4 3.9 0 7.8-1 11.2-2.9 11-6.1 24.4-6.1 35.4 0 3.4 1.9 7.3 2.9 11.2 2.9 13.4-.2 24-11.1 23.9-24.5 0-1.4-.2-2.8-.4-4.1-.8-4.7-2.5-21.2 11-34.3 6.6-6.5 9-16.2 6.2-25-2.7-8.8-10.3-15.3-19.4-16.5C109.2 34.5 98.4 26.5 93 15 89.2 6.6 80.9 1.2 71.7 1.2z" fill="url(#a)"/><linearGradient id="b" x1="71.661" x2="71.661" y1="3" y2="144" gradientTransform="matrix(1 0 0 -1 0 144)" gradientUnits="userSpaceOnUse"><stop stop-color="#fff" offset="0"/><stop stop-color="#3b4b53" offset=".14"/><stop stop-color="#878f93" offset=".26"/><stop stop-color="#bdbfbf" offset=".33"/><stop stop-color="#3b4b53" stop-opacity=".92" offset=".42"/><stop stop-color="#859098" stop-opacity=".96" offset=".56"/><stop stop-color="#c1c8d1" offset=".67"/><stop stop-color="#c6ccd5" offset=".72"/><stop stop-color="#d4d9df" offset=".78"/><stop stop-color="#ebedf0" offset=".84"/><stop stop-color="#fff" offset=".88"/><stop stop-color="#c1c8d1" offset="1"/></linearGradient><path d="M42.7 141c-7.4-.1-14.4-3.4-19.1-9.2-4.8-5.7-6.8-13.2-5.6-20.5 1-5.7 2.9-19.8-10.4-33.2C.8 71.3-1.7 61.2 1.2 52 4 42.8 11.9 36.2 21.4 34.8c12.2-1.7 22.7-9.5 27.9-20.6C53.4 5.5 62.1 0 71.8 0 81.3-.1 90.1 5.5 94 14.2c5.2 11.1 15.7 18.9 27.9 20.6 9.5 1.3 17.3 8 20.2 17.2 3 9.2.5 19.3-6.4 26-13.1 12.8-11.5 28.7-10.7 33.3 2.5 13.6-6.5 26.8-20.1 29.3-1.4.3-2.8.4-4.3.4-4.1 0-8.1-1-11.7-3a35.64 35.64 0 0 0-34.4 0c-3.7 2-7.7 3-11.8 3zM71.8 1c-9.2 0-17.6 5.3-21.5 13.7-5.4 11.4-16.1 19.4-28.6 21.2C12.6 37.2 5 43.6 2.3 52.4c-2.9 8.8-.5 18.5 6.2 24.9 13.4 13.1 11.8 29.5 10.9 34.2-2.4 13.1 6.2 25.7 19.3 28.1 1.4.3 2.8.4 4.1.4 3.9 0 7.8-1 11.3-2.9 11-6 24.4-6 35.4 0 3.4 1.9 7.3 2.9 11.2 2.9 13.3-.1 24-11.1 23.8-24.4 0-1.4-.2-2.8-.4-4.2-.8-4.7-2.5-21.1 10.9-34.2 6.6-6.5 9-16.1 6.2-24.9-2.7-8.8-10.3-15.2-19.4-16.5-12.5-1.8-23.3-9.7-28.7-21.2C89.2 6.3 80.9 1 71.8 1z" fill="url(#b)"/><linearGradient id="c" x1="55.998" x2="92.738" y1="123.48" y2="22.532" gradientTransform="matrix(1 0 0 -1 0 144)" gradientUnits="userSpaceOnUse"><stop stop-color="#d5d8e1" offset="0"/><stop stop-color="#e3e5eb" offset=".03"/><stop stop-color="#f3f4f6" offset=".09"/><stop stop-color="#fcfcfd" offset=".15"/><stop stop-color="#fff" offset=".24"/><stop stop-color="#fbfcfc" offset=".43"/><stop stop-color="#eff1f3" offset=".63"/><stop stop-color="#dbe0e5" offset=".82"/><stop stop-color="#c1c9d1" offset="1"/></linearGradient><path d="M22 127.9c6.3 11 20 15.1 31.4 9.5.3-.2.7-.4 1-.5 10.8-5.9 23.9-5.8 34.6.1.3.2.7.4 1 .5 11.4 5.6 25.2 1.2 31.3-9.9 2.7-4.7 3.7-9.8 2.6-16.5-.9-5.7-.5-11.6 1.1-17.2 1.8-6.2 5.1-11.8 9.8-16.3 3.9-3.9 6.5-9 7.2-14.4 1.6-10.5-4.9-22.5-14.7-25.8-2.4-.8-4.8-1.4-7.2-1.8-11.7-2.1-21.6-9.7-26.6-20.5-1-1.9-2.2-3.8-3.5-5.5-8.3-11-26.7-12-36.4-.2-1.4 1.7-2.6 3.7-3.5 5.7-5.4 11.1-15.8 18.8-28 20.7-2.1.3-4.1.8-6.1 1.6C5.9 41.3 0 52.1 1.2 62.5c.6 5.6 3.1 10.8 7.1 14.8C12.7 81.7 16 87 18 92.9c1.9 5.8 2.3 12.1 1.3 18.1-1.1 5.8-.1 11.8 2.7 16.9z" fill="url(#c)"/><radialGradient id="d" cx="129.42" cy="84.484" r="69.72" gradientTransform="matrix(1 0 0 -1.01 -.26 149.37)" gradientUnits="userSpaceOnUse"><stop stop-color="#c1c8d1" offset="0"/><stop stop-color="#c1c8d1" stop-opacity="0" offset="1"/></radialGradient><path d="M22 127.9c6.3 11 20 15.1 31.4 9.5.3-.2.7-.4 1-.5 10.8-5.9 23.9-5.8 34.6.1.3.2.7.4 1 .5 11.4 5.6 25.2 1.2 31.3-9.9 2.7-4.7 3.7-9.8 2.6-16.5-.9-5.7-.5-11.6 1.1-17.2 1.8-6.2 5.1-11.8 9.8-16.3 3.9-3.9 6.5-9 7.2-14.4 1.6-10.5-4.9-22.5-14.7-25.8-2.4-.8-4.8-1.4-7.2-1.8-11.7-2.1-21.6-9.7-26.6-20.5-1-1.9-2.2-3.8-3.5-5.5-8.3-11-26.7-12-36.4-.2-1.4 1.7-2.6 3.7-3.5 5.7-5.4 11.1-15.8 18.8-28 20.7-2.1.3-4.1.8-6.1 1.6C5.9 41.3 0 52.1 1.2 62.5c.6 5.6 3.1 10.8 7.1 14.8C12.7 81.7 16 87 18 92.9c1.9 5.8 2.3 12.1 1.3 18.1-1.1 5.8-.1 11.8 2.7 16.9z" fill="url(#d)"/><linearGradient id="e" x1="61.27" x2="112.41" y1="141.66" y2="28.156" gradientTransform="matrix(1 0 0 -1 0 144)" gradientUnits="userSpaceOnUse"><stop stop-color="#374d55" offset="0"/><stop stop-color="#53666e" offset=".07"/><stop stop-color="#76858d" offset=".18"/><stop stop-color="#919da5" offset=".28"/><stop stop-color="#a5aeb6" offset=".39"/><stop stop-color="#b0b9c1" offset=".5"/><stop stop-color="#b4bcc4" offset=".61"/><stop stop-color="#b5bdc5" offset=".62"/><stop stop-color="#c5ccd4" offset=".84"/><stop stop-color="#cbd1d9" offset="1"/></linearGradient><path d="M123.6 107.3c-36.3-58.1-104.5-71-104.5-71 2.2-.5 4.4-.8 6.7-1.4 7.1-2 18.6-7.3 24.5-20.4 7.5-16.7 33.2-19.2 42.5-.4 5.4 10.8 12.9 19.1 29.5 21.9 18.1 3 27.7 26.5 12 42.2-7.5 7.8-11.4 18.4-10.7 29.1z" fill="url(#e)"/><radialGradient id="f" cx="96.43" cy="73.804" r="34.23" gradientTransform="matrix(1 0 0 -1.01 -.26 149.37)" gradientUnits="userSpaceOnUse"><stop stop-color="#fff" stop-opacity=".16" offset="0"/><stop stop-color="#fff" stop-opacity=".14" offset=".08"/><stop stop-color="#fff" stop-opacity=".06" offset=".38"/><stop stop-color="#fff" stop-opacity=".01" offset=".68"/><stop stop-color="#fff" stop-opacity="0" offset="1"/></radialGradient><path d="M123.6 107.3c-36.3-58.1-104.5-71-104.5-71 2.2-.5 4.4-.8 6.7-1.4 7.1-2 18.6-7.3 24.5-20.4 7.5-16.7 33.2-19.2 42.5-.4 5.4 10.8 12.9 19.1 29.5 21.9 18.1 3 27.7 26.5 12 42.2-7.5 7.8-11.4 18.4-10.7 29.1z" fill="url(#f)"/><radialGradient id="g" cx="29.6" cy="112.16" r="34.23" gradientTransform="matrix(1 0 0 -1.01 -.26 149.37)" gradientUnits="userSpaceOnUse"><stop stop-color="#2c3a46" stop-opacity=".2" offset="0"/><stop stop-color="#35434c" stop-opacity=".05" offset=".47"/><stop stop-color="#38474e" stop-opacity="0" offset="1"/></radialGradient><path d="M123.6 107.3c-36.3-58.1-104.5-71-104.5-71 2.2-.5 4.4-.8 6.7-1.4 7.1-2 18.6-7.3 24.5-20.4 7.5-16.7 33.2-19.2 42.5-.4 5.4 10.8 12.9 19.1 29.5 21.9 18.1 3 27.7 26.5 12 42.2-7.5 7.8-11.4 18.4-10.7 29.1z" fill="url(#g)"/><radialGradient id="h" cx="123.94" cy="135.5" r="45.5" gradientTransform="matrix(1 0 0 -1.01 -.26 149.37)" gradientUnits="userSpaceOnUse"><stop stop-color="#2c3a46" stop-opacity=".3" offset="0"/><stop stop-color="#34434b" stop-opacity=".1" offset=".52"/><stop stop-color="#38474e" stop-opacity="0" offset="1"/></radialGradient><path d="M123.6 107.3c-36.3-58.1-104.5-71-104.5-71 2.2-.5 4.4-.8 6.7-1.4 7.1-2 18.6-7.3 24.5-20.4 7.5-16.7 33.2-19.2 42.5-.4 5.4 10.8 12.9 19.1 29.5 21.9 18.1 3 27.7 26.5 12 42.2-7.5 7.8-11.4 18.4-10.7 29.1z" fill="url(#h)"/><linearGradient id="i" x1="44.205" x2="102.05" y1="92.926" y2="42.641" gradientTransform="matrix(1 0 0 -1 -1.73 144)" gradientUnits="userSpaceOnUse"><stop stop-color="#c1c8d1" offset="0"/><stop stop-color="#fff" offset=".63"/><stop stop-color="#f9fafa" offset=".67"/><stop stop-color="#eaeced" offset=".73"/><stop stop-color="#cfd4d7" offset=".79"/><stop stop-color="#abb3b9" offset=".85"/><stop stop-color="#7c8892" offset=".92"/><stop stop-color="#445563" offset=".99"/><stop stop-color="#3e505e" offset="1"/></linearGradient><path d="M71.4 37.6c-21.8 0-39.4 18.7-38 41.1C34.6 98 50 113.6 69 114.8c22.1 1.4 40.5-16.5 40.5-38.5 0-21.4-17.1-38.7-38.1-38.7zm2.3 76.5c-21.8 1.4-39.9-16.2-39.9-38 0-21 16.8-38.1 37.5-38.1 21.5 0 38.8 18.5 37.4 40.5-1.1 19-16.4 34.4-35 35.6z" fill="url(#i)"/><linearGradient id="j" x1="33.566" x2="112.93" y1="77.031" y2="58.712" gradientTransform="matrix(1 0 0 -1 -1.73 144)" gradientUnits="userSpaceOnUse"><stop stop-color="#586c76" offset="0"/><stop stop-color="#fff" offset=".81"/></linearGradient><path d="M66.9 35.2c-18.7 2.1-33.7 17.3-35.8 36.2-2.8 24.8 16.4 46 40.4 46 22.4 0 40.7-18.5 40.7-41.2 0-24.3-20.8-43.8-45.3-41zm4.5 81.4c-23 0-41.5-19.7-40-43.3C32.8 53.1 49 36.7 68.9 35.5 92.1 34 111.5 52.8 111.5 76c0 22.4-18 40.6-40.1 40.6z" fill="url(#j)"/><defs><filter id="l" x="32.4" y="36.8" width="77.9" height="78.9" filterUnits="userSpaceOnUse"><feColorMatrix values="1 0 0 0 0 0 1 0 0 0 0 0 1 0 0 0 0 0 1 0"/></filter></defs><mask id="m" x="32.4" y="36.8" width="77.9" height="78.9" maskUnits="userSpaceOnUse"><radialGradient id="k" cx="71.94" cy="72.814" r="44.58" gradientTransform="matrix(1 0 0 -1.01 -.26 149.37)" gradientUnits="userSpaceOnUse"><stop stop-color="#fff" offset="0"/><stop stop-color="#a3a3a3" offset=".27"/><stop stop-color="#4c4c4c" offset=".54"/><stop stop-color="#151515" offset=".73"/><stop offset=".82"/></radialGradient><path d="M27 76c0-24.9 20-45.1 44.5-45.1S116 51.1 116 76s-19.9 45.1-44.5 45.1S27 100.9 27 76z" enable-background="new" fill="url(#k)" filter="url(#l)" opacity=".73"/></mask><g mask="url(#m)"><path d="M32.4 76.2c0-22.6 18.7-40.8 41.4-39.4C93.1 38 108.9 54 110.1 73.7c1.4 23-16.5 42-38.8 42-21.5 0-38.9-17.7-38.9-39.5z" enable-background="new" fill="#fff" opacity=".83"/></g><defs><filter id="o" x="32.3" y="38.4" width="74.6" height="75.7" filterUnits="userSpaceOnUse"><feColorMatrix values="1 0 0 0 0 0 1 0 0 0 0 0 1 0 0 0 0 0 1 0"/></filter></defs><mask id="p" x="32.3" y="38.4" width="74.6" height="75.7" maskUnits="userSpaceOnUse"><radialGradient id="n" cx="70.23" cy="68.14" r="42.74" gradientTransform="matrix(1 0 0 -1 0 144)" gradientUnits="userSpaceOnUse"><stop stop-color="#fff" offset="0"/><stop stop-color="#a3a3a3" offset=".27"/><stop stop-color="#4c4c4c" offset=".54"/><stop stop-color="#151515" offset=".73"/><stop offset=".82"/></radialGradient><path d="M27.2 76c0-23.9 19.1-43.3 42.7-43.3s42.7 19.4 42.7 43.3-19.1 43.2-42.7 43.2S27.2 99.9 27.2 76z" enable-background="new" fill="url(#n)" filter="url(#o)" opacity=".73"/></mask><g mask="url(#p)"><path d="M32.4 73.8C33.6 55 48.8 39.7 67.3 38.6c21.7-1.3 39.6 16.1 39.6 37.8 0 20.9-16.7 37.8-37.3 37.8-21.4-.1-38.6-18.4-37.2-40.4z" enable-background="new" fill="#fff" opacity=".04"/></g><path d="m617.4 79.5-.2.6c-1.8 4.2-8.2 7.3-15.2 7.3-10.7-.4-13.8-7.6-14.8-11.8h46.6V74c0-22.5-11.8-35.6-32.3-35.8-22.2 0-32.2 16.1-32.2 32.1 0 19.4 13.3 32.4 33.1 32.4 17 0 24.9-9.7 27.8-14.4l-12.8-8.8zm-15.5-27.6c7.4 0 12.7 4.3 13.8 11.4h-27.9c1.1-6.3 7.4-11.4 14.1-11.4zm-39.2-11.4-1.6-.3c-2-.3-4-.5-6-.5-22.4 0-33.2 10-33.2 30.7v31.2h16.8v-23c-.1-14.5.5-22.7 14.3-23.1 2.4-.1 4.8.1 7.1.7l2.7.9-.1-16.6zM494.4 74c0 11.4-6.7 13.8-12.4 13.8s-12.4-2.4-12.4-13.8V41.4h-16.9V76c0 16.8 11.2 27.3 29.3 27.4 18-.1 29.2-10.6 29.2-27.4V41.4h-16.9l.1 32.6zm-71.1-10-10-1.6c-4.5-.7-6.7-2.7-6.6-4.4.1-2.1 4-4.2 9.4-3.8h.2c4.7.3 8.4 1.3 11.2 2.8l1.2.7 12.5-10.2-2.1-1.5c-5.1-3.7-11.9-5.7-21.5-6.3h-.3c-13.4-.8-27.4 5.2-28.3 18.3-.5 7.3 2.5 16.6 19.9 19.3l10 1.6c4.4.7 7.1 2.6 7 4.8-.2 3.5-7.3 4.4-11.8 4.1h-.3c-5.5-.4-9.9-1.8-13.3-4.2l-1.2-.9-13 10.7 1.9 1.6c6.9 5.7 14.7 7.3 24.4 8h.4c1.1.1 2.2.1 3.2.1 5.7.1 11.3-1 16.5-3.2 6.8-3.2 10.7-8.5 11.1-15.4.6-10.7-7-18.3-20.5-20.5zm-62.9-23.5h16.8v61h-16.8zm-18.3-.9c-22.4 0-33.2 10-33.2 30.7v31.2h16.8V78.6c-.1-14.5.5-22.7 14.3-23.1 2.4-.1 4.8.1 7.1.7l2.7.9V40.5l-1.6-.3c-2-.4-4-.6-6.1-.6zm-58.6 39.9-.3.6c-1.8 4.2-8.1 7.3-15.2 7.3-10.6-.4-13.8-7.6-14.8-11.8h46.6V74c0-22.5-11.8-35.6-32.3-35.8-22.2 0-32.2 16.1-32.2 32.1 0 19.4 13.3 32.4 33.1 32.4 16.9 0 24.9-9.7 27.8-14.4l-12.7-8.8zM268 51.9c7.4 0 12.7 4.3 13.8 11.4H254c1-6.3 7.3-11.4 14-11.4zm-38.4-11.4h-17.3l-.2 1.8C209.9 56 204.3 68.9 196 80c-8.3-11.1-13.9-24-16.2-37.6l-.2-1.8h-17.3l.2 2.2c.1 1.4 3 35.3 32.2 59.5l1.3 1.1 1.3-1.1c29.2-24.2 32.1-58.1 32.2-59.5l.1-2.3z" style="fill:#ea0029"/></svg>