<?xml version="1.0" encoding="utf-8"?>
<!-- Generator: Adobe Illustrator 23.0.1, SVG Export Plug-In . SVG Version: 6.00 Build 0)  -->
<svg version="1.1" id="Capa_1" xmlns="http://www.w3.org/2000/svg" xmlns:xlink="http://www.w3.org/1999/xlink" x="0px" y="0px"
	 viewBox="0 0 141.73 96.38" style="enable-background:new 0 0 141.73 96.38;" xml:space="preserve">
<style type="text/css">
	.st0{fill:#FF0033;}
	.st1{fill:#1D1D1B;}
	.st2{fill:#FFFFFF;}
</style>
<g>
	<g>
		<path class="st0" d="M32.51,56.59c1.43,0.79,2.48,1.69,3.23,2.67c2.19,2.86,1.81,6.45,0,10.23C32.08,77.17,22.59,85.66,17,90.39
			c-0.92,0.46-3.56,2.67-4.89,2.67c-1.74-1.81-3.26-3.07-3.26-4.48c5.61-1.65,30-24.12,23.06-27.98c-4.08,0-7.25,2.09-9.39,3.4
			c-2.15,3.11-5.31,18.29-9.59,19.08c0-5.09,1.02-9.96,2.24-15.01c-0.71,0-9.89,4.08-10.5,3.74c5.21-7.76,15.2-9.57,14.59-19.36
			c6.21-2.27,4.39,3.33,4.58,5.54C26.7,58,29.25,56.59,32.51,56.59 M55.25,54.38c-6.28,0.96-11.67,3.16-3.74,4.61
			c0.8-0.13,2.18-0.61,3.74-1.23c3.02-1.22,6.69-2.97,7.7-3.75C60.91,53.79,57.99,53.96,55.25,54.38 M137.07,42.33
			c-16.12,7.18-26.01,4.54-27.95,19.64c0.42-0.06,10.52-3.41,11.44-4.2c0.1,0,0.21,0,0.3,0.06c-4.08,3.52-8.67,7.42-14.08,10.42
			c-3.47,0.62-4.18-2.49-6.12-2.49c-1.42,0.84-8.78,5.83-10.91,5.42c-1.34-1.35-2.65-1.97-3.88-2.09c-1.74,0.7-3.68,2-5.59,3.29
			c-2.48,1.69-4.91,3.35-6.75,3.68c-1.53-1.14-3.56-2.49-4.16-3.35c-0.31-0.04-0.52-0.04-0.71-0.04c-1.33,1.18-6.73,6.45-8.67,7.19
			c-9.49-3.74,5.71-11.05-1.84-11.85c-1.08,0.72-2.02,1.52-2.88,2.4C50.9,74.81,48.79,80.68,43.42,84c-0.4-0.06-0.81-0.06-1.22-0.06
			c-6.23-3.45,0.11-5.9-1.02-8.55c-1.94,0.48-3.78,1.22-5.44,1.81c-0.52,0.19-1.01,0.37-1.5,0.52c-0.09-0.31,0.55-0.93,1.5-1.69
			c2.31-1.81,6.55-4.36,7.28-4.89c1.74-2.15,3.47-4.3,5.31-6.45c4.69,3.96-3.78,9.28-1.02,12.41c3.84-2.14,5.74-6.95,7.94-10.47
			c1.35-2.16,2.82-3.82,4.92-4.03c0.19,0.51,0.4,1.01,0.61,1.59c1.02,0.04,2.05,0.1,3.05,0.16c5.62-3.11,0.21,8.09,0.21,8.28
			c8.75,0,8.38-13.28,16.23-14.25c0.65-0.07,1.35-0.07,2.13,0.03c3.69,2.05,1.09,4.64-2.13,7.12c-3.65,2.8-8.08,5.46-5.22,7.04
			c2.1-0.19,3.8-0.64,5.22-1.27c8.88-3.96,6.26-15.21,18.15-17.42c3.26,0,3.66,4.94,0,5.62v-2.61c-2.45-0.68-7.65,8.27-7.15,10.58
			c10.1,0,16.43-11.11,17.04-14.84c-2.52-1.05-3.53-1.08-3.97-1.74c-0.36-0.52-0.55-1.85,0.01-2.09c1.76-0.72,7.82-0.68,9.86-2.82
			c1.62-2.03,3.38-6.17,3.46-6.33c0.18-0.31,1.09-0.16,1.36-0.43c0.71,0.84,0.4,3.51,0.4,4.92c0.61,0.34,14.8-1.97,17.65-2.15V42.33
			 M80.26,61.04c-1.38,1.19-2.11,3.47-2.25,4.61c0.8-0.23,1.57-0.6,2.25-1.07c1.79-1.28,2.89-3.2,1.93-4.32
			C81.43,60.26,80.79,60.56,80.26,61.04"/>
		<rect x="39.97" y="3.32" class="st1" width="58.85" height="35.9"/>
		<path class="st2" d="M46.84,28.5c0.16,0.02,0.32-0.15,0.47,0l0.07,0.14l-0.02,1.77c-0.02,0.05-0.12,0.07-0.16,0.03
			c-0.23-0.46-0.42-1.01-0.87-1.34c-0.3-0.31-0.75-0.39-1.22-0.31c-0.27,0.09-0.61,0.28-0.7,0.62c-0.15,0.47,0.02,0.98,0.43,1.27
			c0.94,0.67,2.47,0.84,2.75,2.22c0.21,1.01-0.02,2.13-0.87,2.75c-0.89,0.67-2.19,0.36-3.2,0.16c-0.14,0.07-0.28,0.07-0.42,0.07
			l-0.11-0.14l-0.05-1.65c0.02-0.1,0-0.27,0.14-0.29h0.07c0.23,0.69,0.71,1.48,1.48,1.68c0.36,0.16,0.87,0.12,1.2-0.14
			c0.27-0.24,0.42-0.53,0.42-0.88c-0.07-1.06-1.2-1.27-1.9-1.7c-0.75-0.33-1.39-1.12-1.36-2.01c-0.03-0.81,0.23-1.64,0.99-2.1
			C44.76,28.11,45.95,28.25,46.84,28.5 M59.08,28.65c-1.5-0.55-3.57-0.5-4.54,1.08c-0.89,1.36-0.94,3.42-0.19,4.86
			c0.66,1,1.72,1.69,2.91,1.6c0.89,0.05,1.69-0.5,2.15-1.29c0.11-0.26,0.28-0.5,0.26-0.79c-0.07-0.02-0.14,0-0.19,0.05
			c-0.21,0.38-0.56,0.74-0.94,0.96c-0.67,0.29-1.55,0.24-2.07-0.37c-1.03-1.23-0.96-3.22-0.52-4.73c0.22-0.57,0.74-1.1,1.34-1.15
			c0.71-0.09,1.34,0.32,1.72,0.91c0.19,0.34,0.29,0.7,0.45,1.03c0.04,0.07,0.11,0,0.17-0.03v-0.62L59.6,28.7
			C59.48,28.5,59.28,28.7,59.08,28.65 M95.4,28.56c-0.4,0.24-0.8-0.12-1.2-0.07c-0.68-0.17-1.46-0.05-2.05,0.25
			c-0.7,0.46-1.01,1.24-0.99,2.08c-0.05,0.84,0.4,1.58,1.15,1.96c0.73,0.46,1.78,0.57,2.1,1.53c0.09,0.5-0.1,0.98-0.5,1.27
			c-0.25,0.12-0.61,0.19-0.89,0.09c-0.79-0.14-1.43-0.98-1.67-1.72l-0.12-0.03c-0.12,0.03-0.1,0.17-0.12,0.26l0.05,1.67l0.07,0.17
			c0.14,0.07,0.35-0.07,0.51-0.07c0.83,0.17,1.7,0.39,2.52,0.12c0.77-0.17,1.39-0.95,1.55-1.69c0.14-0.84,0.07-1.77-0.56-2.35
			c-0.85-0.74-2.12-0.74-2.66-1.82c-0.1-0.34-0.02-0.71,0.18-0.98c0.17-0.22,0.38-0.34,0.64-0.36c0.52-0.07,0.97,0.17,1.33,0.55
			c0.34,0.35,0.4,0.81,0.64,1.19c0.07,0,0.14-0.02,0.18-0.07v-1.79C95.58,28.65,95.49,28.56,95.4,28.56 M48.38,28.42
			c-0.07,0.02-0.09,0.09-0.09,0.16c0.21,0.19,0.57,0.4,0.57,0.76v4.07l-0.02,1.47c0,0.27-0.12,0.53-0.28,0.72
			c-0.07,0.14-0.26,0.09-0.24,0.29c0,0.05,0.05,0.07,0.1,0.1l4.63,0.05l0.24-0.15c0.07-0.52,0.15-1.03,0.15-1.58
			c0-0.05-0.05-0.05-0.09-0.07c-0.29,0.21-0.4,0.6-0.68,0.86c-0.48,0.43-1.2,0.46-1.76,0.29c-0.19-0.1-0.26-0.29-0.28-0.51v-2.25
			l0.09-0.14c0.54,0.02,1.27-0.19,1.69,0.26c0.17,0.09,0.22,0.55,0.48,0.34v-1.86l-0.05-0.07c-0.24,0-0.24,0.29-0.38,0.41
			c-0.43,0.47-1.15,0.25-1.72,0.28l-0.12-0.12v-2.15c0-0.21-0.02-0.43,0.12-0.58h1.15c0.54,0.02,0.99,0.49,1.26,0.93
			c0.05,0.04,0.12,0.07,0.16,0c0-0.4-0.05-0.83-0.07-1.27c0-0.12-0.14-0.18-0.23-0.23 M60.98,28.52l-0.67-0.02
			c-0.12-0.03-0.24,0.02-0.24,0.16c0.07,0.07,0.16,0.07,0.21,0.13c0.55,0.28,0.41,0.97,0.43,1.45l-0.02,3.54
			c-0.03,0.82,0.23,1.56,0.89,2.03c0.82,0.51,2.02,0.6,2.84,0.03c0.24-0.12,0.38-0.43,0.63-0.45c0.09,0.21-0.07,0.57,0.19,0.71h2.03
			c0.07-0.02,0.09-0.07,0.07-0.17c-0.19-0.12-0.47-0.3-0.51-0.54v-5.74c-0.07-0.45,0.2-0.69,0.54-0.91c0.05-0.07,0-0.14-0.07-0.16
			l-2.68-0.02c-0.04,0.05-0.09,0.09-0.07,0.17c0.21,0.17,0.49,0.26,0.56,0.58l0.02,2.94v1.6c-0.02,0.29,0,0.63-0.21,0.84
			c-0.42,0.53-1.03,0.94-1.74,0.72c-0.54-0.17-0.75-0.77-0.77-1.29v-4.35c0.03-0.23,0.05-0.49,0.22-0.72
			c0.09-0.21,0.63-0.17,0.35-0.48 M75.74,28.5c-0.17,0.02-0.4-0.05-0.43,0.16c0.05,0.1,0.16,0.13,0.26,0.15
			c0.19,0.1,0.37,0.31,0.4,0.53l0.02,1.48l-0.04,4.28l-0.07,0.34c-0.07,0.26-0.35,0.43-0.56,0.52c-0.05,0.02-0.05,0.12,0,0.17h2.94
			c0.07,0,0.15-0.07,0.09-0.17c-0.23-0.17-0.58-0.33-0.63-0.69v-5.38l0.07-0.64c0.04-0.29,0.38-0.44,0.61-0.58
			c0.02-0.04-0.02-0.14-0.09-0.16 M82.93,28.56l-3.67-0.05c-0.09,0.02-0.14,0.12-0.21,0.19c-0.04,0.43-0.09,0.79-0.07,1.24
			l0.07,0.09c0.21-0.07,0.24-0.36,0.43-0.49c0.35-0.39,0.85-0.39,1.36-0.39c0.12,0,0.17,0.12,0.19,0.22v5.35
			c-0.07,0.34,0,0.73-0.26,0.98c-0.09,0.12-0.33,0.14-0.33,0.34c0,0.07,0.05,0.05,0.07,0.07l2.69-0.02
			c0.04-0.02,0.12-0.05,0.09-0.14c-0.02-0.05-0.07-0.1-0.14-0.12c-0.27-0.07-0.4-0.35-0.43-0.6v-3.99l0.03-1.89
			c0.12-0.34,0.49-0.14,0.75-0.19c0.51,0,0.87,0.41,1.1,0.83c0.03,0.08,0.14,0.15,0.21,0.08c0.02-0.41,0-0.83,0-1.27
			c-0.04-0.09-0.06-0.19-0.18-0.24 M74.89,35.97c0.03,0.1-0.07,0.17-0.16,0.19l-1.77-0.03c-0.28-0.17-0.35-0.5-0.45-0.78
			c-0.38-0.87-0.73-1.75-1.11-2.61c-0.14-0.19-0.45-0.16-0.63-0.14l-0.12,0.14v2.66c0.09,0.26,0.37,0.4,0.56,0.57
			c0,0.1-0.05,0.17-0.14,0.14h-2.07c-0.22-0.02-0.56,0-0.75-0.09c0.04-0.34,0.52-0.29,0.56-0.64l0.07-0.37V32.3l0.05-2.82
			c-0.05-0.31-0.28-0.65-0.59-0.72c-0.07-0.05-0.02-0.12,0-0.16c0.03-0.05,0.07-0.05,0.12-0.07l3.88,0.05
			c0.73,0.05,1.46,0.48,1.74,1.19c0.26,0.73,0.12,1.56-0.39,2.11c-0.19,0.19-0.46,0.29-0.62,0.51c0.05,0.17,0.24,0.31,0.31,0.47
			l0.73,1.63C74.37,34.97,74.42,35.59,74.89,35.97 M72.13,29.64c-0.12-0.24-0.35-0.38-0.59-0.45c-0.28-0.02-0.66-0.15-0.84,0.1v2.6
			c0.12,0.2,0.39,0.12,0.61,0.12c0.35-0.07,0.72-0.24,0.87-0.62C72.47,30.86,72.42,30.17,72.13,29.64 M90.92,35.87
			c0.05,0.1-0.05,0.17-0.12,0.19h-2.59c-0.05-0.04-0.05-0.15,0-0.19c0.12-0.04,0.24-0.16,0.31-0.28c0.14-0.55-0.24-0.94-0.33-1.44
			c-0.09-0.19-0.07-0.5-0.35-0.55h-1.86c-0.35,0.31-0.37,0.81-0.54,1.22c-0.03,0.24-0.07,0.48,0.02,0.7
			c0.12,0.26,0.46,0.19,0.46,0.47l-0.14,0.09h-1.67c-0.19-0.31,0.29-0.34,0.43-0.54c0.35-0.41,0.42-0.91,0.63-1.37l0.45-1.47
			c0.16-0.38,0.28-0.78,0.4-1.19l0.62-1.85c0.06-0.33,0.21-0.67,0.27-1.01c0.29-0.31,0.69-0.09,1.03-0.12
			c0.1,0.05,0.16,0.09,0.19,0.22l0.4,1.09l1.67,4.76C90.36,35.09,90.53,35.55,90.92,35.87 M87.71,32.91
			c-0.03-0.52-0.35-0.98-0.47-1.48L87,30.73c-0.03-0.09-0.12-0.09-0.19-0.03l-0.58,1.8c-0.07,0.14-0.12,0.31-0.05,0.45
			c0.45,0.07,0.97,0.02,1.42,0.02L87.71,32.91z"/>
		<path class="st0" d="M78.22,15.45c0,4.96-3.95,8.97-8.83,8.97c-4.88,0-8.83-4.02-8.83-8.97c0-4.96,3.95-8.97,8.83-8.97
			C74.27,6.48,78.22,10.5,78.22,15.45"/>
		<path class="st0" d="M59.09,15.45c0,4.96-3.95,8.97-8.83,8.97c-4.88,0-8.83-4.02-8.83-8.97c0-4.96,3.95-8.97,8.83-8.97
			C55.14,6.48,59.09,10.5,59.09,15.45"/>
		<path class="st0" d="M97.35,15.45c0,4.96-3.95,8.97-8.83,8.97c-4.88,0-8.83-4.02-8.83-8.97c0-4.96,3.95-8.97,8.83-8.97
			C93.4,6.48,97.35,10.5,97.35,15.45"/>
	</g>
</g>
</svg>
