<?xml version="1.0" encoding="UTF-8"?>
<!-- Generator: Adobe Illustrator 15.0.0, SVG Export Plug-In . SVG Version: 6.00 Build 0)  -->
<!DOCTYPE svg PUBLIC "-//W3C//DTD SVG 1.1//EN" "http://www.w3.org/Graphics/SVG/1.1/DTD/svg11.dtd">
<svg version="1.1" id="Layer_1" xmlns="http://www.w3.org/2000/svg" xmlns:xlink="http://www.w3.org/1999/xlink" x="0px" y="0px" width="20.8px" height="20.79px" viewBox="0 0 20.8 20.79" enable-background="new 0 0 20.8 20.79" xml:space="preserve">
<path fill-rule="evenodd" clip-rule="evenodd" fill="#FED300" d="M0,10.4C0,4.66,4.66,0,10.4,0s10.4,4.66,10.4,10.4  c0,5.74-4.66,10.39-10.4,10.39S0,16.14,0,10.4z"/>
<path fill="#FFFFFF" d="M8.81,15.61c-0.32,0-0.63-0.13-0.86-0.35l-3.07-2.99c-0.47-0.46-0.47-1.22,0-1.68  c0.48-0.46,1.25-0.46,1.73,0l2.01,1.96l5.23-7.57c0.38-0.54,1.14-0.69,1.7-0.32c0.56,0.37,0.71,1.1,0.33,1.65l-6.05,8.77  c-0.21,0.3-0.54,0.49-0.9,0.52L8.81,15.61z"/>
</svg>